<mxfile host="app.diagrams.net" agent="Mozilla/5.0 (Windows NT 10.0; Win64; x64) AppleWebKit/537.36 (KHTML, like Gecko) Chrome/134.0.0.0 Safari/537.36" version="26.1.1">
  <diagram name="PÃ¡gina-1" id="XQSh9wm0zNJe5eYfVX5m">
    <mxGraphModel dx="1927" dy="533" grid="1" gridSize="10" guides="1" tooltips="1" connect="1" arrows="1" fold="1" page="1" pageScale="1" pageWidth="827" pageHeight="1169" math="0" shadow="0">
      <root>
        <mxCell id="0" />
        <mxCell id="1" parent="0" />
        <mxCell id="-X_b09wzf-uSCR-H1WR--1" value="" style="shape=image;verticalLabelPosition=bottom;labelBackgroundColor=default;verticalAlign=top;aspect=fixed;imageAspect=0;image=data:image/png,iVBORw0KGgoAAAANSUhEUgAAAsMAAAE2CAYAAACEO591AAAAAXNSR0IArs4c6QAAAARnQU1BAACxjwv8YQUAAAAJcEhZcwAADsMAAA7DAcdvqGQAAP+lSURBVHhe7J0JXJRV98d/MzAbCAwQiqKsijtEEqkoLmlSmmuW4fqq9Tcz0zLRyi1xzSxNTNFEcykX3F63ilywFMUEWVxRERV3XFhkYGbO/87CKswzLPZW3u/7mV6f57nLueeec+55nnnuICIGOBwOh8PhcDicZxCx8f85HA6Hw+FwOJxnDp4MczgcDofD4XCeWXgyzOFwOBwOh8N5ZuHJMIfD4XA4HA7nmYUnwxwOh8PhcDicZxaeDHM4HA6Hw+Fwnll4MszhcDgcDofDeWbhyTCHw+FwOBwO55mFJ8McDofD4XA4nGcWngxzOBwOh8PhcJ5ZzEiGVbj6xzp8NW0SJk1fjKhTmdAar1QXzZWdmDPhC0Slaoxnisn/MxKhE5Yg5oHxxLOM+ibif/0Vf97IZ0q7iqM7/kD6kyrj/IPJPbocn0zZYDxiqNKRdOZejfna/w4NLu+YjU8WHTAe1wxP6EsATfpuzBjUDUHtOmP4yjNQG8//bck9iuWfTMGGlDKSaq5g55yPmT734/Y/3zieAk/H3op5iMPhn+CLLefZv3NxdPknmLIhxXCpJviH+L0qPQln7hVLqbm6G/M+noCv9mUYz1SVkvr9t1LGRivy9UI0l7Fj9idYdOCe8cRThuUYu+dNwIzN55ikZcj/E5GhE7CkphKzp27v5tuTQDKchT9mdIFfl0+w/vh5nP75Kwxp0wajdtysEeE1N37HD9+uxsGrTxqB+twuhH+7BScfPesRPxcHPu6Ajm8NQKcmTRAY3Av9Jm/DNZ4M/6vITz+Ovb+cMhyw4Pddb38M2ZD+r0iGM2LWIHzzCeNxzVBKX4LkYteU4Zj1uyXa9umNri2d//5fieWn4/jeX3DqVmlHzzuyCBNnR4N8XkBt/r1eOTwdeytCm42EqHBEHrjGDvKRfnwvfjl1y3CtuvxD/F5z+Tv09h+CDemFUuYjLjwUYfvy4RPgbDxXRUrp999KGRutwNeL0GQgZk04Np/4i54M0k38se5bfL//6pMPDdTnsCv8W2w5+aj6NvpX2Hsl7MlkOFUnfIUP51/FK5GxiNu7FTv/OIG1/XOxduYKnP7bP1r5l8AmU+s5FKuOZ+Dywbno27Yf5q35DK2lxuucfwXKt75H8rF5hgPKxu07bN4NR5xyKKUvIbRZyMjIQt1Xx2PGx2Px9kv2f/9kWPkWvk8+hnmdZcYTOjS4dtseby1bh7BOSuM5zv8OJd76PhnH5nU2HleTf4jfU/Zt3MkuIaXmOm7Z9cPSDXPR1YHfoVWacn39GeBvZu8mLFeNU1u24nTL/8PU/m6w0J0SO6HXPHYnvOgN1P0rbf7hNnzQfhAWrJ+L/s87w0oig0PjYEzamV70GF97+xC+GtoBjWtbQ2JhCbmjNzq/vw5nVMYCT/AQ2z5oj7fnfI9p3b1hL5NB6dEeIyNOsCuFaHHr4HyEBDSArZS16dQE3cb/iDN5xsvIRfIPY9C5kT3kMiUavjIJaxe/i/YjftBf1d7eiFGBPTEvLl9/rEOd+DX6Bo7AD1cNJqC9dRDzQwLQwFYKS7kTmnQbjx+LOmAyftgPkQVuuDD5JTQPHIhPv/0B66MOFz0Zrvy4dZge18NtH6D9oLmInN4bzZ+TQ2pdH23eY9eT1+G99m6wkUph790ds2LuF1Zg8/M25nw/Dd297SFjuvBoPxIRJ4yazNyC0e1DMHlKPzR1sIaD30QcyBUe+7ElQxHYyAnWrD87V3/0D4vGTaPnVGXchnEtwPq5/fG8sxUkMgc0Dp6EnUXvnAjNN5u/9D2Y+VYA3JQySBROaP7659hVWF97CwfnhyCggS2klnI4NemG8T+eQdGIji3B0MBGcLKWQmrnCv/+YYg2DkgnW9uu01kbGVg3aghWnFUhNXIQAoeuQppGi9uHvsLQDo1R21oCC9a2o3dnvL/uDExOc24yfhjTGd4ObA5rsTkcGY4Fo9qh/+JknQKxcVQges6LQ5F1qhPxdd9AjPjhquGYlTn01VB0aFwb1hILNkeO8O78PtYZlZy5ZTTah0zGlH5N4WDtAL+Juq/9mE+sHYuXvR0gl9rBq8tk/Hqb9OX1VKnNJynSl+Gg4vigPoWFb7yG+cwHb20bg7ZtPsA2nVnmX8bOqX3gV68WJJYK1G4ajPEbTjPpdWRiy+j2CJk8Bf2aOsDawQ8TD9zQx4tBcyMxvXdzPCeXwrp+G7zH5jd53Xto72YDqdQe3t1nIea+0bcFbVSN9D0z8VaAG5QyCRROzfH657sMr0DpxtS2K6bHGGYn//JOTO3jj6ChX2DWyJfhFzweG04bpGWFDbItWI+5/Z+Hs5UEMofGCJ600/TrVAJzYVI+hkn/rcDnTflP1WKZgL2Z4dPlYdLPi9DpvS26To8xHgv0ZcpOy/V7AR0zTMUUs6ikPz4/+lOMGrICZ1WpiBwUiKGr0lgyfANJMdE4frHEOleR/syJO6XIx+WdU9HHrx5qSSyhqN0UweM3oNj0j2HJ0EA0crJm/mcHV//+CIuu6JvrHOz/vAvaDl+DoofajPxjc9Cj/XvYeKu8WjWUJ5iy0TK+rovba8e+bIjbdl7oMvlXlDJpk7GrBmyiEgj6bEXzU5PrnMC6azZUIZkU+Xotqj9yPf2ycAR18fOmRi3a09szdtHlAmORaqI6+gk1kXrQmP15xjPF5KzvS9bSDvT1FQ3R3QgKlsuplsfLNHntQYqL3UlhwfVIUncY7cjSlb5Lm0KcSd5oAC3eF0dJSbG088s+5C5RUp+19/TtPcldigiWkVT+HD0/4jv69cgh2jC5EzlLXOk/2w11CpLmU5DSnlq9u5T2xMbTka2zqJeHFTUctYfus+vZB8ZRY5kDtR4bSQeOHqDV4wPJxVpO0sD5+vqaa4upk8KdRv9WPD7V7x+RtyKQ5qeqdR3Q/CAl2bd6l5buiaX4I1tpVi8Psmo4ivboOtDLKCd5LQ96efJaOhjHxhUWTPUkdWmYfuBVGbfwuO5GBJNMoiC3btMp6kg8xSztT24SW3J0fZHeWR5Nx2OjaGJbJcnbzDU0qJsfmZTkzz1PI777lY4c2kCTOzmTxPU/pFOl5uZS6iIVk5Xvu7T28GHavCmGbqtMj73g+KfU0roJDY3YT/HJJ2nfV33IVVqfRu7J1nVYpXHrxiWX1yKPlyfT2oNxFLszjILrSajusB3660J6IVU8zQyoRXZ+I2nZr3F0Yn8EDW9pTcpu4XRJXUBJ84NIad+K3l26h2Ljj9DWWb3Iw6ohjTIMiD5lZZsMjaD98cl0ct9X1MdVyvxrD+lHpJOt9lD2ryxK3B5Gfdwl1KDXNIrYnkD3726iEGc5NRqwmPbFJVESs/8v+7iTRNmHKh5uFkV/4E2y59rRx2sOUGzMRpoa3ICkYktqOjFWZ5y0uJOC3Ef/RkXWqfqdPvJWUOD8VP3h3U0h5CxvRAMW76O4pCSmry/1cin7rKV7pKGbS7uw9qzI9921dPjwZtoUc5uy939I3rLnqN3HP9DBowdpXWhHcrYUkcToE1VpszyK9aU/qDg+PLxJR3/6moY0l5JTl1D67vu9dCYvhw6HtiQrO2av3+6mI7HRtIr5rpPUnYZvv00azU1a2kVKYitfenftYTq8eRPF3L6tjxcShRt1mx5FR+JjaGl/N5LYOpLri+/Q8ujjFBs1kdoq5dRm7lmdUII2qoqfSQG17Mhv5DL6Ne4E7Y8YzmxeSd3CLxnHVJuG7njMguFhCm1pRXbPj6Bvdx+h2OhVND7QiaTuw2n7bRYfBeNE+ZieCwH5BGJXuT7/2JT/VM2nhexN0KfLw5Sf5xf7TaHeaw81M36YXMfK8Xuh9UEgpphDpf1x30HaHqablwbUa1oEbU9gguTtoZEuCuq2zOirZuqv3LhTIi7pyDkcSi2t7Nga/S3tPhJL0avGU6CTlNyHb6fbmgI6/mlLsm4ylCL2x1PyyX30VR9XktYfSfplohwyN75Fzyna0ryzbP3Vk0cHPvCiWp2+YTZoPFWKGsgTBGy0lK+zmdv/oTFu/3CQjh5cR6EdnclSJDHGZYHYVQM2obOryS2k5PxGOB0+epSOlvwcCqPOCil1+PoKsw4hnzU1PzW1zgmsu2XsyRQVJ8Pqi/RloIzs6rqQW5uRNGflGlo+7S1qbiunZuP20yNjsepQqWSYJVtBCy+zCTCgOjiWvOQvUthpZsGaW3RswyKKPMSMwXidVDE0rpGcXgw7TeXauNHIZS/NppTCApoMWtlDSbavf0+3NHkU/Z4byVvPoSK/Ydxd148cbHtS5O1s2jrYiSWEJa5rrtB33WzMTobzot8jN3lrmlO6A+rnYEs9I3WBxeiIQQvpcvHAaayXYVxVG7fQuNi/dcmw1Jiw68j7lUa5Ssht1K+kc1fWMWUseZnkdUfojwzzI6OXZqcU9anJWEk9lLb0+ve3qEC3MMrk1CX8epGcQmN/HBVCDjbtKezkA0MddRr9sjycdiSzxb1K4y4cVxAtLFYmHRzrRfIXw9i/hfWitzmZD312QmW8ykLXb2E0cMQSOvYwmt5zk1PrOWdL9H+X1vVzINuekSwRiKIQBxtqH3aSHhgGRGm/LKfwHcksbTXIVpTcFSTS9FYK8vn8JHN13XCP0YZFkXRIn/gYUMWMo0aF9l8e93+k/qy/ruG6oGXk3kZ6u7bEzGRYQ7eObaBFkYfYomO4rNNXzLhGen2dVhsWSpm8C4VfLyyQRVGDnEgR9BUVmg5prtPyV22NPlGVNsvniWTYZHzIoCUvK8hjzH7DWLM209uOCmoz50zxXLEyq3oqyarzt3SlQJcMy0jeJZyKxTD6IhtHsVuMIleJG4361eAVhn7kVHfELvZvIRs12J7M5zMqNqds+i1sII1YcswwJuMCmbX5bXJUtKE5Z4rnWpOxinoqrajzt4ZFyWScKBehuTAtn5D/6pPhMj5v0n9yq+LTQvYm7NPlYVrOipJhM/oSstMyfi+4PgjEFGGq5o8FidOplcKHPj9pfCpWJhk2V3/CyXAWbX7bkRRsjS02fbb2rOpJSqvO9O2VHIoKcSCb9mF00qAAtkz8QsvDd5BumSiXR9tpaF0ZtZqeqNcx5fxCo9zsKHjZtWK7K0V18wQhG2WU8HXKiqJBTgoK+iq1yOY115fTq7ZSg36EYldOdW2CoU+GJSSykJBUKi3zkZCFyJgMC8a4x6bnpybWuTyBdbcSybDJ1yQ0Wi2yxV3wze4VmDRiCN6dvh47pr2EtNXfYkemsVh1EIkgghbakl8BFKJL1NlVVsSASAnPhsUbX8RKJWxEauTns8ri2gh4azD8H0ZhTuhoDOnbBf7NeiE8VQMtG0N5zRuwgEdQRzTUvwPCYO20DmiI/LPJOK/KQELSDajPLkNf3xZo0cLw6TD9MHIfn0fKuQtIOfsIzi+8BPei+i4IatcElsZD02iQkZCEG+qzWNbXt6j9Fh2m43DuY5xPSTV+jSSC0rMhnIsHDqWNCOp8drUq49YIjCvV2KutF7xdjAMTWaGWwhJ13RpAoj8hhpWVAiJNiRfHLTwQ1LGh4XUahrh2awQ0zMfZ5POGl/BF9nBzczDOn/DYxZ2GYLDrn5jiXw/1fbti8KRtyAroj+7Na1Vt3EZESk80LFYmlEobiNRszIJ6yUNmymlct3sBAc2LX9i27vwZ1q18H63uJSDphhpnl/WFb+F4WnTA9MO5eHw+BaniThgy2BV/TvFHvfq+6Dp4ErZlBaB/9+ZgIzKJuHYA3hrsj4dRcxA6egj6dvFHs17hSNUw3ynXeZj3XkjEmVw3vBhQr8hnoGyD1s0NMyiMGLUD3sJg/4eImhOK0UP6oot/M/QKT9XHhcJuRfZucCt8T1CdhuQzWXDx80eDEj7VtnUjo09UoU1zMRUfyqC+lISzOQ3Qpr1nkb3q5AwKbAbNuUScLtCdEMHezQ2lxRDB1ssbxW5RCwrLunBrYNSp2ApWChE0ao2+PZM2qs1EyunrsHshAMXmZI3On63DyvcDjMc61LiUdBY5DdqgvWeRtKz5IAQ20+Bc4mnoxTUVJ8pFYC40puRrZV7sKuXzWpP+E6Cogk8L2ZuZsa40AnJW9FqnuX2ZbadmrA/yqscUA0/DH6uov/JQX0LS2Rw0aNMexabPZA4KRDPNOSSetkCnIYPh+ucU+NerD9+ugzFpWxYC+neHbpkoF5uuGNCjNpK2/Ih4tjDlHNyIXY864q3edYvm5EmqkSecvSAQE0ujTkvGmSwX+Pk3KLGWtkXrRobSgrHLoro2UYgI9d/Zg0cqFVQlP/dXo5eVsYhQjIO8UvNTlXVOkyGw7lYU/sqh4rzNwhGOSgtYWL2Il+yM55j6G7zoB5e8w7h4nVmSQ8XVzUHMEioFcpD1qOxAtXj08BHUIgWsrJmJ6i6LmCxFs2+gME/WvWe5eXh7DN74GM2CgtCqZRCG9XsdRz8LxTljkfIRQa5QlHICC0vWCTHlg008U6RtqxB8MrRpseHpENugiZclfiYRLFn5IjnYv/RJovHIQJmx6YzEeEpl6AAhnwxF09IdwKaJl3FyRGzcFQy8SuMWHheSWRcSiTHxLUbE5qBCRHIoFKU0CYMqje8q6ebPslgzgmO3r41vjsbj1Z/WI2r3L9i/ciLWL1qA3stisHmYHFurNN86MZgcxn8bKJRJWC8FcSzJYYOSlJ5gAyxQ5MMWrUI+wdDSA2LVm8DL0h61vzmK+Fd/wvqo3fhl/0pMXL8IC3ovQ8zm4ShysXLQZmzG8PaDsfFxMwQFtULLoGHo9/pRfBYqNFrSByVTlLZO3QJYeEaLDCZX+8Eb8bhZEIJatUTQsH54/ehnKNmtTp/F08puoHV5oGXJuMB8TC4zarkqbZqJqfhQlnwNk9QSklLhi/mZTm6mL41eBTq/syzThggS5helYTfsZfrVI+ibBdDlzJYWkjJ9PEm+7qbTUlI6WLNODeJqjHNoIk6Ui9BcmJZPOHYl6GUs6fMFhgbL958qxTIhezMj1pWDSTkrxMy+KmGnwjq2RzcTMaXEvVMFPB1/NEd/FcedkuSzG0ud6ZeeJxHzS0tdHeao9t2/wdH4V/HT+ijs/mU/Vk5cj0ULemNZDIuZ5SrACp1CeqPBmij8FDsBQZv2QtX1K/SsYyrZr06eQNhl0kbLwHSnYT2VLi6HXGYsLRi77NG9WjZRCczwWftuJubH1VjISJXWOcF1FzD3d2VMWIAdfHy9IEo7h3NssgvJzcjAPbEj6jiZMh7zsGzQEG7yh0iISzY+BS3kEY7EpoDqeaGRtfGUCbTXNmPpxrvovCgOJ37+CSsWTMWYHnVQoPtZNpPJgAbpZ88i23gE9q/k5Euw8GyMRrK68HC1Qk6uHdqEDMbgwYbPwG5+8Grsg4ZObmjc0Ao3TqfgblEXeTh77hJr1QgLIhaUD9XjYkfPv3nTWN4CdT1cYZWTC7s2IUXtDx7YDX5ejeHTsPCJSsVUadwWAuOq6m5gTTrOni3WJLKTkXzJAp6Ny7sDFhq7EvfjfsKiLTfxwogZiNh+FKnXE7GwQzb2rNuNjPSqzrcJBPViCUd3V9hmpuJcic0I6jMr8d7AadgrcoOrVQ5y7dogpHA8gweim58XGvs0hPJ+HH5atAU3XxiBGRHbcTT1OhIXdkD2nnXY/cTmBt03JoVocW3zUmy82xmL4k7g559WYMHUMehRpwCmhmvZqCWaKq7gRFyJzSSP4hB3xvAcUTcHFhaEfNXj4oUp/yZuFhqz9ho2L92Iu50XIe7Ez/hpxQJMHdMDdQp0P6mj+185WLqhkYdM7xOZRQVUOHf+CgvgjKq0+RSwdPOAq+U15uv3S/SZi8SkC0B9d3iY+/DcBIK+yWKou6stMlPPFW0K1SV3Z1a+h4HTdhmPdVjCjfmK5TXmT8aNeXpyE2EQ1+OJm1azEJoLk/LtrULsEpv0n51/bqy8TwvZW5VinWk5d92oQJYaiasl/V54fcC9ysSUcqiqPxZ9XVseQvrT3bSZiDslYfPr4WqJa8nJKG36SbiA+nB3e4S4nxZhy80XMGJGBLYfTcX1xIXokL0H63bfNJZ+Elnbt9HX8wp2r1uAdfuAV9/uDqZNE1QjT6jtYdpGy2Dp1ggeshs4nVLi7zmozuH8FUNpodjlxmJ8tWyiEgjGOO09gfmp/jpnUZfpw8S6W5l0xkRRS7wQMhAv3FqLSVP3Il2lRW7qZoTO2g3LbgPxuu5HLtXnsDdiObacqOI7E7avYED353B60VAMmfMT9sedQsLRfVj9eQg+2ngfTd58G63N+VpF99RElI87aWl4wJSmufcnvh87A/99oLtxyDMWKg/C/V2zEbr5PHI1OTi3cQJm7BAheHBv1BHbIXhQHzid+Brvz/4N11Ws3TuxWDjsFXTsHYbDOTYIHtoftQ9/iQ9XxOOBRoX0PdMxfWNGUTIsVrrBzf4uDmzaiTRWX5W+DzMX7sVDYxSwCx6EPk4n8PX7s/GboQPELhyGVzr2RtjhHEMhU1Rp3ELjMharLHQfu2aHYvP5XGhyzmHjhBnYIQrG4N51yjUy02N/DNHF7Zg1Zixm7klnoYOZ2qPruHovHw6urrCTVnW+TSGsF6tOA9DbORbfTl6DlCy2WGSlYM30WVj9Zxbs3F7DoD5OOPH1+5j923UmswZ3Yhdi2Csd0TvsMB6LLmL7rDEYO3MP8yXWnfoRrl+9h3wHV7jaldGQSAqZlJD94IE+YOqejIjy7yAt7QELGRrc+/N7jJ3xXzxgvVQ4XGUPjBpUD4dnDMLE1ftx5NAmfDH4I2y8RYa1TKyEm5s97h7YhJ0G48S+mQuxt9A49U8fRMi/k4Y0g5Lx5/djMcOg5Ap26trjtWH9YL9/Lj5cdQoPNXm48t/PMX3TDWPgrkqbTwHHHhjU3QrRs8cgIi6T6TgXF7eGYtrmHLQe8AYa18TTE0HftEKnAb3hHPstJq9JQRaL9lkpazB91mr8mVX6ewLHHoPQ3Soas8dEIC6TWUTuRWwNnYbNOa0x4I3GLG2qCkJzYVq+qsQuk/7jKKuCTwvZW9VinUk57StaMmsgrpbxeyEdi4ViSt5p7IqIwLaE4t89KE3V/FEklUFK2XjwoLx0TmieHQTiTkkc0WNQd1hFz8aYiDgYTH8rQqdtRk7rAXijqSUubp+FMWNnYo9BAXh0/Sru5TvA1dXEd23SF/H2G01wadUC/Ff6GgZ0tTFeqIjq5AlCNloG+9cwrJ899s/9EKtOPYQm7wr++/l0bCq8CROIXU0tBWyiujlbSYRinFhken5qYp2zCza57lYqnTG+O1wBKrqw4f+olaOELGRykoolVLvtR7TzmvEF56zV1FMm0b+MXlU0dw/R3D5NSWkp0nmD/iOS1aW2o9fTmcI37HUvmCvq0ojdxo0qjIKEqeSn8KOpCQWskXsUPfklcrAUk9S6FsmlDuQ7cDZNClaSslck3Sp+H7sEhs0P9i+9RkF1pSSRSkgsc6GOk3ZTRmF5zV2Kmd2DPK3FJJbKScZklNfvQlOjbxlfGL9PR+b3IHe5mNVnbTi+SD3au5C88MV4pr/kZX3JUyEmS7kVya3cqceU0dTOunBzmobuxsymHp7WJBZLSS6zJJG8PnWZGm2UWSejguqO2G3cuMYoSKCpfgrym5pQxXEzBMal25ykqDuCitSt+oMmNFZQm7kXil5Sf7CqBylK7ea3p5deC6K6TI9SiZhkLh1p0u4MfXv6zTSK+vTuvuKNhIJjL0il9SN8SGlhQXIbW1JIJOQUMIa2pDEJqjjuJ8ZFBZQw1Y8UflMNh4LzraHMw3Oou7uCLKRWTCYxKdy707w/9HvFWfUYmt3Dk6zFTC65jCxFcqrfZSpFGwZEqetHkI/SgizkNmSrkJDEKYDGbEnT67TUhjA22wfGeZPMQkY2LSfQwRvRNPklB7JkerKuxfzQwZcGzp5EwUol9YoslK0ccpJo9agO5KmUkaSWCwUMGkt9vWXU8rMT+suq5GXU11NBYks5WTH7dO8xhUa3sy7aQHcvejK95GDJdGFNteRScvAdSLMnBZNS2YsibxXoN9co6r9Lpaf1Lh2c0ZXq632CjdGxNQ3t04KsjBvoqtRmOTyxgc5kfCizgY6huRlN015xJYWI2ZcVmyu5CwWNizL8Uo7+1yQUVP/dfcWbfMrxRdUfE6ixog3NvVDkFbSqh8KwococG9Vk0uE53cldYUFSKwVJxApy7z6P9OZUclMN09vN6Gn0iquCRBZsrpivyF2CaFzUZcMmIKE4US5Cc8EENCUfq2/Kfyvy+Qr9pxqxrGJ7M1w37dPlYUrOijbQ6aoJ9CVkp2X8PkYltD6Yjil0exl1Y+uzLm6XTxX98fEBGsfiiIXMhlpOiHliA51J/TFMxp2yG56YL0ZPe4VcFSI2RiumUzm5BI2jKONPWhWkrqcRPkqyYH5hY8tsVOJEAWO2kG6ZMEVB8kx6UWpJniwmFM9GeRjmuFp5gpCNlvJ1XfGDNKNrfZKzfEvK1j3H1kOpTwsrY1zWqcRE7BKyCXNyNuOvSTQY9WuJ+GckZz31tS7cQCfss6bnp2bWOZPrbiU20Il0/9FnxabIvYHkUxeRbesFn+Z1Ufj+dE2Sd/ssks7dRA6703Jr1hIe9k9+uW4aLbKunMKpK3lQNvRFi3pCUt7DilcbYJrLFqR+0wLnEm9A5umLZs5y4/ViNA/TkJicjmyZC5r7eMGheF+Annwme/yFbNRu0QIZX/ii67GRyP39E+NVdv3OOcSfuw+bRn5oVqecR92ah0hLTEZ6tgwuzX3gVbYDk1R23MUIjcts7q3Aqw2mwWVLKr5pcQ6JN2Tw9G2GclT5JCbHrkX29RQkXXwAsZM3fJvWQXGTVR+3EIJ6UWfiYkIKMjS10cSvMZxKXdfgYVoiktOzIXNpDh8vB5QaUfZ1pCRdxAOxE7x9m6JORTrSZiEt/hSual3g08oDdsjClVOncCVPiYa+LSA4XO0tJMfegJ3P82hQuFlBtR9jmnRH8ofncHCc8YUtdid+Lv4c7ts0gl+zOihrndqsKzh16grylA3h26Ke2b6fd+sMTqXmwKn5C/BUln6aVtU2ax41MlMTcPoW4NzEBw0dq+oAFWGejaozLyIhJQOa2k3g19iplL2UgtldasJp3IIzmvg0RE2Ia85cmJSvKrGrQv+puk+bsjcdVYp1Jv28YqoVV8v6vW4oAjquOKZocXt5X7yD5djxf3WM556kKv6ozUpD/Kmr0Lr44EWPCp7CmtKfQNwpizozFQkGR4VPQ8fSNqjNxvWUJFx8IIaTty+aVhhUi9HeXo2+Tb9E493xmGfyL1jVXJ4gZKOlycOtM6eQmuOE5i944snipmOX2etMtTHDZ03NT3XXuSJMr7vmYF4y/K+k2MgvrXytRJJVHfLxx8ctn0iG//UUJcOXsPK1p+Z1nMqgjscU/zZY33IVfl0eAi/ZPcQtHoKen2bgnd/j8EWryt5scjicfxR5RzE9JBJNFi3DgAZCydezgu51g8eID+uGrru7I+b3yWhm8j2jp5EncP6OPMMeIoJIbAGx/ufdag5dmxbimmzxHwDTodhCzP7vGRv33xlLX4yZ+xHcDgyHt9IKtayd0faLK+i4YCUm8kSYw/n3I38JU7dE8ES4BOq4qWhl64CAL/PwzpzRAomwjqeTJ3D+fjzDT4Y5nGcA9X2knb6AWwW2cG/aBHXM/+aZw+Fw/l1oHuLK6cvIc26Gxua+98J5JuDJMIfD4XA4HA7nmYV/f8LhcDgcDofDeWbhyTCHw+FwOBwO55mFJ8McDofD4XA4nGcWngxXGxXSk87gXrl/TubfQC6OLv8EUzakGI8FUKUj6cw9/Q/Y/DU8xOHwT/DFlvPG47+KSupFiNyjWP7JFGxIKf+vOlWev9YuNZd3YPYni3DA7A7/7X7D4XA4nH8KPBmuFhpc/q43/IdsQPq/dlHPR/rxvfjl1C3jsQk0l/Fdb38M2ZD+1yXD2mwkRIUj8sA144m/ikroxRzy03F87y84dUtjPFEd/nq71GTEYE34Zpx4YM5+3GfBbzgcDofzT4Enw9WCkH37DrL/1Qu6Em99n4xj8zobj01A2bh9J/svfCr8v6QSejEH5Vv4PvkY5nUW+ltM5vB3t8tnwW84HA6H80/hf5oMP9z2AdoPmovI6b3R/Dk5pNb10ea9H3EmeR3ea+8GG6kU9t7dMSvmvrFGPi7vnIo+fvVQS2IJRe2mCB6/AadzjZcfbsMH7QdhbuR09G7+HORSa9Rv8x5+PJOMde+1h5uNFFJ7b3SfFYP7xoVYe+sg5ocEoIGtFJZyJzTpNp6VzzNcxENs+6A9Bi1Yj7n9n4ezlQQyh8YInrQT6RotMtaNwpAVZ6FKjcSgwKFYlaZhIl7Gzql94FevFiSWCtRuGozxG06jUMQneHgMS4YGopGTNaRSO7j690dY9M2ihNK0fGXJxJbR7REyeQr6NXWAtYMfJh7IFW4jNxk/jOkMbwc2B7XYHIwMx4JR7dB/cTK7qNNBW3SdHmMoW5G82gysGzUEK86qkBo5CIFDVyHtzhaMbh+CyVP6oamDNRz8JuJArha3D32FoR0ao7a1BBaWcjh6d8b7685ApW/fMIcL1s9F/+edYSWRwaFxMCbtTIdZz0yF9C+g79I8xLElQxHYyAnWzBbtXP3RPywaN/WFy+iF9ZD8wxh09nZgdleL2d1IhC8YhXb9F7NrbMwbRyGw5zzE5RtK6/6cZuLXfRE44gfDoW7cbbtieoyhQI3bJZPh1sH5CAloAFupJeROTdBtPPO1oiYroxedyazF2Je94SBnevHqgsm/3mYpbjHa24fw1dAOaFzbGhIL1p+jNzq/vw5nVFX0G5Py5WLXR23x0qAVuFgTD9Y5HA6H82yh+53h/xV3I4JJJlGQW7fpFHUknmKW9ic3iS05ur5I7yyPpuOxUTSxrZLkbebqy+ccDqWWVnb0/IhvafeRWIpeNZ4CnaTkPnw73dboG6RgmYQUbt1oetQRio9ZSv3dJGTr6EovvrOcoo/HUtTEtqSUt6G5Z9VEBUk0P0hJ9q3epaV7Yin+yFaa1cuDrBqOoj33dT3epYhgOclredDLk9fSwbhY2hkWTPUkdWnYjizKStxOYX3cSdKgF02L2E4J93PocGhLsrJ7nkZ8u5uOxEbTqvGB5CR1p+Hbb5NOxNIU0PFPW5J1k6EUsT+ekk/uo6/6uJK0/kjak627LCRfGTQ3aWkXKYmtfOndtYfp8OZNFJNxSqCNLIr+wJtkz7Wjj9ccoNiYjTQ1uAFJxZbUdGIsu27QQe2hO9i/TcmbRYnbw6iPu4Qa9JpGEdsT6N7NpdRFKiYr33dp7eHDtHlTDN2+vYlCnOXUaMBi2heXREmxO+lLnQ6VfWjtPV13bA7lcqrl8TJNXnuQ4tj1sOB6JKk7jJjKn0RzjRZ3UpD76N/YgZD+BfRdhoLjn1JL6yY0NGI/xSefpH1f9SFXaX0aqS9cUi9Mi9EfkLfsOWr38Ro6EBtDG6cGUwM2dsumE9lVDV1b3IkU7qPptzx9cYaKfv/ImxSB8w2H+nHXpqE7Hj8Fu9Q1OZ+ClPbU6t2ltCc2no5snUW9PKyo4ag9dL+SeqHs/fSht4yea/cx/XDwKB1cF0odnS1JJAmk+anMr5h8m0KcSd5oAC3eF0dJSUy+L/uQu0RJfdgkV95vhOTLo9+/GUkjpm2na086GYfD4XA4JvnfJ8PSwgWUkfcrjXKVkNuoX4mlBAwNZSx5meR1R7B/Z9Hmtx1J0WYOnTEW119f1ZOUVp3p2ytsFdQnw1IKnJ9KhiJ59OsoV5K4jaJfDQ2SJmMJvSyvSyN2Paa86PfITd6a5ugS40LurqN+DrbUM/K27oAlHTKSBi2ky4WLrOogjfWS04thp9lBASVOb0UKn8/pZAE7zNpMbzsqqM2cM8b+GZoMWtVTSVadvyWdiKV5TFEhDmTTPoxOPjBcVKf9QsvDd1AyS/yE5SuDPhmWkbxLOF039iXYxv0fqb+DDXUNv8K0aeTeRnq7tqScZNi0vFSQSNNbKcjn85NMMzpxWDIsk1OX8OtFbWtuHaMNiyLpkP7uxYAqZhw1kr9IYaeZjMY5DFp4uaiO6uBY8iq8XpaSybCg/gXkL8PjqBBysGlPYScfGGRRp9Evy8Nph75wSb3cpx/7s3a7hpeY43u08e3aJKlCMlzjdsn8IPo9N5K3nkOlm+xHDrY9KfJ25fSSFTWInBRB9FWh37LxXV/+KtkW+rLmFh3bsIgiD5W4AVTF0LhGBvnUlfabysnH4XA4HE5l+J+/Myyy9YK3i/EPhIusUEthibpuDSDRnxDDykoBkUYNqC8h6WwOGrRpD8+ivycuRu2gQDTTnEPi6QLDKZEtvLxdYCgiglUtBSzruqGBoUGIraygEGmg1miQkZCEG+qzWNbXFy1atDB8OkzH4dzHOJ+SCsMX1iIoPRvCuVBTYiWUNiKo84u+7y5CfSkJZ3MaoE17T2P/DHFtBAU2g+ZcIgpFLEaOTkMGw/XPKfCvVx++XQdj0rYsBPTvjua1zJWvLCLYu7nBQS+vcBu5FxJxJtcNLwbUK35nRtkGrZsbFVYKU/Iai5RFZA83N4eitsW1A/DWYH88jJqD0NFD0LeLP5r1CkeqRgut1vhFu0gJz4bOxXWUStiI1MjPN705S1j/lZNf3mkIBrv+iSn+9VDftysGT9qGrID+6F62sPoCEs/kwu3FANQrViLatG5utOPKUPN2CU0GEpJuQH12Gfr6Gttjnw7TDyP38XmkpIoroRc10pLPIMvFD/4NCrXM/LBtazSyLDysjYC3BsP/YRTmhI7GkL5d4N+sF8JTNWyOtaVep9BR0/PG4XA4HE5lKFq6/1eIJJInEgaRqGhJLEE+dDmxpaRwxTUgsrCEJVgipSlMpFh7TzZYvMiWQKViiYNtK4R8EorQ0MLPVCyIiMScN71YuzpYXYsytUXG/y9LPkuyWa3SIrL6luwESwIKRSyJfbdvcDR+L5ZN6AGP7KNYOfENBPj1x6pLGjPlK4tOXssiEc1rg/RJijmYkrdc2FxaWBYrTJuxGcP9/fHmF1FIyJTBM2gYZkzrD9eSlqirY6bKS2GG/islv303fHM0HnuXTUAPj2wcXTkRbwT4of+qS+W+v0ysD5NaLDP/uuS/HJOoebuECoYmQ/BJUXvsM3UBIiLn4E0vy0rpRXcjCbHO74oRyeWQFfavzcDm4f7wf/MLRCVkQuYZhGEzpqF/qUkuQU3PG4fD4XA4leB/ngybjaUbPFwtcS05uWjzm47cxCRcQH24e1T2GZwF6nq4wionF3ZtQjB48GDDZ2A3+Hk1hk/D4qeZpmB5dhGWbh5wtbyG5OT7JZKiXCQmXQDqu+MJEbX3EPfTImy5+QJGzIjA9qOpuJ64EB2y92Dd7js1IJ/wGKWNWqKp4gpOxJXYLPUoDnFnnniMLSDvTVZAVHE+pkeLa5uXYuPdzlgUdwI//7QCC6aOQY86BXjEOjczH68QQf1bCMlfEi3uxf2ERVtu4oURMxCx/ShSrydiYYds7Fm327iJzohlI7RsqsCVE3Elzj9CXNwZFGpRl7hSvgqPi7LffNy8ebeEnIXUvF3Coi7zHSvk5NqhTYixPfYZ2M0PXo190FB5vxJ6sYRbIw/IbpxGSmax9Kpz53HF+BPJ2mubsXTjXXReFIcTP/+EFQumYkyPOigoMcmV8ptKzRuHw+FwOJXjn5MMwxE9BnWHVfRsjImIQyZbeHMvbkXotM3IaT0AbzQu79mvaeyCB6GP0wl8/f5s/HZdBWjuIHbhMLzSsTfCDucYS5lCBKlMCsp+gAe6RMCxBwZ1t0L07DGIiMuEmi3oF7eGYtrmHLQe8AaeEFEswsXtszBm7EzsSdf9loIaj65fxb18B7i62tWAfGaMUdkDowbVw+EZgzBx9X4cObQJXwz+CBtvUemESoeAvBBJIZMSsh88YFfKR/dkX5R/B2lpD1jio8G9P7/H2Bn/xQPd08uKfiTDXIT0LxGQvxRiiC5ux6wxYzFzT7r+ly7Uj67j6r18OLi6wq6U5yjRY9Qg1Ds8A4Mmrsb+I4ew6YvB+GjjLZBeiWIo3dxgf/cANu1M040U6ftmYuHeh+U+Ga5xu4Qdggf1gdOJr/H+7N9gaDIWC4e9go69w3D4cWX0Ati/Ngz97Pdj7oercOqhBnlX/ovPp2/CjcJM1lICS1E+7qSl4QE7p7n3J74fOwP/faB76q2b5Er6jeC8qXFubwSWbzmBEvk5h8PhcDjmYXx3+H+CbgOdou4I2m3c3EaqP2hCYwW1mXuhaCPNg1U9SFF7qOFAc5Oip71CrgoRWcitSGYpJ5egcRR1Wb9LyLAJSVGXRhQ3SH9MaEyKNnPpQnGD1ENh3LVPGrobM5t6eFqTWCwlucySRPL61GVqNN3S79PRbVRSUN0Ru40b+hgFCTTVT0F+UxP0h48PjCNvmQXJbFrShBgVEzGapr3iSgqRBcmtZGQpd6GgcVFUKGJZClLX0wgfJVlYyMnGVkESiRMFjNlCaXp5heQrg34DnYLqv7uPivZpmdNGThKtHtWBPJUyktRyoYBBY6mvt4xafnaCXSy5UUxI3sd0YJw3ySxkZNNyAh1MX0pdFPXp3X0lpLkXTZNfciBLJot1LTlJHXxp4OxJFKxUUq/IW6R5Yg51Kp9Kfgo/mppQjhJL/ZqETgWm9W9a/jIUpNL6ET6ktGBt2diSQiIhp4AxtEVfuLRedL9kkbR6FHXwVJJMUotcAgbR2L5MFy0/M1xWJdOyvp6kEFsyueRk5d6DpoxuR9bl/ZrEU7BLpliKmd2DPK3FJJbKme+ISF6/C02NZjrXVa+MXnTyHZxBXevLSSyRsrKO1HpoH2phVbiB7h5FT36JHCzFJLWuRXKpA/kOnE2TgpWk7BWpH0Nl/ca0fFm0uiez3VbTKbECP+NwOBwOpyJEuv8Y8+J/DOrMVCScvgU4N4FPQ0dIjeerjOYh0hKTkZ4tg0tzH3g5VKZFLbLS4nHqqhYuPq3goX9kqEZmagIMIvqgoaNAe9psXE9JwsUHYjh5+6JpHbnxgpFqyWekoja0t5AcewN2Ps+jQeFmJNV+jGnSHckfnsPBca7GkyUwJa82C2nxp3BV6wKfVh5lnqAaYWWunDqFK3lKNPRtgXpWxvM1hoD+hfRdCi2yr6cg6eIDiJ284du0Dp4srcWt5FjcsPPB88VKxP4xTdA9+UM8PjjOeC4fd87F49x9GzTya4Y6Qn9fo8btUtdkGhKT05Etc0FzHy+UarJSemHk3cKZU6nIcWqOFzyVZb5mYv1fOYVTV/KgbOiLFk9MchX8prLycTgcDodjBv/IZJhTg6jjMcW/Dda3XIVfl4fAS3YPcYuHoOenGXjn9zh80arUriZOuagRP8Ufbda3xKpflyPES4Z7cYsxpOenyHjnd8R/0cpYjsPhcDgczt8Nngw/82hxa9/nGDByIWJui6EQF0ClaIw3wtZgxfutwH+5yjy0t/bh8wEjsTDmNsQKMQpUCjR+IwxrVryPVlyJHA6Hw+H8beHJMMeA+j7STl/ArQJbuDdtgjo1/urCs4Aa99NO48KtAti6N0UTrkQOh8PhcP728GSYw+FwOBwOh/PMUt72Jg6Hw+FwOBwO55mAJ8McDofD4XA4nGcWngxzOBwOh8PhcJ5ZeDLM4XA4HA6Hw3lm4ckwh8PhcDgcDueZhSfDHA6Hw+FwOJxnFp4MczgcDofD4XCeWXgyzOFwOBwOh8N5ZuHJMIfD4XA4HA7nmYUnwxwOh8PhcDicZxaeDHM4HA6Hw+Fwnll4MszhcDgcDofDeWbhyTCHw+FwOBwO55mFJ8McDofD4XA4nGcWngxzOBwOh8PhcJ5ZeDLM4XA4HA6Hw3lm4ckwh8PhcDgcDueZhSfD1UBzcStmfjQO48YZPuPHf4SPJ36OWeGbcfxGvrHUPxfN5R2Y/ckiHLinNZ6pWR4eDscnX2wxHOQexfJPpmBDitpwXG1USE86g5oUXXN+C2Z8NBFLf79vPFOMOnEtPvtkGY5kG08UoUbKhqn46NPvcTzLeOofBrcDA9rb+/Ht/B24rDGeMKJO2YCpH32K7yszwTU4TlXiOsyKjMMTpidA6fg1HuM/moDQKbOwZPMxZKiMhfTk4ujyTzBlQ4rx+C+kxu3hL0BzGTtmf4JFB+4ZT/wN0VzF7nkfY8JX+5BRLd/Q4vb+bzF/x2WUcYsaIffocnwyZYPx6F/Kw8MI/+QLbDmv02DN+5oqPQlnzA2AqkSsmxWJuMoGEz35uHowAp+N6IuuHYPQ+dU3MWrGGsTeqoRllNJFOTxF3+LJcDVQXz2I1UvW4LcLd3Hv3j3cvXsHt5jh7f1qOAJ9X8XChFIryj8OTUYM1rDE/sQDMp6pSbTITohCeOQBw2F+Oo7v/QWnKuM4FaLB5e96w3/IBqTXYP6mvrofqxYvwLjhn2JfmXxYfWEfvluyDYm5ZTrM3I45n4TjT6U/fG2M5/5hcDtgaG8i6uPR2Cr2hquF8ZyeTGyf8wnC/1TCvzITXIPjlDX0wMNv38W0Q5VbwUrHr7u4ezsDF0/uwTfvtEOzl/4Pm9IKZctH+vG9+OXULePxX0iN2sNfhCYDMWvCsfnEA+OJvx/5ceEIDduHfJ8AOFcjC9DejMLHo7dC7O2KUm5RQ+SnH8feX04Zj/6daLMTEBUeiQPXdDd8Netrmsvfobf/EGwwNwDKGsLj4bd4d9qhSt5ca3ApcgDavDYDBzVN0KVvf/RsVx+3t4xDx9ZD8aOZ/ZfWRTk8Td8iTpXJO/ABeUob04Q/VMYzBjR3d9IIdwk5DthoPPPPRPX7R+StCKT5qWrjmZpEQ9cWdyKF+2jjcU1SQInTW5HC53M6WWA8VQPkRb9HrpYSkkgk1GjUXso0ntfxeEsI2ctfoe9uaYxnDDw+GUmfzdlBl5+GCv8iuB0QZf82hhp7vUt7s4wnCnl8kiI/m0M7/qcTrKEbq/uQS+swSqzEOCuKX3kXN9BgLykpX15MF/7Bdvs/Q/U7feStoMD5qcYTfzfUdGn7bJr6QwLlGM9UjWz6bUxj8np3L5V1C475aK4tpk4Kdxr9W57xTM1RkDidWil86PNKBEDNjdXUx6U1hVUmmKiOUWgzGXmPiyllU5q722hofSk1/eQolY4y5SOoi6foW//uJ8Pa2zj01VB0aFwb1hILWMod4d35faw783Sf2IodO6OTnwSPLl7QH2tvH8JXQzugcW1rSCwsIXf0Ruf318EgRia2jG6PkMlT0K+pA6wd/DDxQK5AnYpQI33PTLwV4AalTAKFU3O8/vkupOsfqmhx+9BXGNqhMWpbS2BhKYejd2e8v+4MCpvMTV6LsS97w0EuhZ1XF0z+9TaKnwUK1y8XdTr2zHwLAW5KyCQKODV/HZ/vSn/yK7WH2/BB266YHmN8vUR7CwfnhyCggS2krC+nJt0w/sczyNNffIhtH7THoAXrMbf/83C2kkDm0BjBk3aysWqRsW4Uhqw4C1VqJAYFDsUq/RMuLW4dnI+QgAawlTJ9OjVBt/E/4oyhQTb4Xfio7UsYtOKi8UQFWPjgP2M7InPVh/is7OPhQpjdbRwViJ7z4iD2G4awST3hTon4um8gRvxwVV/k4bYP0H7QXERO743mz8khta6PNu8xeZLX4b32brCRSmHv3R2zYgr7EJA/cwtGtw/B5Cn90NTBGg5+E3EgNx+Xd05FH796qCWxhKJ2UwSP34DTucY6FWDaDnRTcxDzQwLQwFbKfMoJTbqNx49FglRAFe3AdF9VsAOTdlUB2gz8uHADLPr9B51r6U/g9sZRCOw5D3FiPwwLm4Se7oTEr/sicMQP+iqG+V2A9XP743lnK0hkDmgcPAk7Dc74xDjV6Xsw860AuCllkCic0Pz1z7GrsGz+Zeyc2gd+9WpBYqlA7abBGL/hNIqnUQznvkPQOX05Fu2r/rs4Ms+38XVYb0hiVmJ1gu4JjU7PbdF1egz7d/nxSlCvJuffRNwqGxdM6sKUPegLMAT86OExLBkaiEZO1pBK7eDq3x9h0TdZLRPkJmPt2Jfh7cD82M4LXSb/itulHabyNicgp0n7erALEzoGYfzOkvEpGz9P6oyOH+1k/9bgRlIMoo9fRNHLfII29iTajB+xcIMF+v2nM3Ru8WDXBHQMGo/S3f6MSZ074iPdSYH1OHPLaLQPmYwp/ZrCwdoBfhMP6MfZtut0/XWdTkyvQQ9xbMlQBDZygjWLn3au/ugfFo2bFU6ewV7envM9pnX3hr1MBqVHe4yMOMGuFGI6hpYnc/mYWptLUtLXGAK2Y8oOtBnrMGrICpxVpSJyUCCGrkrT1xGK32LnvhjSOR3LF+2D2dGEHuJBFsHConRKKXZ8FR9/HYbhL9kYXkOobE4m5FtVsNsKMSbF/0rubgohZ3kjGrB4H8UlJVHszi+pj7uElH3W0j1jmepQ0ZMVyjpAY70l5PDmj+zgLm0KcSZ5owG0eF8cJSXF0s4v+5C7REl91jIpNDdpaRcpia186d21h+nw5k0Uc/u26ToVoIqfSQG17Mhv5DL6Ne4E7Y8YTi2tldQt/JJOGRTiLKdGAxbTvrgkSordSV/2cSeJsg/pm8zeTx96y+i5dh/TDweP0sF1odTR2ZJEEuMTQaH65aKi+JkBVMvOj0Yu+5XiTuyniOEtyVrZjcIv5Zd+Ing3goLltWnojsfsoICS5geR0r4Vvbt0D8XGH6Gts3qRh1VDGrXnvq4wRQTLSV7Lg16evJYOxjH9hAVTPUldGrYji7ISt1OYTrYGvWhaxHZKYFUKkuZTkNKeWr27lPbExtORrbOol4cVNRy1h3QtUt7v9M3IETRt+zXdUbnonwzL/Glm4hlaGuxIUu/3aJ/x8XCpJ8Oaa7S4k4LcR/9GRfe3Ze5o70YEE0sKyK3bdIo6Ek8xS/uTm8SWHF1fpHeWR9Px2Cia2FZJ8jZz9eWF5NfcXEpdpGKy8n2X1h4+TJs3xVDaoVBqaWVHz4/4lnYfiaXoVeMp0ElK7sO30+3SD7CLEbKDgiSaH6Qk+1bv0tI9sRR/ZCvN6uVBVg1HkX5qyqWKdiDYV2XtQMiuykdzLZy62njQ+/sLZ7P4aXbxAwwV/f6RNykC5+uPdPMrl9cij5cn09qDcSz2hFFwPQnVHbZDf73UOFXxNDOgFtn5jaRlv8bRif0RNLylNSm7hdMldQ4dDm1JVnbP04hvd9OR2GhaNT6QnKTuNHz7bSZJIfdpfT97qjNoq9lP6SqMXwydPXWVyeiV726yI4Oeaw9lspcbr1QCejU1/2qBuFUyLgjpwrQ96DDtRwV0/FMmV5OhFLE/npJP7qOv+riStP5I2pOtr14O2bT/Q2+SPdeOPv7hIB09uI5COzqTpUhi9PWq2ZyQv5u0LzZHq3vZkz1b5+4ammPmsYnerq2kHitvsIM82jPShRTdltFt/UVzbawkzAfCu5KNx/tU6Baam6upl709W6OKemXdvk21lT1o5Q02OybXYw3dXNqFpGIr8n13LR0+vJk2xdw2jLP2UENjAmtQwfFPmd00oaER+yk++STt+6oPuUrr08gKJ09nLzKSyp9jMfI7+vXIIdowuRM5S1zpP9sNi1rOYVMxtHyZy8OUjZd+GlrC18ywHZN2kJVI28N0eUMD6jUtgrYbFkKz4vf99f3Ivs4g2mr2I/9HFD22MVvTniPfPh/S3NV76OS17CdsRygnK60LId+qit1WzL84GdbQrWMbaFHkoRILv4pixjUi+YthdLoGvv7TLyZs8tsM/YRCQ0PZZyJ9PGYoBTdVkqWyLc08zgK45hYd27CIIg+VmBxVDI1rJKcXw06TWr+4yEjeJZyuFxYQqmM8VRoVHRzrRTKfz+hE0dqWTb+FDaQRS46xJo/RhkWRdKhEFqSKGUeN5C9SGFNGVtQgclIE0VdFX4Vr6PryV8lWakiChOqXi+ogjfWSkc9nJ5h0RrJ/o7CBI2jJsdyKk6C8aHrPTU6t55wtMda7tK6fA9n2jGQB3BjEghbS5UJx9H0Z9KMLIqW/Hs+j6PfcSN56Dp0tIerddf3IwbYnRZYfv56gKBlOUZP6Qjh1c5SS93v79K9LVCkZNupWT96vNMpVQm6jfiXdsq/Tf8aSl0led4TuoqD8+mRYJqcu4deNNpNFm992JEWbOXSmqA5rc1VPUlp1pm+vFM9jSYTsQKcDN3lrmlNaEOrnYEs9K1JkFe1AuK9K2oGgXZVPTtRAcrR6lVYUrfHmJcMyaRAtLBZM75+62KOnxDhVB8eSl8yHPit2XKaeMBo4Ygkdu7uZ3nZUUJs5Z4pl1mTQqp5Ksur8LRVPo5pSZvqTvPEEOvJkblsuppJhyvmJ+ttKmB5T2EGJBbq8eCWkV5Pz/8hk3CoVF7KEdCFkD0J+9JiiQhzIpn0YnXxgaECd9gstD99ByRUlBVlRNMhJQUFfpRbJpLm+nF61lRp8vUo2J+zvQvaVuXEAS0J70qqbhuv31r9Bjs+9Qev1NlwmGRbUq/FcKXIoaqAjWb26go2mkEzaOKA2KXuuIkO392j9G4703BvrWRmh9diQWMrkXSi8yLAM4yxMhoXWoMdRIeRg057CTj4wxEB1Gv2yPJx2VDh5BnuRvTSbWEg3wMa9soeSbF//nm5phGJoQbkyP4nA2lxRMmyG7QjZQdnXJMyN3+qUmeQvZ7HB3GCiQ3WZdocNonaedixhBYnECnL2eY3eD/+dbuq7E87JSulCyLeqZLcV8y9+TUKM2gFvYbD/Q0TNCcXoIX3Rxb8ZeoWnQqPVQltje4HycS/9As6fP88+F5B2B/B6YxZ2xP6Mz1+UMzFqI+CtwfB/GIU5oaMxpG8X+DfrhfBUDbRMDoMYIti7ucGhcDbMqlMGbSZSTl+H3QsBaC41noM1On+2DivfD2BNBuCtwf54GDUHoaOHoG8XfzTrFY5UDdOFtgBpyWeQ5eIH/waF2yCY/tq2RiNL45HJ+uUrU5uZgtPX7fBCQHMUi9QZn61bifcDZMYTT6LJSEDSDTXOLusL3xYt0EL/6YDph3Px+HwKUvXf7Ymg9GxYvPlDrITSRgR1ftEXf8VoMpCQdAPqs8vQ17ewvRboMP0wch+fR4qhwUph0fD/sOSLTrj3/Vh89vN901+jVoDI1gveLkZ9i6xQS2GJum4NINGfEMPKSgGRRm2+/CJ7uLk5GL6OUl9C0tkcNGjTHp5FO1vYnAYFopnmHBJPFxjPlUQtYAcaZCQk4Yb6LJb19S2So0WH6Tic+xjnU1KLv3YtQdXswNy+zLcD8+yqLFrcTb+GbFtnOFsbT5mJSOmJhsWCQam0gUhdthMtMlNO47rdCwgodlymns+wbuX7eOF6Es7mNECb9p7FG5RYfAgKbAbNuUQUT6MFXFycgRtXkF4TP7xQwHSSL2I2WN6gS8crIb2ev2li/v1zTMatkqgvmaMLE/Yg6EdidBoyGK5/ToF/vfrw7ToYk7ZlIaB/dzTXvx7zJOq0ZJzJcoGff4MimcS126K1MXBWyebM9HdT9mX/Wgi6Wx/Clv/eYvH5Nv676TdIX2XnHPWXS2GeXsugvYv0a9mwdXZms1WIPV4L6Q7rQ1vw31tsXbj9X2z6TYpX2TlHXRwxYz0W2bvBrWghLI3QGiTvNASDXf/EFP96qO/bFYMnbUNWQH90r2jy9FjAI6gjGhZPHloHNET+2WSczzMvhpqSWY/A2lwR5tqOeXFGh/nx28LFBc64gSuVCSZSd7z22VocvngLGcn7sWHhOLxifxqRH3RFl9CDyDLTBgoR8q0q2a0JTMzgPx0tMjYPh7//m/giKgGZMk8EDZuBaf1da3bQorroGbYRW7du1X+2/LSaJUmj8VpjowNqM7B5uD/83/wCUQmZkHkGYdiMaejvWlIKESwsLNl/jZhVpywFUGsASwtJcTsl0GZsxnB/f7z5RRQSMmXwDBqGGdP6o7BJtYZVFlvCmPvqEcnlkBkbE6pfLgVq5n6WsJCUJ5EJVCrmlLZoFfIJQkNDiz5TF0Qgcs6b8NILqdNZkQsYqLAbFVTMy21bheCTEu2FTl2AiMg5eNPQYCWxQMP/W4wvOt3D92M/R3TWkzcEpc/onL30GZFEAkPiW4xIVGZMesyUn9W1YLfkBvKhy6MtJaXHJmJ2ZqmTRfOkvDqE7EBlEAQhn5SQI3QqFkREYs6bXqXqFVFFOzCvr0rYgVl2VRZCAZNfJJEW6aCIMirULcglT4mYXKUlK1+wAoPjolz15GvYLYolSk8jG7MlO8EWkJLTKJHLYKlWo6D8qa0U+cksGdA8h4aNWYL9BGXilZBeydT8m45bpTBLF6bsQdiP7Lt9g6Pxe7FsQg94ZB/FyolvIMCvP1ZdYkKWBxNew1YUnQhFiOSQFztMFWzOPH83aV+1umJgLwf8vmUHrt/YgU2HbNAj5BXYGS+XohI2VgQVMLsVQSKVleyVdTsQvRx+x5Yd13FjxyYcsumBkFd0vZq3HuvGVBTCyiC4Btl3wzdH47F32QT08MjG0ZUT8UaAH/qvusTmqCJEkCsUpWSwYL4IYjHSzBhqSmYDlbDxkphpO+bGGR1mx28Ji/mWaqjNDCbq01uxYMEWJOlf/ZXBqVknDPhwNtbs/xNbRtbDudXfIzqvkjmZkG9VxW5NYCqV+WejvYbNSzfibudFiDvxM35asQBTx/RAnYJHOjNm//tr0F7bjKUb76Lzojic+PknrFgwFWN61EHBIyYBm7DyqEodiB3h7mqLzNRzJTYMqHFm5XsYOG0nrm1eio13O2NR3An8/NMKLJg6Bj3qFMDQpCXcGnlAduM0UjKL21edO48r+htDrUB9ffEnEDu6w9U2E6nnSmxAUZ/ByvcGYtquG8YTT2JR1wOuVjnItWuDkMGDMVj/GYhufl5o7NOw+Am6CUQl44FFXXi4WiEn1w5tQgrbG4yB3fzg1dgHDc1psDwsvPF/i2eg092V+HD+n1AVOR8LThaEfNXj4uQo/yZu3q1AUUJURX5LN1bHEtdYUnO/RLe5iUm4gPpw9yibhusQsgML1PVwhVVOLuzahBTJMXhgN/h5NYZPQ+NT6TJUzQ6q1ldZStpB1ezKAg7Psb6y7uN+iRVVl3BRvgqPiycYN2/erUJcEcPR3RW2mak4V2Knj/rMSrw3cBr2yd3gankNycklv33IRWLSBaC+O4qnUYuHmQ+gtneEY6nFoQpo72Dv91G4XOdV9Amq+BucQoT0+pyTifnfk28ibu0yHhuwdGP9mKWLChDyI+V9xP20CFtuvoARMyKw/WgqricuRIfsPVi3+6axkdJYujWCh+wGTqdkFsukOofzBoepms3VSLySo/3AvqgXux1rVm3G78/1xsBO5X+1USW9WjjgOSZH1v37pRNNeXsM7FsPsdvXYNXm3/Fc74HQd1vt9VhoDdLiXtxPWLTlJl4YMQMR248i9XoiFnbIxp51u01sotMg/ezZEj8jls30cAkWno3RiPle5WNoOZhcm0vbeElqYh0ssxCaHVO1DzPxQG0PRzODiTbzd6z4LBTL/yizdU2shG9LN4g1LLFVV84GhHyr2vGgDOao8x+K7o5BhPw7aUh7wFSluYc/vx+LGf99oLs9MuzGVJ/D3ojl2HIiU1/jqWApYXeN+biTlgaDGH/i+7EzYBCjeAdnKapSB1boNKA3nGO/xeQ1KchiwSErZQ2mz1qNP7Ps9He3ovw7SEt7wAxHg3t/fo+xM/6LB7qnEKxJ+9eGoZ/9fsz9cBVOPdQg78p/8fn0TbhhtDKh+uVixe4Oezsj9tvJWJOSxQJWFlLWTMes1X8iy87eWKgc7IIxqI8TTnz9Pmb/dp31oMGd2IUY9kpH9A47jBxjsYoRQSqTgrIfMIfWHdsheFAfOJ34Gu/P/g3X2d2r5k4sFg57BR17h+GwrsEq2oKF9ygs/qIjHrGEMbcwMWIBwM3NHncPbMLONNaZKh37Zi7E3oeVvFUtwgz5n8ARPQZ1h1X0bIyJiEMm00Puxa0InbYZOa0H4I3GZZ6eGRGyA7vgQejjdAJfvz8bvxkEQezCYXilY2+ElS9Ile2gSn2VoowdVNGubHxYAqJKxemLhiCsC5tKNzfY3z2ATTvTdB6A9H0zsXDvw7IPi83CqtMA9HaOxbeT1yAliy0KWSlYM30WVv+ZBTvPnhjU3QrRs8cgIi6TLaG5uLg1FNM256D1gDdQPI0FOH06FRZNfOHDFoG807sQEbENCcXb4iugAPevnkVKSgr7JOL4gc1Y+G4PjFinxuszP0OwqW+YCxHSq8n5dzEZt0rh2MNMXVSEgB89FuHi9lkYM3Ym9qSzi6yHR9ev4l6+A1xdy32mqnMYDOtnj/1zP8SqUw+hybuC/34+HZuKHaYKNlcVf38SacBA9Pc4ggUL/kCDfiFoU9F9TZX0agMflpCpUk+jyC30SBEwsD88jizAgj8aoF9IGxi6NWM9FsD0GiSG6OJ2zBozFjP3pLMzbPYeXcfVe/lwcHWFXYWZDuH+rtkI3czityYH5zZOwIwdIgQP7o06LImtSgx9EtNrc4VUex1kEVAqg5Sy8cCwEJodUwtOn0aqRRP46oIJm53TuyIQsS2hxK9slEbaegTeaX0Pke/9Bwt/Po8H+jukXFz/fSnGLzoK574D0NmqkjYg5Ftm2K35cZBhfHf4X4iG7kVPppccLEkstaZacik5+A6k2ZOCSansRZG6jU5Zq6mnTEKtpica61QOkxtQCtHco+jJL5GDpZik1rVILnUg34GzaVKwkpS9IulWgW5DioLqv7uveLOVUJ2KXgzXZNLhOd3JXWFBUisFScQKcu8+j/64r2symia/5ECWYilZ15KT1MGXBs6eRMFKJfWKvMW0paG7B2dQ1/pyEkukJJE4UuuhfaiFlXEDnWD98tFkHqY53d1JYSElK4WExAp36j7vD7rPalS4gY6huRtDs3t4krWY6UAuI0uRnOp3mUrR+sHrNhkoqO6I3cbNZoyCBJrqpyC/qQn6w8cHxpG3zIJkNi1pQgybH81dipndgzytxcwe5CSzFJG8fheaGm2U3QxbKLmBrhTqc7TkFQfW7itFvzOsSl5GfT0VJLaUk5Xcitx7TKHR7axLbaBT1B1BuwsHoPqDJjRWUJu5F4o2AzxY1YMUhTupBeTXb6BT1Kd39xVZke4kRU97hVwVIrJgMsiYLC5B4yjqsqnfjzRtB/rrMbOph6c1iZktyGWWJJLXpy5Toyu2S0bV7ECor8rbgWm7qgDVEZrQpBZ1XnxFr2s9qmRa1teTFGJLkluxOXbvQVNGtyPrEhvoSs0vFVDCVD9S+E01HJYZZ+bhOdTdXUEWUitSSMRMH91pns5xdVdvRtO0V1xJIbJgfTGZ5S4UNC6KSk1jQTxN8bWhoAWGzSa3l3UjmaQNzTXxQ8H6+GWhz9/1HxFrX2rrTI3bh9C0bReKdarXc8kNdGXiFUNIrxXPv/5ihXHribhgUhfC9iDkRwWp62mEj5IsLORkY8tkkThRwJgtlFaxGlmTB2lG1/okF0tIKpGQY+uh1KeFVZGvV8nmBOQUtC89ajo9+yVmB61o2qmSxlL21ySE9Fo+qiMTqEmtzrS47E4l9Wma/ZKMJK2mUXG3QuuxYTOaov67VDKE6cZZtIFOaA0qSKX1I3xIacHGYGPL/EhCTgFjaEuFk2ewa/uXXqOguizWSZldylyo46TdlFE4JJMx1LDpr6zM5WJqba7w1yTYNQHbEbSDxwdonLeMLGQ21HJCDDthTvwuoPgpvmQTtIAM+6hv07JubD7bzDX5u+PqjF9oRq8mpGS2asHm2MZKp09nenHYMjrxSFdCOCcrrQvd+AV8S8BuzYmDhYh0/9Fnxf9StFlXcOrUFeQpG8K3RT12j/a/gN0JXjmFU1fyoGzoixb1zJGiKnUMqDMvIiElA5raTeDX2Kl404o2C1dOncKVPCUa+rZAuU3m3cKZU6nIcWqOFzyVpb86MKd+uaiReTEBKRka1G7ih8ZOxRuFTKPBw7REJKdnQ+bSHD5eDsVjEYTpLy0ep65q4eLTCh7GRwOah2lITE5HtswFzX284GB+g5Un/w7OxZ/DfZtG8GtWx/iEpHpURX51ZioSTt8CnJvAp6GjeTo0ZQc6NA+RlpiM9GwZXJr7wMssRVbRDqrUVyHl2UFl7UqD8193QeDOnoiNHg+vogdC+bhzLh7n7tugkV8z1KnuBKszcTEhBRma2mji1xil1cN0l5oAwzT6oKFjaYnzj0+Gf59LmBz/I96uzcaovY3lfd8Blm/D/9V5YvaeEkJ6NT3/FcatJzCtC3Mw6UfabFxPScLFB2I4efuiaR258YIp8nDrzCmk5jih+QueUD7pMFWKZX9pvKqsXjXn8XWXQOzsGYvo8V4w5zlptddjwTVIi+zrKUi6+ABiJ2/4Nq2DimfvHla82gDTXLYg9ZsWOJd4AzJPXzRzfrJGlWJoOZhv4yWpzjqoU1ka4k9dhdbFBy96GJ9Em4qp+ccx2b8PLk2Ox49v19bHfu3t5TCEk/+DUDhR3UlF8vnryBHboUGTFvCwL/2qReVtQMi3TNhtJeLgvz4Z5nA4nGqT9TPe858A61VxWBBoTnL0V5KJrUMCMM9rIw5Pa6VfKPOOTkdIZBMsWjYADQQWLw6nqmT9/B78J1hjVdwC/O3cQpDiZPjSytdMJM3PFplbhyBgnhc2Hp6GVvq8Mg9Hp4cgsskiLBvQ4B/1bm1l4iBPhjkcDkcQLe7tfh/B37XETztGl3g6/L9HFTcNXT8Gvtw3Ay8VPmbRaqEVi/9RCxfnH4j2Hna/H4zvWv6EHaPNezr89yETK7u7YXq9Tbi44tUa+ebuH48qDtMMwQQzioKJLpxoIWbx5B9HJeIgT4Y5HA6Hw+FwOM8s/MEBh8PhcDgcDueZhSfDHA6Hw+FwOJxnFp4MczgcDofD4XCeWXgyzOFwOBwOh8N5ZrGYzjD+m1NJ1Kd/xPR5P0PVsjUa2pT8s4fFaK7uxpdfROAYtUDbhjbGs2aSexTLP43AeZcgtNT9dihUSE+6ALWTE6zK7656aC5jx9zZ+FndCq09hH/976miuYKd82Zi5UkJng/wgHUF49Vc3oG5s3+GulUAPKwe4+jyTxFx3gWdW9bWX1elJ+GC2glONagw7e39WBKeiNqtm8D+idtJDS7vmIvZP6vxSmsP47m/GU99niupg4eHET5lDdLd26GZY/Xuzx8eDseUNel4pUOzcvyn+jwNe+KUT+7R5fg04jxe6dzSeKamUCNlw3TM/fES7ANegMsz9TMClfTN7D/w3Wff42KD9mjhxJ+dVZoajG2C5KXh4Lrl+P6nvThyIRv2Xt6oozAVp7TITNyGFd+twfYDychUeqFpXWsU1xC6zkpkJmLbiu+wZvsBJGcq4dW0boVrtQ7B8tpMJG5bge/WbMeB5EwovZqibskCpq6rErFu3h6oXvCDS4mfGjYb3a9JcKrG413DyVn6Qpm/7lMSFR0NbU61mn1Av9wr81d6zOH+TzS8eQBN1P81FjVdWhpMTs9/TidN/FWgaqH6nT7yVhT9dZf/JY9jxlNjG1+acOCB8Uz5qH7/iLwVhX8d7T79NLw5BUz8TX9NfWkpBTs9T5/XpMI0N2jToMbU8cvTRX8prjQq+v0jb1IY/xLZ35KnPs+V00HZvzpUdcr8NbtS/lN9noo9cSrk/k/DqXnARONRDXJvMw2s50BB8xJK/RW9Z4NK+qbuL1vK69KI4j9xxqkENRfbBMiOpZntHEjq1JJe6dOT2nnakMztTVpzsaK/vKahG9veocZWSvLu1Jteb+dJtnJPGvTjFeO6JnSdlbixjd5pbEVK707U+/V25GkrJ89BP9KVCroULM/W1m3vNCYrpTd16v06G4MtyT0H0Y+FBYSuUw79/okfPf/RQcoynqkM/FbvaaK5jlt2/bB0w1x0daiCqpVv4fvkY5jXWffogpB9+w6yjX+W+9+NBtdu22PA8vUI62jib7c/gRJvfZ+MY/M6648o+zbu1LDCcg7OwpSjHRA6quk/7Dc1n0FK+U/1eRr2xKkY5VvfI/nYPONRzZF3JRvuH0Rizce+/LdlOf8CtLi6dhq+THkRXx89iZ+37sDhk1sxQrods5YcRb6xVClUf2B+6A8QjdyK4/u3YeehE/jvB7bYOnkODuSacR0q/DE/FD+IRmLr8f3YtvMQTvz3A9hunYw5hgJlEC6v+mM+Qn8QYeTW49i/bScOnfgvPrDdislzDsAgkunrgBXafPQhPDZOwqIktf5MZeDJ8NNEcwNJMdE4ftFgjg+3fYD2g+YicnpvNH9ODql1fbR570ecSV6H99q7wUYqhb13d8yKua8vzyrgg7ZdMT0mDxnrRmHIirNQpUZiUOBQrErTMB+4hYPzQxDQwBZSSzmcmnTD+B/PIM9QW5jcZKwd+zK8HZgsdl7oMvlX3C71q9Na3Do4HyEBDWArtYTcqQm6jWfymt2BGul7ZuKtADcoZRIonJrj9c93IZ2JjswtGN0+BJOn9ENTB2s4+E3UO5n21kHMD2mDTv+ZibD/dIRvt/H4sUSHuclrMfZlbzjIpbDz6oLJv95mtwmFPMS2D9qi6/QYaDPWYdSQFTirSkXkoEAMXZXGrufj8s6p6ONXD7UkllDUborg8RtwujzfLQ9tBn5cuAEW/f6DzrWM55gbJq8di5e9HSCX2sGry2T8WlqJxjEFoIGtFJZyJzQpOSbdHLd/G3O+n4bu3vaQyZTwaD8SESceGq4zTNbXj7k9Bi1Yj7n9n4ezlQQyh8YInrTToGcdT32eq6mDyqJOx56ZbyHATQmZRAGn5q/j813p7BaqDEX+Y1wOTPqLaT2Wb0/V1VsZqmsLFfhU/uWdmNrHD/VqSWCpqI2mweOxwVyjr4bOhDDEwwVYP7c/nne2gkTmgMbBk7DTWFl3vW1X41t8et0MwoL1c9H/eWdYSWRwaByMSTuL5z03+QeM6WyIDbXqt8HI8AUY1a4/FiezhVF7GxtHBaLnvDiI/YYhbFJPuFMivu4biBE/XGW1qzcWk7GO2cntQ19haIfGqG0tgQXTo6N3Z7y/7gxLEXQ8xLElQxHYyAnWbA2wc/VH/7Bo3Cy878q/jJ1T+8CvXi1ILBWo3TQY4zecNiYAQgj5pjk2TMj8Iww9GttDKrWFeztmk/FZxmsCNinAw2NLMDSwEZyspSw2ucK/fxii9QNnOts4CoE95yGuKJtTI/Hrvggc8YP+SG8/b8/B99O6w9teBpnSA+1HRqCEu1TBXwTmqgIfMxuBuaxYH6axDhyDb1fNwUAv458+ruUJjzoiZD96VGJ9LCY/YRf2XWmEvoPbQ/+4SWyPwFED8cLNvdgWqxK8zgpg174raNR3MNobCsA+cBQGvnATe7fFGu26BILl85Gwax+uNOqLwYYCrMtAjBr4Am7u3YZYldB1/SmInftiSOd0LF+0D8UWaibGJ8ScKiD4mkTeHhrpoqBuy27rD+9GBBNbvMmt23SKOhJPMUv7k5vElhxdX6R3lkfT8dgomthWSfI2c/XlWQUKltemoTseU1bidgrr406SBr1oWsR2SrhfQEnzg0hp34reXbqHYuOP0NZZvcjDqiGN2nPfUN8k2bT/Q2+SPdeOPv7hIB09uI5COzqTpUhS9PV5QdJ8ClLaU6t3l9Ke2Hg6snUW9fKwooaj9pA5PajiZ1JALTvyG7mMfo07QfsjhlNLayV1C79k+PpNKiYr33dp7eHDtHlTDN1WJdH8ICXZt3qXlu6JpfgjW2lWLw+yajiK9EPK3k8fesvouXYf0w8Hj9LBdaHU0dmSRJLC1yTuUkSwnGoP3UFMYbQ9rA+5SxpQr2kRtD3hPuUcDqWWVnb0/IhvafeRWIpeNZ4CnaTkPnw73TbjLRbNtXDqauNB7+8v/sore/+H5C17jtp9/AMdPHqQ1oV2JGdLEUkKv4YsEBiTbo5lUpI/9zyN+O5XOnJoA03u5EwS1//Q9ntm1DeOWV7Lg16evJYOxsXSzrBgqiepS8N26L4sevrzXF0dVO6rRBXFzwygWnZ+NHLZrxR3Yj9FDG9J1spuFH4pv/RrEiX8hwkh4C8CeizHnqqrtyeopi2U61NZhym0pRXZPT+Cvt19hGKjV9H4QCeSug+n7YJGX02dCaCLh3J5LfJ4eTKtPRhHsTvDKLiehOoOY/5beL32UP2/DXMpp1oeL9PktQcpLnYnhQXXI0ndYaTvKiuaPjDGhjUHYilm41QKbiAlsWVTmhir0hkZLe6kIPfRvxW/GlHqdaHqjcVUrKO7myjEWU6NBiymfXFJlMRk/1IXy5V9aC2b14Ljn7KyTWhoxH6KTz5J+77qQ67S+jRyTzZrOYcOh7YkKztmE9/upiOx0bRqfCA5Sd1p+PbbJDSDQr4pZMMGmxKRhb0/jV4RTUdjdDZZhyTuI2lXpr4BgfhkgoLj9GlLa2oyNIL2xyfTyX1fUR9XKdUfuYdFreJXnorDQulXPPTrqVROzzHb/u7XI3Row2Tq5Cwh1/9sJ527VMlfbpueq3LrmJiE0rFNYC5N6sNMCm5RyqFtFD42iOo5tqEvYnOMF0qTta4PWVv1pNUl30J8vJ2GOMmpS/gNeihwXZO1jvpYW1HP0gVo+xAnkncJpxtldSJYPovW9bEmq56rqXSXQ8hJ3oXCbzwUuF7c4f31/ci+ziDaKuy2peDJcDWoUjIsLUzcGHm/0ihXCbmN+pWZhQ4NZSx5meR1R+iPDAtA8WKeOL0VKXyM7wznRdN7bnJqPedsiXdX79K6fg5k2zOSDD2aICuKBjkpKOir1OJ3gK4vp1dtpcbFIY+i33Mjees5dLa4A7q7rh852PakSMEOVHRwrBfJfD6jE2wtMpBNv4UNpBFLjhmCikznWNeLAnpe9HvkJm9Nc0p3SP0cbKkn6zArahA5KYLoq0L9sZrXl79KtkU6LZEMMwoSp1MrhY/xHc8s2vy2IynazKEzRc0zfa/qSUqrzvTtFaFlhYWyqIHkaPUqrbhrPMHajBrkRIqgr6hYpOu0/FVbkhoDttCY9HMsk9FLs1OK5yFjJfVQ2tLr39+iXKH6+jHLSBq0kC4XDkF1kMZ6yenFsNN/wTxXXweVSob1Y5ORz2cnmIUZyf6NwgaOoCXHcitOhgX9RUCPjNL2VF29lUM1baE8n8ra/DY5KtrQnGKjZ22uop5KK+r87ZWicuVSAzozhSEeBtHC4sr6mCF/MUx/9EQyzG4UghZeLpJZdXAseclfpLDTarr/Y39ysOlK4SX8+N7Gt6m2pDLJcFXHIhDrbh2jDYsi6VCJrEkVM44aGWV/HBXCZG9PYScfGMamTqNflofTjmTdTdhmettRQW3mnCmeA00GreqpJKvO35LpsCXkm8I2XGhT7b48VyZ+KKnPD/eE45spHkdRiIMNtQ87SQ8MA6e0X5ZT+I5kJrmZybDsJZqdUiQZZazsQUrb1+n7WxrhuFOOvwjNVXl1TFEqtgnNZY4pfZiH+uzX9Lq3BznXklHdoI9o09ny3vXW0M2lXUjuMJCiSl7O+41G6/39DF03ef0c5ev0IHeggaUL0G+jDfZ0roTKdej1Zqp8/k1a2kVODgOjjLmQgbzfRhvm8Mx109dLdKhOmUn+8sY04UiRM5oFf03iL0Zk6wVvF+PbpiIr1FJYoq5bA0j0J8SwslJApBF+30WTkYCkG2qcXdYXvi1aoIX+0wHTD+fi8fkUpJb7olAx6rRknMlygZ9/g6J3X8W126J1I+PXLJoMJCTdgPrsMvT1LWy/BTpMP4zcx+eRItSBNhMpp6/D7oUANC/a2WmNzp+tw8r3AwyHInu4uTkY39XRICMhCTfUZ7Gsr29Rfy06TMfh3Mc4n3IWF5LPIMvFD/4NiiRG7batUSiySdSXkHQ2Bw3atIdn0cu+rH5QIJppziHxdIHxXEVocTf9GrJtneFsbTylTkPymSy4+PmjWKTaaNu6EQwiCY0p1fA+l4UHgjo2LDEPrRHQMB9n2XjTzakPEZSeDeFc6M1iJZQ2Iqjz85/+PNeUDsxEm5mC09ft8EJAcxSbVWd8tm4l3g+o+A1Q8/ylYj0+QXX1VhHVtYVSPqXGpaSzyGnQBu2LjZ61GYTAZhqcSzwNU1Zf4zorB5HSEw2LK0OptIFIXUFdkRKeDZ2NY9N1pYSNSI38/AJcSDyDXLcXEVCv8CqgbNMazQ2B1UyqOBaBWCeuHYC3BvvjYdQchI4egr5d/NGsVzhSNVpotQR5pyEY7PonpvjXQ33frhg8aRuyAvqje/NaLGwl4WxOA7Rp71m8R4H5V1BgM2jOJcJk2BLyTXNt2MINrQPdS9jkS3jRKw9nks4grTq+Le+EIYNd8ecUf9Sr74uugydhW1YA+ndvjqK30ASw8AhCx4ZFkqF26wA0zD+L5PMq8+JOKX/Rjc30XOkpU8dcBOfSogb00Xgcdp67hOtp+zHaYg2G9J+JY09MghgSCXMMLRuT8YwB3RjZVbGlwHUxxOy6xHhcEq2hwBO6ESwvZtf1XT5RgNVi1y0Frpfo0MLFBc64gSvplXtvuLLzyakmIr1RlEYkKnIN81Hp3rKxRauQTxAaGlr0mbogApFz3kThq0MVotawNEUMy5LlRHLIZYU/Y6KCijmRbasQfFKi/dCpCxAROQdvCnZQoOsClhaSUj/FUgo2bgvL4qsqQ4cI+aREf6FTsSAiEnPe9AJpWIPMUUuLLEeRyCbJh+4ew1JSWm6Rha495lCa8t6sKgmhoEDN5k9aoj81DCKVkghyuaxozEJj0tdkelcoSrqiBdMb65E5uln1WW8WFmVsqFCApz7PNaQDc2FzoGE1LCRFk2AeZvmLCT0+QXX1VgHVtYUyPpVvMPrSOmZldNOl1WrKfZ+wiBrX2ZOIWN3StU1U1o3NVFf05GJbltLjZeWp5JmqjsV0rNNmbMZwf3+8+UUUEjJl8AwahhnT+sO1cJrtu+Gbo/HYu2wCenhk4+jKiXgjwA/9V12CJl/DPIwlJ6UnkM2xfgJhOmwJ+aa5NiyBVFLSJlnM1B0y3VXPt+3R7ZujiN+7DBN6eCD76EpMfCMAfv1X4RKTW0+Z8ekS0lIzJlegtLuw2MBK6OygKv4iOFc6ytQxG8G5NEMfZiJ2bIsJ41+H3bloRF98srKVoyOsVfdxP8d4Qof6HjIfieHwnCNsBK5bWDnC0VqF+6UL4F7mI4gdnoNjGTdiHQqUt4KjozVU9++jdJeZeCR2wHOONgLXS3QoYTmBpRrqApPO8QQlp5jzN0dUwv8s6nrA1SoHuXZtEDJ4MAbrPwPRzc8LjX0aQujHKyzdGsFDdgOnUzLZkmBEdQ7nrxjvpizqwsPVCjm5dmgTUtj+YAzs5gevxj5oKNSB2BHurrbITD1XvBGEGf+Zle9h4LRdxuOSWKCuhyuscnJh1yakqL/BA7vBz6sxfBrWhkcjD8hunEZKZvGKpzp3HoUiP0FJhVm6sfFY4lpyMu6XWDBzE5NwAfXh7lH2FqUsFiwIOECcxQJEYWxhbTbykOHG6RQUi6TCufNX2Eh1CI3J+HRBk46zZ7P1NfRkJyP5kgU8GzdBA3Pqm+Cpz3NN6cBMxI7ucLXNROq5m8XjUZ/ByvcGYtquG8YTT1Jdf9FT2gGrp7eKqFFbsIQbq2N5jbVR2uiRdAGo7+4BU1ZfIzr7S7BEo5ZNobhyAnElNhs9iovDmaInp7pEmpCvelycTOXfxM27JfRSVUzGup24tnkpNt7tjEVxJ/DzTyuwYOoY9KhTgEesrO5J1724n7Boy028MGIGIrYfRer1RCzskI0963bjbgM2B5bXkJx8v9jekYtEwwTCZNgS8k1zbVhzHecvlLDJrCQkpVnCw9u7WvFJey8OPy3agpsvjMCMiO04mnodiQs7IHvPOuxmitTdmFC+Co+LJww3b94toQedu5xFaXdJxiULTzRuJKtC3NEKzJWxWBWxdDM9l26PTOujYnKx50MfuPf8DldLFHuclQWVSAHrcn4TXeLji6Y4jZMnizc65iefRJLKC74+NoLXWQH4NgVOnzxZvGE/Pxknk1Tw8vXBE39RQbC8BD6GAijuMh/JJ5Og8vKFj43QdeMphvZhJh6o7VnybPpWrCx/m3D2j4XykJl2BikpKcWf02dxvdJbGYUQQSqTgrIfsIlmh3bBGNTHCSe+fh+zf7vOQpwGd2IXYtgrHdE77HCpu6dysX8Nw/rZY//cD7Hq1ENo8q7gv59Px6Ybhd5kh+BBfeB04mu8P/s3XFexwHMnFguHvYKOvcNwWLADK3Qa0BvOsd9i8poUZLFIkpWyBtNnrcafWYbdoGWxCx6EPk4n8PX7s/GboUPELhyGVzr2Rhjr0P61Yehnvx9zP1yFUw81yLvyX3w+fROKRC6DSCqDlLLxQK8wR/QY1B1W0bMxJiIOmexU7sWtCJ22GTmtB+CNxmVvZZ/ExoctEKpUnL5oSPN0TzZeG9YP9vvn4sNVp/BQk4cr//0c0zfdKAp2QmPSQ/exa3YoNp/PhSbnHDZOmIEdomAM7l0H9ubUN8VTn+ca0oG5WHXCgN7OiP12MtakZLEFKgspa6Zj1uo/kWVnbyxUDtX1F0ZpezJDb3mnsSsiAtsSSmxvF6KGbcGxxyB0t4rG7DERiDMYPbaGTsPmnNYY8EZjliKaoAZ09leh7DEKg+odxoxBE7F6/xEc2vQFBn+0EbdIZHgKKlbCzc0edw9sws40pjtVOvbNXIi9Dyv39Kh8TMc63bdRovw7SEt7wHxCg3t/fo+xM/6LB0yjqjwxRBe3Y9aYsZi5J52dYWn0o+u4ei8fDq6usHPqgUHdrRA9ewwi4jJZEpuLi1tDMW1zDloPeAOmw5aQb5rp+/QAu+d8iu1pedBmn8a6j2Zgl+Q1DO75XLXik1h0EdtnjcHYmXuQbhg4rl+9h3wHV7jaWULp5gb7uwewaWeaTlNI3zcTC/c+LPVkmO7vwuzQzTifq0HOuY2YMGMHRMGD0buOuEpxx/RcGQtVFUfTc9nU0pQ+TKVqcvg+74nsn7/C5HVnkK3V4H7CKnz4xR6gw5t4vb6urhrn9kZg+ZYT+hsjC/c+eLPtI/w0ZRr2Xs1D/q1DmDc5Eum+A/DW85aC11kB9HmzLR79NAXT9l5FXv4tHJo3GZHpvhjw1vP6p+7qc3sRsXwLThg6FChvAfc+b6Lto58wZdpeXM3Lx61D8zA5Mh2+A97C85ZC1/WK0FNw+jRSLZqwpJ3dKVYmBhvfHeZUAf0GOrHeN0t/REp6e3MOlbeBTlF3BBX9frnqD5rQWEFt5l4oeqH+waoepCi1g7pwAx3r78A48pZZkMymJU2IUZHmbgzN7uFJ1mIxSeUyshTJqX6XqRR9y5xX+4nVP0gzutYnuVhCUomEHFsPpT4trIp+ZYAVoJjZPcjTWkxiqZxkliKS1+9CU6NvmbV5gDSZdHhOd3JXWJDUSkESsYLcu8+jPwp38irq07v7Sm6a0tDdmNnUw9OaxGIpyWWWJJLXpy5To8kwJHb94AzqWl9OYomUJBJHaj20D7WwKn8DHVMYjfOWkYXMhlpOiNF1StHTXiFXhYgs5FZsPHJyCRpHUZcr2ABZFtURmtCkFnVeXGLjEdPRwRldqb5cTBKphCSOrWlonxZkZdzkITgm/Rzb00uvBVFdVl8qEZPMpSNN2p1h7ENIJ7oxK6juiN3FGwsKEmiqn4L8piboD5/+PFdPB5X9YXpN5mGa092dFBZSslJISMzqdp/3B91n/VT8axI6MU35i7Aen7QnAb3dXkbdZBK9f5tFNW2hIp+6GT2NXnFVkMhCTlasjtwliMZFXSZzrL7aOjPBE/GQSZQw1Y8UflP1R09soFOU/uMPBQlTyU/hR1MTDCPJSVpNozp4kpLpvJZLAA0a25fFy5b02QnDdVXyMurrqSAx83sr5v/uPabQ6HbWJTbQVX0sJmPdvWia/JIDWbI5s64lJ6mDLw2cPYmClUrqFclspSCV1o/wIaWFBcltbEnBfNQpYAxtSTOsCpqb0TTtFVdSiNh1KzYHchcKGhdFZoUtId8UsGG9TVk1op5DO1FdmZzkzCYlzkH06b4bZtmkaQoodf0I8lFasHhsQ7bMlyVOATRmS5phPVQl07K+nqQQM5u1YnPm3oOmjG5H1iU20MntX6LXguoyX2HrgVhGLh0n0e6Mwo4r7y9Cc1VQro9VTNnYZnouBfRhCvU12jmhHTlL2fzo/ZTpotMk2nWtUBdZtLqnjCStplOi0W5UZyJpSDNbEluwfizFZNXwDfousdi/hK6zAhQ5pBnZii3YWmxJYquG9MZ3iUX+k7W6J8kkrWh6cYcmy7MCdCZyCDWzFZMF8wFLsRU1fOM7Ku5S6LqOAoqf4ks2QQsMm0YrEYNFuv+wBI7zj0CLrLR4nLqqhYtPK3jo7xY1eJiWiOT0bMhcmsPHy6F4Y5FZ5OHWmVNIzXFC8xc8oSznBlTzMA2JyenIlrmguY8XHCrXAdSZF5GQkgFN7Sbwa+wkLJ/mIdISk5GeLYNLcx94le0w7xbOnEpFjlNzvOCpNP1VXFYa4k9dhdbFBy96GJ5IqzNTkXD6FuDcBD4NHSuhLw3Of90FgTt7IjZ6PLxKPJXJu3UGp1Jz4NT8BXiWr8Tyx3RvBV5tMA0uW1LxTYtzSLwhg6dvMzjLDZeLENKJIE9/nqusgyqhRubFBKRkaFC7iR8aO5nbVvX8pTx7qlhvWtxe3hfvYDl2/F8d4zkTPE1bUGciNeE0bsEZTXwawrFSqq9ujHn6aG8lI/aGHXyeb1C02Ui1fwyadE/Gh+f2Y1zhS5/5d3Au/hzu2zSCX7M6Nf5HNyqMddosXDl1ClfylGjo2wL1nvgr6FpkX09B0sUHEDt5w7dpHZSedmbvqQkwhC0fNKzcBAr6prDvM/muxCPhugSez/s8KX81fFubfR0pSRfxQOwEb9+mqFNq4Pm4cy4e5+7boJFfM9QpMWH3VryKBtNcsCX1G7Q4l4gbMk/4NnMuozdGZWUTnKvqYnouTevDNPp5PncXYudm8PU2Y23TPMDlhGRcUzuhiV9jPBFGha6z2PDgcgKSr6nhZFYcFi6veXAZCcnXoHYqP18weT3/OCb798GlyfH48e3aLDcwPwbzZJjDqQxZP+M9/wmwXhWHBYGViFIVUZQAXcLK12qgPc7fh7yjmB4SiSaLlmFAg3JuDsrCbaHKqOOnwL/NerRc9SuWh3hBdi8Oi4f0xKcZ7+D3uC/QqnKvD3L+ARQlw5dWgrsLR0fm1iEImOeFjYenoZUuS65EDDYjQnM4nCJsuiJsYTscmrMK5WzSrTwiEcQWYvZ/T25y4PzDkb+EqVsizEuEdXBbqDKWvmMw9yM3HBjuDaVVLVg7t8UXVzpiwcqJPBH+lyISiWEhFunchsMBVHFY9E0aBi7+xJAI66hEDOZPhjkcDofzr0B9Pw2nL9xCga07mjapgxr/hpvD4fwr4ckwh8PhcDgcDueZhb8mweFwOBwOh8N5ZuHJMIfD4XA4HA7nmYUnwxwOh8PhcDicZxb+znA10FzcitnhMbin/3M+IojEFpBa26OBTxf07fkS6tX0j1j+z1AhPekSrJs3hSO/feJwOBwOh/Mvgqc21UB99SBWL1mD3y7cxb17d3H3dgYuntyDb95ph2Yv/R82pdXEb2/9r9Hg8ne94T9kA9IL/74uh8PhcDgczr8EngxXF1EdBH+2CmvXrsXadRuwZfcfSDn5A3pmr8b/jVyK1H98PkzIvn0H2TwR5nA4HA6H8y+EJ8NPAZnn2/g6rDckMSuxOkGtP6e9dRDzQwLQwFYKS7kTmnQbjx/P5Omv6Xh4bAmGBjaCk7UUUjtX+PcPQ/TNwgxUjfQ9M/FWgBuUMgkUTs3x+ue7kM4Sbe3tjRgV2BPz4vKNZVnpxK/RN3AEfrhqqG+674fY9kF7DFqwHnP7Pw9nKwlkDo0RPGkna1+LjHWjMGTFWahSIzEocChW6Z5251/Gzql94FevFiSWCtRuGozxG04j19gih8PhcDgczj8Fngw/Jew7dcTz4nOIi7vHstNkfPVmH8w974dPNx7GiQMRGKLYgZE9x2PvA1ZYHYf570zC8UYTsemPeBzbNA6ux2fiP1N+Rg67nJ8wF/3f+goXfD/Flj9isWd2a1z5ZjDeXX4ZKLiN8/FJSM8qfvVbm3UNKfHncCufnRPqmyXad1NPIGrGFEQ3moCNMb9jy8eeSFo4CtN258LW93W8EeAEC0d/9B/ZF62UKvw+tRfeXpyGVp9uQswfuzDv1Wys/093fLDjDvgDZA6Hw+FwOP8keDL8lBDbOEAp0+L+vXtQHVqK8ONNMHH9Urz36kt4vk0ffPr9TLyauQHLtt9h+ehVpF0Xw6mRP17waQ6/bh/i65XfYvLrriDk42jkapzyHIMV4f+HLv6t0OmdxfhmcnfUJ1ZXAMG+9RC0L3yAlWGD0MH/Jbz+ySS84XofKUlXUatld/T0dYSlfUv0+k8v+FruwdKVqfCd9COWj3kNbV56Gf9ZsBnzgh/gp8UbcY1nwxwOh8PhcP5B8GT4aVGQi8f5IlhZyZGRkIQb6rNY1tcXLVq0MHw6TMfh3Mc4n5KKfHknDBnsij+n+KNefV90HTwJ27IC0L97c9TSZiLl9HXYvRCA5oV/bxvW6PzZOqx8P8B4XBEa4b715URQejaEc6E1iJVQ2oigzi9+9aIQ9aUknM1pgDbtPWFhPAdxbQQFNoPmXCJOFxjPcTgcDofD4fwD4MnwUyI/ORnnNc+hYWNnqFQsqbRthZBPQhEaWviZigURkZjzphcsYY9u3xxF/N5lmNDDA9lHV2LiGwHw678KlzQFUGsASwsJS1krosyv42m1KPzBPOG+dYhgYVGU2hqoqLN8DdSslsRQ0Qirb8lOsH41/If6OBwOh8Ph/IPgyfDTQHsHe7+PwuU6r6JPkBXqerjCKicXdm1CMHjwYMNnYDf4eTWGT0MH4F4cflq0BTdfGIEZEdtxNPU6Ehd2QPaeddh92x7urrbITD2Hov10LB09s/I9DJy2CyyLhQXlQ/W4OAvNv3kTd/VlLQT7NscARCUSY0s3D7haXkNy8v0S7wfnIjHpAlDfHR4S4ykOh8PhcDicfwA8Ga42Bbh/9SxSUlLYJxHHD2zGwnd7YMQ6NV6f+RmCawF2wYPQx+kEvn5/Nn67rgI0dxC7cBhe6dgbYYdzIBZdxPZZYzB25h6ks8tQP8L1q/eQ7+AKV7ta6DSgN5xjv8XkNSnI0mqRlbIG02etxp9ZdhAr3eBmfxcHNu1EGqurSt+HmQv34qExNxbqWxgRpDIpKPsBHuh+GMOxBwZ1t0L07DGIiMtkaXkuLm4NxbTNOWg94A001j1gVp/D3ojl2HIiU98Ch8PhcDgczt8W3V+g41SNvAMfkKeF/h0F/UcksiCprTM1bh9C07ZdoMfGckQauhszm3p4WpNYLCW5zJJE8vrUZWo03dLorhdQ6voR5KO0IAu5DdkqJCRxCqAxW9JIra+eSYfndCd3BWvfSkESsYLcu8+jP+7rLqooeVlf8lSIyVJuRXIrd+oxZTS1sw6k+am62kJ936WIYAXVHbG7WN6CBJrqpyC/qQn6w8cHxpG3zIJkNi1pQoyKNDejadorrqRg45VbyVi/LhQ0LoouF+iLE2Wtpp4yCbWanmg8weFwOBwOh/P3hP855r8SzUOkJSYjPVsGl+Y+8HIo2hGnR5t9HSlJF/FA7ARv36aoIzdeMKLOvIiElAxoajeBX2MnlKydf+cc4s/dh00jPzSrU87fgRbo2zRaZKXF49RVLVx8WsHDTveFghqZqQk4fQtwbuKDho6VaY/D4XA4HA7n7wFPhjkcDofD4XA4zyz8nWEOh8PhcDgczjMLT4Y5HA6Hw+FwOM8sPBnmcDgcDofD4Tyz8GSYw+FwOBwOh/PMwpNhDofD4XA4HM4zC0+GORwOh8PhcDjPLDwZ5nA4HA6Hw+E8s/BkmMPhcDgcDofzzMKTYQ6Hw+FwOBzOMwtPhjkcDofD4XA4zyw8GeZwOBwOh8PhPLPwZJjD4XA4HA6H88zCk2EOh8PhcDgczjMLT4Y5HA6Hw+FwOM8sPBnmcDgcDofD4Tyz8GSYw+FwOBwOh/PMwpNhDofD4XA4HM4zC0+GORwOh8PhcDjPLDwZ5nA4HA6Hw+E8s/BkmMPhcDgcDofzzGIxnWH897+O7D++w2ffX0SD9i3g9BTSfs3FrZgVthzb9u7Dvn378PPPv+DX/Ydx4vw9yBs0gouNhbHkPxPN5R2YO/tnqFsFwMNKZDz7V6BCetIFqJ2cYOhWg6u7v8QXEcdALVqjoU01ZHl4GOFT1iDdvR2aOdaEUWhwfstMzFp9Gtb+L8JVYTytR43EtVOw4KgCbf0bQGo8q0edgg3T5+LHS/YIeMEFMuPpfw4aXN4xF7N/VuOV1h7Gc38RqnQkXVDDyckKBvO4it1ffoGIY4QWrRuieuYRjilr0vFKh2bGM1VEexv7l4QjsXZrNLEvYWdVmvdcHF3+KSLOu6Bzy9rGc1VElYh18/ZA9YIfXEoZpADaG/h54XQs2bRXH+tKfX4+jLsuHeBTp8Q4NZexfU4YVp2S4fkX3WGtm5PsP/DdZ9/jYoP2aGFuQM49iuWfRuC8SxBa1n4KQfxvRI3ZXiFsDnbMnY2f1a2gc9FK2VBZHytLyXmxOlr5ef07obmCnfO+wHdR5dg2+0Sfl8Of2bDCZFypnI+q0pNwQe0Ep6e+rtZg7DCHUjZnZTz5z+BfHF20yEnciiUronFZbTxVw6ivHsTqJWvw24W7uHfvHu7evYNbzMj3fjUcgb6vYmGCyljyn4kmIwZrwjfjxAMynvkrYEnWd73hP2QD0rXGU/lxCA8Nw758HwQ4V89ktdkJiAqPxIFrNWUUalzdvwqLF4zD8E/34b7xrAE1Luz7Dku2JSK3cCxGMrfPwSfhf0Lp7wsb47l/FhpkxKxB+OYTxuO/CBZsv+vtjyEb0pmHG8iPC0do2D7k+wSgeuahRXZCFMIjDxiPq4oWN6M+xuitYni7lr4hrtq85yP9+F78cuqW8bgayBrC4+G3eHfaIWQbT5mF9i5if/wWEXuScYfFOl28K/5kIltV2sBzD3+NifMPwsKvVdGDCG1OIrYuWYHoygTk/HQc3/sLTt3SGE/8W6kp2yuBJgMxa8Kx+cQDdlAJGyrHx56gxLxUaV7/Tmhu4PcflmDVL2fLsW32efSYRTshzNev5vJ36O0/BBuKFrinSQ3GDnMoZXP/LP7FyfBfhKgOgj9bhbVr1+o/637agZi4DRhqfRiz5+0wFuKYDyH79h1kl4gTmuu3YNdvKTbM7QqHv6nFiiyBtO/H4tN9pdPh8snDlWx3fBC5Bh/7/vOeCf9PoWzcvpNdYpHW4PotO/RbugFzuzr8PQJazkHMmnIUHUJHoWmpXLiq867EW98n49i8zsbj6mCFNh99CI+Nk7AoqbLJiwi27T7E98ZYV/T54TuM8i/5mFmDq3ccMXD5OsxoV81bPeVb+D75GOZ15n5SPSphQ0/4WDn86+ZFhOdeDsWqsrbNPpGfv2rGN8vm65eyb+NOyQXuqVKTsePfzb8/GaZM/BHWA43tpZDauqPdyAjEZxmvPSXEjp3RyU+CRxcv6I+1tw/hq6Ed0Li2NSQWlpA7eqPz++twRv/gOBNbRrdHyOQp6NfUAdYOfph4IFegTkWokb5nJt4KcINSJoHCqTle/3wX0vW3tVrcPvQVhnZojNrWElhYyuHo3RnvrzuDwiZzk9di7MvecJBLYefVBZN/vc1S00KE65dH5cb+PEZ/OhJDVpyFKjUSgwKHYlWaht24JyEm+jgu5uubZMNMx56ZbyHATQmZRAGn5q/j813pbAlmMm4chcCe8xBXWFb3qsLXfRE44gfjcRnyL2Pn1D7wq1cLEksFajcNxvgNp5FrvJy76yO0fWkQVlw0/WzAwuc/GNsxE6s+/AwV5cPa2xsxKrAn5sWJ4TcsDJN6uoMSv0bfwBH44aouOD7Etg/aY9DcSEzv3RzPsXmwrt8G7/14Bsnr3kN7NxtIpfbw7j4LMfeNwVR7CwfnhyCggS2kbE6cmnTDeFY+z3AVmVtGo33IZEzp1xQO1g7wm3hAcMzlk4vktWPxsrcD5FI7eHWZjF9vl/zGQItbB+cjJKABbKVsnp2aoNv4H3GmUJByEbCpzC0Y3T4Ek6f0Q1MHazg8PxqfjhyCFWdVSI0chMChq5Cm0eBGUgyij19EsXnswcy3AuCmlEGicELz1z/HLp0TaG9j46hA9JwXV1QW6kR83TcQI364ajxRmvzLOzG1jx/q1ZLAUlEbTYPHY8NpU5rSIuPHhdhg0Q//6VzLcEZo3h9uwwftB2HB+rno/7wzrCQyODQOxqSdOpvWobOLtug6PUZ/ZNrPhWUWO/fFkM7pWL5oH2o2FBbOZzO0Z+P8YpAf6j4RIwiZf4ShR2N7Zsu2cG83EhFFAbmcWPjfn/BB266YHmOcsQp9n8Hm99BXQ9GhcW1YSyxgKXeEd+f3sa4waD48hiVDA9HIyZr1bQdX//4Ii77JpK6A3GT8MKYzGtnLIVM2xCuT1mLxu+0NtmKWLVXFJ4qptO0xedeOfRneDnJI7bzQZfKvKHbRMjZUkS60GVg3qoyP3Snjh34TceAGs9mS82JqXgV0lbP/c3RpOxxrSj4pzT+GOT3a472NuieaAnoU9J+aQIO0tSPRvvUALEkx3kRqLmH18HYIemcdi0Ol9fvw2BIMDWwEJ2uWd9i5wr9/GKJvaqHNWIdRQ1bgrCoVkYMCMXRVmr689tZBzA8JQANbKbNbJzTpNh4/Fg7QjPFVGPPKzruQj7Dyx5YMRWAjJ1hLWR7g6o/+YdFgopePSZtjCKxPTyI016Z92KQehaB/LRq6ubQLSUUWZO8/mlZEH6WYDZOpUx0JuY/cRZnGUtUh78AH5CltTBP+UBnPGMk6QGO9JeTw5o/s4C5tCnEmeaMBtHhfHCUlxdLOL/uQu0RJfdbeY2LepKVdpCS28qV31x6mw5s3Uczt26brVIAqfiYF1LIjv5HL6Ne4E7Q/Yji1tFZSt/BLTIxNFOIsp0YDFtO+uCRKit1JX/ZxJ4myD+mbzN5PH3rL6Ll2H9MPB4/SwXWh1NHZkkSSQJqfqhauXy6VH/u+g1spTNdug140LWI7Jdxnet4zklwU3WjZbV2bKoqfGUC17Pxo5LJfKe7EfooY3pKsld0o/FI+XVvciRTuo+m3PL0ADBX9/pE3KQLn64801xZTJ4U7jdYXyKHDoS3Jyu55GvHtbjoSG02rxgeSk9Sdhm+/zSyI9f37NzRyxDTafk13VB55FP2eK8n8Z1LimaUU7Cgl7/f2Ge3rMW0JsSf5K9/RLVa9dN8GVL9/RN4Ko46ZviKCZSRRuFG36VF0JD6GlvZ3I4mtI7m++A4tjz5OsVETqa1STm3mnmXlCyhpfhAp7VvRu0v3UGz8Edo6qxd5WDWkUXuY4gp9QGxFvu+upcOHN9OmmDTBMZdH9v4PyVv2HLX7+Ac6ePQgrQvtSM6WIpIY9VqQNJ+ClPbU6t2ltCc2no5snUW9PKyo4ag9pJOkXARsSnNzKXWRisnK911ae/gwbd60jw5uDaM+7hJq0GsaRWxPYG3n0Z6RLqTotowM5hFPMwNqkZ3fSFr2axyd2B9Bw1tak7JbOF3Kv0aLOynIffRvrJYR1e/0kbeCAuensgNNkf3oyTlMoS2tyO75EfTt7iMUG72Kxgc6kdR9OG2/XYGmNNcovKsNeby/v6gPwXm/G0HBcjnV8niZJq89SHFMD2HB9UhSdxjtyNKV1tmFnGoP3WGoa8rPzZT5/vp+ZF9nEG3Vt28GBYk0vZWU6vxnJ7PqCjBrPkVkYe9Po1dE09GYDTS5Ux2SuI+kXTqHKS8Wnl3GdFObhu7Q9WrK99Ws+xByljeiAYv3UVxSEsXu/FJvK8o+a+ke85Xjn7KyTYZSxP54Sj65j77q40rS+iNpT7Ze+jJk04FxjUnm0JrGRh6gowdWMz26kLVcarAVNs+mbamyPlFd28um/R96k+y5dvTxDwfp6MF1FNrRmSxFEqM8JW3IlC6yKHF7aR+794QfxtDt2zqbNcyL8LwK6CpzI731nILazjtLuiioQ7e2etXqRN+weRXUo6D/CKA6Sp80kZLHmGKfLZecWJraqhbZv7KELqjVdHH5a+Rk8yJNO66zzRL6LThOn7KY02RoBO2PT6aT+76iPq5Sqj9yD2VnJdL2MN0a2IB6TYug7boFriCJ5gcpyb7Vu7R0TyzFH9lKs3p5kFXDUaQP40LjMxXz1KVjh2kf0Yn+KYslTWhoxH6KTz5J+77qQ67S+jSyXCcRsjmh9elJTM+1gA8L6VGAf30yLJO3oy/PFbqYhq4vf5VsWXD+ocIEznz0ybDkOWoz9BMKDQ1ln4n08ZihFNxUSZbKtjRT5ySaW3RswyKKPFQi0VDF0LhGcnox7DSp9QuAjORdwul6YQGhOsZTpVHRwbFeJPP5jE4U5ebZ9FvYQBqx5Bhr8hhtWBRJh0oEUlXMOGokf5HCTqspK2oQOSmC6Ct9UqbDqCupYcEWql8uVRk7M/jE6a1I4fM5nSwwnCmVDKsO0lgvGfl8doKN2Ej2bxQ2cAQtOZZbuWQ4azO97aigNnPOFOtUk0GreirJqvO3dKV4qCYoToZTWIC8EN6NHKXe9N4+3SpQtWRYymQtnIa8X0eRq8SNRv1qTEGYfEtellPdEbvYxWh6z01OrecULyK6Ntb1cyDbnpEsOSz0gS4UXqjgKo05i6IGOZEi6KsiuUhznZa/aquX1aADN5K3nkNniwWhu+v6kYNtT4rUZ6lPImRT+kVWJqcu4deL7UeflCnI5/OTzFJ0lE6GVQfHkpfMhz4rdgJmHmE0cMQSOpZbuWQ4a/Pb5KhoQ3POFA9Kk7GKeiqtqPO3V4plKklOFA10tKJXV9w1nmB1zEmGZVIKWni5qE39OIp8q+SCZtrPzZVZnTKT/OXsRv5ImRv5itDrXcJujmVkZWVV4mNLfp/G6n3R3Pls9+W5ItvTXF9Or9qym2NdQC4vHugTAWMyLOD7t45toEWRh6i4exXFjGtE8hfD6LT6MUWFOJBN+zA6+cBQQJ32Cy0P30HJ5SVM2VtpsBO76SzhW5or31E3G3OT4cr6RDVtLyuKBjkpKOir1DK6NcpbyoYEdFHGx8r1wxLzIjyvQrp6RNuH1iVZq+mUqHfqHPpllBvZBS+jaxoz9CjoPwLok2FLEkvkZWxb97GnfmuLDeTxiS+ota0TdfvkY+rkaEdtZ8Ubx1RCv4+jKMTBhtqHnSSDetWU9styCt+RzCKpTr3TqZXChz43LnB50e+Rm7w1zSk9QOrnYEs9dQMUGJ/JmJdXct41Aj6iEz2EHGzaU9jJB4a+1Gn0y/Jw2lGekwjZnOD6VBahuTZtt4J6FOBf/5qEhVtrBLoXvrgnRu2XXoRX3hkknS/6wqaa5ONe+gWcP3+efS4g7Q7g9cYs7Ij9GZ+/KGdd1kbAW4Ph/zAKc0JHY0jfLvBv1gvhqRpotVrjawgi2Lu5Fb8Pa1adMmgzkXL6OuxeCEDzotf3rNH5s3VY+X4AazIAbw32x8OoOQgdPQR9u/ijWa9wpGq0rM0CpCWfQZaLH/wblNBV29ZoZGk8Mlm/XImqNnYBtJkpOH3dDi8ENC/+dQbrzvhs3Uq8H1C599fUl5JwNqcB2rT3RNGrnUzmoMBm0JxLxOkC4zmzsUDD/1uCLzrdw/djP8PPha8yVAoRbL284WIUSGRVCwrLunBrIDGcEFvBSiGCRq2BJiMBSTfUOLusL3xbtEAL/acDph/OxePzKUg1mrjI3g1uRgVXaczqNCSfyYKLnz+KzaM22rZuBL15aDKQkHQD6rPL0Ne3UI4W6DD9MHIfn0dKoSBlMMumRPZwczP3XWAtMlNO47rdCwgodgJmHp9h3cr3UTnzUONS0lnkNGiD9p5FmmIyByGwmQbnEk+jPFVp76bjWrYtnJ2tjWfMRKSEZ0PnonGKlUrYiNTIzy/jWyb9/AWzZbZwcYEzbuBKemXeGxbB4dW52Pfbb/it6PMLVv+fwRfNmk8LN7QOdC+yPXHtl/CiVx7OJJ03foVecTww7fsK1A54C4P9HyJqTihGD+mLLv7N0Cs8FRoWa7QkR6chg+H65xT416sP366DMWlbFgL6d0dzw9sspdBcScHZR8544aUSsroEoV0TY0AUooo+YaDytqdOS8aZLBf4+Tcoodu2aF0YwEtROV3oEfJDwXk1hQ26DuiB2klb8GM8s8ecg9i46xE6vtUbdclMPZrrPxUiRt2+3+DnUrat++zDrG7Fv4ogbzURyyc3xtEFX+Nk80+xbMLzT/4ijLwThgx2xZ9T/FGvvi+6Dp6EbVkB6N+9OZ5UrwYZCUm4oT6LZX19i8bXosN0HM59jPMpqQb9VTg+TSViHlvTTfqITvQhGOz6J6b410N9364YPGkbsgL6o3s5hiFkc+auT0UI+ozYhN2aqUcTVGjb/xokUkhKjtLSUj9oMtdHhBDVRc+wjdi6dav+s+Wn1VjyxWi81thoPNoMbB7uD/83v0BUQiZknkEYNmMa+ruWFEoECwtL9l8jZtUpSwFYfgRLC0lxOyXQZmzGcH9/vPlFFBIyZfAMGoYZ0/qjsEm1hlUWWxqSGyMiuRwyY2NC9culKmMXokDNwoclLCQmapTNH5iXlzvdLJCoWVuSUusFk4fZCKsETVVsxKIh/m/xF+h073uM/TwaWU+08YRwZWxRBInEmPgWIYKoeE0sRqViDm6LViGfIDQ0tOgzdUEEIue8CS/juEQWFrAsVFeVxsx0rjePkpVEkMtl7L86VFCxSGPbKgSflJAjdOoCRETOwZuFgpTBLJtiA7coEl6YAoMTwHzz0C0C5Q6aqYotzJaSUj6hk8egKk25NkUFzA9FEkgLHaeIMqXLzrtunGXmuPwhmPZzs2WWMN+2VENdUP7YK8LS0Qsvtm6N1kWfl+Djaoh15sUIppvSARmWusMiZZiIByZ9X4uMzcPh7/8mvohKQKbME0HDZmBaf9eiRc6+2zc4Gr+XJTA94JF9FCsnvoEAv/5YdYkptBxIxGSzKNGXyHAjWpLS2itpS1XziUIqbXu6m2M20tIuKof8CTs0UFldCPuh0Lya0hVg1SkEvRucR9RPsciM3oS9qq4Y0LMOG5GZejTbfypG6uRdxrZ1nwA0LrV7ToPHj/PYfwmqR/fxqNwMyx7dvjmK+L3LMKGHB7KP/j97ZwIXVfX+/88Ms6MwgCCmsiq4QiThlqSmSUqu+dVQ05/67Z9mpqWplVsiqJllhSkuZJK55pJbiUpQLqEBAqKGiiQoiiixyDbz/M8sMCzD3AG0b+Z9+5ribuecZz3P3LlnZgPee8UPPiM3wZh6S3QCImh2FfnmLMDK8AiE/sdd5wMm5DMn5+ngjhHmGPjsVDwOr52FQNcCnNrwHl7x88HITVeZzDXg8jkz5ycD3LY25bdm6dEEVa38r0SVeRl/VPkOofykJKSLXOHBkYweFuobO7Fmew76ro7D2R+3Yf3KBZgW2Bxlf6k1WU1/VnUacg2EdnBxskJu2qUqD7uXI3XDFIxZuB83dq7B9py+WB13Fj9uW4+VC6YhsHkZdE2K4NzWFdKbF5CSa2i/5NJlXNfeOFJzXK89vRYNkoMhMBHUQjsXOFnlIu1SlYUv5anYMGUMFh64yRKGBai0BA8q82wpbt3KMZxbBZGzK5xEN5CcfK/K8SKcT/oDaOUC15o1qZlYePw/fL64D3I2vI0V50oMkwAbmwWVosQwOJTeuoWculVhEosWbPyKQhRZd0fQuHEYp32NwQAfd3h6tTF6d61BMouc0dZVipsXUmBwjxJcunydeRjDogVcnRQoLLJG96CKcYzDmAE+cPf0Qhujt/0b5lOaKaBu9xDCzsUJVrlpuFRlxUd56gZMGbMQB25qCi1CackDg01Kb+GWUQOwmHB1guhGMpKr3uEvOg+dqlxhTFUWts2Y3vNx716VqeNh2t1knB8xe8zqvFzcL7eBnd3DyoNm2lOVicvVEzKS0kVw9TBjsjIV+/vPYeea7cjpuxpxZ3/EtvUrsWBaIJqX/cXOZf/UdxG3bTV23XoGkxaHY++pNGSeX4XnCw4h8uAtfWMGLFp7oo3iJi6kVMkdxRdxqbKa0RQnJnypQTFRQf19T+TcFq5SzXhzDeMtuYTLugReHU5dmIqxOjBpVw5daZD2wKvD3XD9YCRWRh4BXnoVg2zZ/kbp8eFT8OsSvLEyHT3nzoX/jdWYsjim1iJU9d04bFu9C7eemYTF4XtxKi0T51c9j4JDkTioCdpqE5wFWjBbKwqLYN09qFK+cWMGwMfdE15tuD4V48p5VXSsvmE6Rti/u3HbsHrXLTwzaTHC955CWuZ5rHq+AIciD9ZaRMflc/Wen7hsrbxnwm/vNFKPGk3+y6H7BxH6/l6kF6tRcCES7yw+APHAcRjcjIlefgmHw9dh19lc/dmPAM27e0Ep7qSn4z7zGNXdc9g4fTF+uM/8pqSOVY4NuQYK9Bk9FI6nv8C8zSnIZ7NPfspmLFr6Nc7lW7MmRRCU3kF6+n3muCrcPbcR0xf/gPuad2OsSZuBEzDC5jiWvb0JiXkqFF//AR8u2oGKWOK63igNkkMAiVQCKrjPJmv9rqoo+mD0UEec/mIeNqfks0kuHymbF2Hp1+eQb20HpbMzbHJOYMf+dM3IkHFkCVYdzjMk4arYBWLsIAWiQqYhPC6XlRRFuPL9HCzcWYhuo1+BJ3snXn7pMMLX7cLZKm8SuLGAxxuf46Pef7GCsaiyb6HSGc42OTixYz/SS5gOMo5gyarDyDM6ODOwDsDYYfY4++mbCDmWyaRV4c7pVZjwYm8MDY5Fof60apghc21sMHDCCNgcX4a3NyUiT1WM6z98iEU7buqToDUCxg6D/dlP8WbIMWQy2VR3TmPVhBfRe2gwYo0OpIE+JZBAKiEU3L+vK8RroOgzGkMdT+OLeZuRks/Se34KNi9aiq/P5cPazhbOzjbIObED+3UGwJElq3C4DgPYBY7FIEUUQqaFIy6X9VZ0Bd/PWYidhd0w+hVPZmUjNPViibcEaReuVI7v4drddJybO+ayCxeQZtEO3l6asqoYFw6EI3xPAvJ0hxuEWfak+zgY+j72phdDXXABke8sxgHxQIwb3Ix7MuKIfbFIgNI76UjXJRuc2zgdi3XJBsVCAa7sXYpp05fgUIZm5Xw5/sr8E3dLbeHkZK1rvypNAzB+pANiP34b6+PvQ8V85dCiRdiepS+GhUoOX2pYTFRQb9+zGYgJI2xwfNnb2JSYB1Xxdfzw4SLsqFoMVcClC44YM4opu3LqSoMEz776Ctpd3YSVP0gwcHR//fdwN06POszz77K8G7iYkoKUGq8LqX8iT6PG/J+x8I3VyOyzFF8tWYKvlvbBzS+nYOGJ6q0KBVewd+k0TF9yCDr1/oXMP++i1NYJTtZCpl4pJFSA+/oJzjpgLIbZn8Wnb4bgmE5AnF41AS/2HopgMwQ0mfOq/uAPe1tiMkZYBAqu7MXSadOx5FAGi1rN0DPx591S2Do5gQ29Olw+V+/5icPWD0z7bWP1CP2zw/9CdIuHFG0H0/g+LUgqk5FYKCZH//fpyE390+P5X9NgqZi6LDqv264ndX6bRFVUdylqXleyFQlJYtmEZBJb8h4TQnMDlKQcEkHZZZpFI3Jq9foRw+ICrmsqH36vgSqXYkMHkYvcgiQKOZNXTi6DltOv9zRNRtG8rrYkEkrIsomMJLbeNCZkLgUolTQkIptpS0U50YupfysZCcUSEovtqNv4YdRJoV9Ax3m9ERoiO+PBiRnkIbUgadPONCumpMa3SWjEjKXQQS4kt5CQQi4modyFBi3/VbeyuCSZ1g53I7lQRDKFjBQugTR/6nNkafTbJNj2rSha+KITyQUW7HwpiWQtyX/GbrqmX7yX//Vgkoq70CLdyg4jVF1Ap9+lp/zSl/SiLZNdv4BOs1ghee1wcpMLWT8K1p8LBc6fSs9ZVl1AJ6cWkw5Wrtgv+XUWecq707I/Khq/T5sC5ZWrg1U5MRQS6EaWQtaPjI1fIKNW/RZQlLZDXQzIW71OR6oomEtmo6hyKHpxf2olE5JYIiaxXTcaP6wTKfR61RyPCQkkN0shCSUykooEJGvVjxZE1eEbDC6fKtMszJG3oterDp5p5sQMD5JaSKlp51kUU1Lj2yRYb7mxoTTIRU4WEgXJxUKSuwyi5ZogYJQkr6XhbnISiphvMBu4BM6nqc9Z6hfy1FjRr9Ff1EJ60UlOAgt2vpT5VEt/mrH7mn7xnjFK6OSsdtSk7+dVFiNy2F2zQEbegiYdrLA6UVnCAvKR+9CCBE1PVRfBMEzEuXljLqP4+d7U1H+lfkHkbVo7QEri7suo0s1qYsa3SZhlT0VbGjy+D7WQykjGbCN29Kf3j9zU+Yh2AV2NfFB1AR2j7thX0d2oedTVVsT8z5KayCRk6z2GQuYGkFI5hCJYPJSlfUuTvJRkwfTS1IrpTWxPftN2UXpdMt87SSsCXUjG5g0J83m7ZwOpV0uZ3le4fIlRr5hovO+pcqJpcf9WuvGK2Xi7jadhnRT68VT3IdO6qB5j0RlG4rDmAjpTdmVw6kpDWTIteVZCIrdpdLyqk3HpkTN+OPxbv4BOUw4Zewksh9O3hffo6FvtSNZ8MG24qm+k/AqtG9iMpO3eoqh7VfVbRmnfTiIvpQVZyJqSFfNTsb0fTduVrltI9uAEzfCQkoW0KXWeFcN2sLk3JoQC3SxJyGJHxmwtkLWifguidPMGp3ymcl7VcXHHCHMM+naSFykt2NzQ1Iq1JSZ7v2m0q44gMe1zmuOm5icjcNjatN9y6JEDgeY/zOD/btQFuB6fgEyxG572egp//48EqpF/PRGJ14uhbOONTk+ZM4KGXKOjPPcKElKyoHJoBx9Pe8NiE3U+ricm4nqxEm28O8Fok8XZSE1MQ6F9Rzzjpqx+t8ac62vRQNnT45H4pxotvbrAtdZbUg3lyL2SgJQsFRza+cDT3rB4ACjFnUvxuHSvKdr6dEBzzoVTrK20BFzIBhzbeaGNXdW2Hj6ldy4h/tI9NG3rgw7cgzMDFfLSzyM5owDSlh3h5W5rsHmdNEzm4uxUJKYVwr7jM3BT1raLKi8d55MzUCBtiY5e7rDlarYhPsWuSY9PxJ/qlvDq4lr7joWG8lxcSUhBlsoB7Xw8Ud097uBS/CXca9oWPh2ac/8kMmsrLeECsuGIdl5twKUq1eVP0a/nfgw+HYWZ7oZ7eA/b7nXGuQZTYy79DfN8h+HqvHh896qDNsbVt9dh+H+BdXv+H6r+qnK9McueahRcj0dCphhuT3uZmUeqUnfsq/OvIzHxOoqVbeDdyUiuZ3NBZkoSrtwXwt7DG+2by/QH6qIUty/G448CB3TqlIWPvPvjzOQk/DLbXX+Y25fqHRNVqafvae6CZqcmIq3QHh2fcYOREDVgShfmxFgtOOzKpSv1bXw9vD0+9jyI+OXdauWwxujxofl3PVAXZCIl6QruC+3h4d0e1dWbjvjEP6Fu6YVnXfWfTKjykH4+GRkFUrTs6AX3ejkKw1TOqwJnjGjsmJmCpCv3IbT3gHf75jAdJVw+V//5yaStuWK4gXp8MophHh4enr+NfPw4xRezLDchbmVPjonk7yf3+9fgt9wd22MXoot2nijGqUVBiGi3GmtHt/73PzvXUEp/xbudaxTDPA8FzQfrD+KDMaD/QQyK+QXzOhh9CKmB8P7Nww1fDPPw8PA8ZNR3D+LNgK/Qeds+TK1yd/h/TkkcFvZ/F/j4CBZ3NdwT0nzVoVDIlwkmKT2J2U8PwJmJiYiZ5abfydNoyuPwYdcX8PF5ATrP2odjob1h5CnuRsH7Nw8XfDHMw8PDw8PD8z9ChbzrF3Ct2BEdaj7uw8PzN8EXwzw8PDw8PDw8PE8s/OcGPDw8PDw8PDw8Tyx8MczDw8PDw8PDw/PEwhfDPDw8PDw8PDw8Tyx8Mfw/oCQjCal3Db8MpPrzIJa/OwufHMnS72kgebEIm/0Rdl2u+MnQfxmqa9gXMhurT9zV76gvKmQcXIyxA/zxXN+J2JBa5feVWNt7l76L976Ixp0K0xT8iq9mL8S2qudxUXQK62bPx9aUelzTUFRX8P2SdzBjxgzta+bMdzBrznws/XInzmRpfqHnf8TD1EFdbamuY3/ou5i9+jhuG0Kp8dTTx/JiwzD7o136rYdESQaSUu9qv25Ki+pPHFz+LmZ9cgRZjZT1kYyXh4eH5zGHL4b/ZlTXvsJQ39ewNaNiVitFXNgcBB8phZefo35fw1AXJGB3WARO3PgbCrH/BaosxGwOw86z9/U76knRAcyfuBS/iHpg2ND+6OxocP+i2E/x3opoWPh0gb1+t7rwPL7/cj2irtVDn6UZ+O3wT0jM/hvekJT/ieivv8TmY38g5+5d5OTcRtaV33Hos//iuQ5d8f92pLPy/3/Aw9RBHW0Vn1yN90KiQF7PwOFhZrF6+ZgaBQm7ERZxQr/9EGDF+FdDffHa1ozKYrg0Lgxzgo+g1MsPVVy2ATyC8fLw8PD8C+CL4b8ZKriNOwVVbu+oMpFtPQJrti5Df1veHI8SdX4WsvJb4KWZi/Hu9FfRtfJ321X4844dxqyLxOLndL+I32CUo7Ax+QyW930YvyxnDgI0D/gAm7ZswZYtkdi66yB+Tfkd3wwuwNf/bzLWpP0PyuGHqQOjbalw47YNRq2NRHAfpX7fvwQqwO07BYa7wkzWzGxrjFizFcv62/IJm4eHh+cRwOfWxqC+jZ8/GY/nPR1gKbaASGYHj75vIjJV9xF17q6p6BU0D/NHtIetpS2envo+3nhtPS6WpCFibE+M35TO5rqbSIqJwm9XSrXXaH5qNOPQEozyc4ZSKobcviNe/vAAMlhNo769HW/0HIzlcRXnsrPPf4rhPSfhmz+NfH5aeg37FwyDz1NNIBbJ4dA+ADO3XkCR/nBt1MiOXoEgv9awkoggs2+HATO/Q2qx7mjenrfQa+xKfLtsJJ52VEAstYVnwFzs1wyuDsozDmHJKD84K6UQy+3R8eUPcUB/vvr2z/hk/PPwdLCE2IL1Z+eBvm9GQq8+oCgZW6a/AA9bGSTW7ug37yhuV/0iQA79V6U8cRVeGbgCcaXZ2DOtB7q/tQd5TN7bP3+C8c93QK8JwfhorA9aePTFm5GpMLRAyP01GIGeNpBIrODy3GSEx+frDuXuwtReQZg3fwTa21rC1uc9nLi5B2/16I9FMXoblWfg0JJR8HNWQiqWw77jy/jwQIbujm09xl8vpG549dNgDBXHYMPXCcyjGOpsRK8Igl9rK0hEMti3G4CZ36VCb1pm3DP4cnxPtLW3ZHJaw8l3JIKjblUWZXXbMRe7pvZC0Lz5GNHeFpa2Pnjvh21VdJCHPW/1wquhG7FwkAdspFIoXXthcvhZdqSCun2eOV01fZZe248Fw3zhP/4jLJ38AnwCZmLrhQqP1vU1duW3WDbyaTgqxJDaeiJg7n5dW8bg8jGOmDBNhX95wsFSDAumd7tq/lVDdzadMGjwWKy/WIK0iLHoOX4T0lUq3EyKQdRvV1AZ9XX6FOtv+xvoOXg583P9uUy35z8djp6TvtFvV0enTx881UQMkdwB7avpk4eHh+cJQfM9wzwNI2dHEDnK2tLoz49QXFISnd7/MQ1zEZNy2Ba6Syq6taYfSYQK8n59C8XG7qQdR6Jpb/AwchG3piELw2lvwj2i4kM0uaWcBqy9rW2zJH4J+TWxJp/Ja+lo3Fk6Hj6ROlsqaUDYVVLd+Jz6yF1o6rFi7bkaSn55hzzkPWlFWnmN44UUO6czKayfpklfHKSTp6No08yeZC9xoYl7b7PR1aYsaQX5K22oy+tr6NDpeDr5/VIa4qqgNm8cIjZSygkPIJmsCbm+MI+2RMcxeYMp4CkxtZiwT9dATUriaYlfE7L2mUxrj8bR2ePhNLGzJSkHhNHV8hzaEeRIsraj6fMjcZSUdJr2f6zRjZKGbbnLLi6g4297kLTZc/TuN9F0KjqS5vR2JJFATD1XpGmbN63/6qhunaJtn75GHSX21G/OV7TxcCoV5+ygIEcZtR39OR2JS6Kk0/vp42EuJFYOI80QVLfWUD+JgCxsfGnq+ig6FbOV5vVpTmKXyXQgt+K4kBTer9OW2FjauSOGbt8OpwCZA43f94D1WkLxS/yoibUPTV57lOLOHqfwiZ3JUjmAwq6W12v8Rik+QW+5Schz1q+spxqobtGa/lKSvvgV3VKVUdIKf1LadKHX1xyi0/En6fulQ8hV0YbeOKSxbBn99j4bV7vxFH48npJ/P0KfDHMiSavJdKiAHTZlx1LWTz8JCRXe9PqWWIrduYNiLq6tooMcCg+QkkTWjJ6e9BUdPfkzbZ3XhxzFTvR/e3VSmvJ55nSGtgpjaU5nBVk/PYm+OHiSTkdtopk97UniMpH23tZ4tKYvGcmauNIL87ZQdBzzqeAAekrcgibsy9f2VR1uHzMdEyq68XkfkrtM1Z5bCw7/0tqomu6+oYjNH2l9oPWQhRS+N4H1UUyHJrck+YC1pM8QJnyqtHI8hhRRQr+840HynivY3zXGy6lPHh4enicDvhhuMCrKPrOVVkf8TIZ5o4RiZrQl2bPBdKFcVwxLZf0oLNMwsZSdX0Rd5F704e9luh3ViuESip7uTlKvD+hsZXVTQMeCx9CkL8/UrxjO30mv2smpe2gqlevPJVUWbRqsJEXfL+h6rbmumKKmOJOsWyhdrLyAzeeRI8jWajBFsOFpimGpxJ9WXau4WDdejbzGKImeTu5SL/rAIAwVHAumMZO+pDNF2XRm62qK+LlKYV4SQzPayujZ4AtUnr+bxtrLyf+TtMrxqzLX0UtWEn2hwqV//a4qqLK+pBfkrjTtuE5/quwztHV1BP1cZeIviZlBbWXPUjBrQFvsSmX03MeXaoyBFezfsLc7+uP9wjINMlQt3kqiabq7lLw+OMtGpqfgGAWPmURfnimq9/hrYaoYZm+Gto20IjFrK6UwiqY4y6hb6EWDL7DCMXKELVkNjmBF1gPaHWRLTXsF0+/3dYMpT/+J1oXto2RWQ5q2o6agk5KsXxhVunlVHeiLYWnXEEqpVGIWbQhUktXLGylbZdrnq7aVv/NVspN3p9BUgxSqrE00WKmgvl9cZzbQF97+q8jgohob6HyqFpw+xhUTpothLv/SFcM1dFd2nhZ1kZPXh7+ztygaahTDHD5Vn2KYW588PDw8Twb8YxINRggHv1EY55uH3aFzMPW14ejn2wFDwtKgUquh1n/UKrBxhrO5zwKrc5FyIRPWz/ihY+VvUlqi7weR2PCmn37bPMqvJuFiYWt07+UGC/0+CB3g37MDVJfO40KZfl8FqiwkJN1E+cW1GO7dCZ066V7PL4pF0YPLSEnTfe4qULqhTeUqHiGUyqYQlFd+JlsFNXJTLiDT+hn4GYSBZd8PELnhTfjJHeA3ahx883YjdM5UvDa8H3w7DEFYmkr7O/Jl6clIzW8JH9/WleMXOvRAt7aiii2z9G8KoYMfRo3zRd7uUMyZ+hqG9/NFhyFhSFOx6ysasHBGt54uVcbQFc+6FyM16bLuY2uBDZydjT/Lqc5NwYVMazzj19HwE6OWffFB5Aa86Sdv9PhNU8bsVgqBQgHZzQQk3SzHxbXD4a23a6dOz2NRbBEeXE5BWqkMfV4bB6dz8+H7VCt49x+HuXvy4TdyEDo24bCj9lFeAWycnVG3m1vA1b832hiUiG5+bVB6MRmXS831+XJcTbqIwtbd0cut0qNZU/7o2UGFS+cvMIk1CKB0a2NYaCZUQtlUgPLS2j5azuVjZsZEXZjlX5y6q45pn6rPM9rm6pOHh4fn34+ZKZinNmpk7ZwIX9//4KPdCciVusF/wmIsHOlUTakCCwuIBPoNTspQrgJEFmI2RdZFjSqJFU5Gf1C7VMWmOxHEFbWjFgEsRGwHu0ZV65oSlLC53apLEGbPmYM5Fa8FKxEeEYr/uOsa0shjmDo11D3SMp0wEBs7RZ2FnRN94fufj7A7IRdSN39MWLwQI5302mPXqpgmNcOtRCCDTFrRmHn6N4U6aycm+vriPx/tRkKuFG7+E7B44UhUDEGHGBJx1R0iiDSbFUoXMH3UZeCyciaDCBbGFdDo8ZukNBnJl1Vo1sYTjmUlrHC3Qpeg2Qa7steCleGICP0PNKa1GfAZTsUfxtpZgXAtOIUN770CP5+R2HRVZdqOWphfWYhMeIIAMrm8mlwWrD0QKwrN8nkdpapydqKYabQKTP86l1bpI0MzluoeWmfDnD5mXkzUhXn+xaW7Gpj0KT21UgTV3KXFPH3y8PDw/Pt5KPPuE4n6Bnau2Y6cvqsRd/ZHbFu/EgumBaJ52V9sgtf8qwOBiUlMaAcXJyvkpl3CrcoGypG6YQrGLDzAKghWeFEpSh4YpqnSW7eQY6QzkbMrnEQ3kJx8r8pYinA+6Q+glQtcxfpdFVi0gKuTAoVF1ugeNA7jxuleYwb4wN3TC23q/U0XQti5OMEqNw2XDMKgPHUDpoxZiP3ntmPN9hz0XR2Hsz9uw/qVCzAtsDnK/mLnsmJd5NwWrtKbuJCSaxh/ySVcvq7/mrOG6r8SNW7sXIPtOX2xOu4sfty2HisXTENg8zLoh6BDlYnLfxToNxj5SUhKF8HVw716EWEEoZ0LnKxykXbJsBCNKQAbpozBwv3nGjl+U6hx5/BG7L7WHC8N84eiBfMFRSGKrLsjSG/XcePGYICPOzy92sAWdxG3bTV23XoGkxaHY++pNGSeX4XnCw4h8uBtk3Y8cNOckaqQcfEiDFosYH55FRZunmgr4fD5SkRwdnWC6AYr8u9V6bPoPHQu7YqaLs0Fp481KibM9K9aCEwWxiZ96sBN7RsBKi2BIUWU4tatHCP+9PD1ycPDw/O4whfDDUZz11WA0jvpSL/PJhPVXZzbOB2Lf7jPJtQSwyr9GggkUkioAPfv6yfcaijQZ/RQOJ7+AvM2pyCfzZj5KZuxaOnXOJdvDaHSGc42OTixYz/SS1g3GUewZNVh5Bm7hWMXiLGDFIgKmYbwuFxWXhThyvdzsHBnIbqNfgWeNW6eAdYIGDsM9mc/xZshx5DJ2lfdOY1VE15E76HBiC3Un1YPFH1GY6jjaXwxbzNS8lmBl5+CzYuW4utz+bC2k0IkKMWd9HTo1HcOG6cvhk59THs2AzFhhA2OL3sbmxLzoCq+jh8+XIQdlcVXw/RfFZFYBEHpHaSn32fFggp3z23E9MU/4L7mjmBFA3QfB0Pfx970YqgLLiDyncU4IB6IcYObcQePog9GD3XE6S/mYXNKPiuA8pGyeRGWfn0O+dZ23OMvvoAD4eHYk2D43gVjlN37ExdTUpDCXud/O4Gdq15H4KRIlL+8BB8ENGGmDcDYYfY4++mbCDmWyaRT4c7pVZjwYm8MDY5FoVCAK3uXYtr0JTiUofmeg3L8lfkn7pbawsnJ2rQdK7+ezhSEewdCMGfnZRSpCnFp+yws3idAwLihaC407fNVsQsci0GKKIRMC0dcLoufoiv4fs5C7CzshtGveNb4xMIMOH2scTFhln/VRCCBVEIouH+fWcEIHD6ldHaGTc4J7NifrukFGUeWYNXhPKN3ebn1WY5Lh8OxbtdZ5FaohIeHh+ffiP7ZYZ56o6K7UfOoq62IhBJLaiKTkK33GAqZG0BK5RCKyC7TLqCTt3qdjhjWuxE9OEEzPKRkIW1KnWfF1FhAx1DlUmzoIHKRW5BEISexUE4ug5bTr5pF/1RCyWuHk5tcSCKZgmQKFwqcP5WeszT2bRKa9TlRtPBFJ5ILLNi5UnZNS/KfsZuu6dfu1UKVQzEhgeRmKWQyyUgqEpCsVT9aEJWtXUyjWUAnbzGJDmrWRWkpo4QFPiT3WaDfromKcmNDaZCLnCwkCpKLhSR3GUTLNcKo7lLUvK5kKxKSxLIJySS25D0mhOYGKEk5JIKyWYeqnGha3L8VyYRikojFZNdtPA3rpKhcQGda/7WX/9RaQHc3iuZ1tSWRUEKWTWQksfWmMSFzKUCppCER2VSmWSCnaEuDx/ehFlIZydj4xY7+9P6Rm1p9aBfQyVvR61UNXG3xGDsnN5ZCB7mQ3EJCCrmYhMw+g5b/qv0mAs7x315LA6Ri6r7sD21btdAuoLPQ1Dm6l0DA9GxFjp69KGjhHvqj0k5sHDkxFBLoRpZCpm8Z8wWBjFr1W0BRej2VpX1Lk7yUZGEho6ZWzO/E9uQ3bRela9dWmbKjZhGYnFq9foQqtVBrAZ2MbLoOJP8WEhJLmA6kLan33IOUVWEiUz5frS0V3YpaSC86yUnAxqmQikjW0p9m7L6mX2ym6UtOLSYdJIOLJtACHzn5LEjQ76iOaR/TnmAiJjgW0HH4l8qY7tjIT8zwIKmFlJp2nkUxJTW/TUKjrrp8ilGSTGuHu5FcyHSjYDpyCaT5U58jS2PfJsGpz3z6erCUxF0W0fm6cgYPDw/PvwCB5j/aqpinQajzryMx8TqKlW3g3ekpKPT7TaHOT0d84p9Qt/TCs67V735VUJ57BQkpWVA5tIOPp71hsQyj9M4lxF+6h6ZtfdChOdeimXLkpiXgQjbg2M4LbeyqtmQcVV46zidnoEDaEh293GHLfYlpynNxJSEFWSoHtPPxhH1le2rkX09E4vViKNt4o9NTxrRXjOzURKQV2qPjM25Q1rgR2RD9V0Odj+uJibherEQb704wOgQ2zoLr8UjIFMPtaa86zjEFs8GVBKRkqeDQzgeeBgVwjF+N2+uG479Yh33/r7l+X2NQIS/9PJIzCiBt2RFe7rbV/ArqAmSmJOHKfSHsPbzRvrlMf0BPnXY0xV2sf6k1FrbchbTPOuHS+ZuQunmjg2ONthmmfL4abBxpCReQDUe082oDM1yaA9M+pqHBMWGWf9WAXZMen4g/1S3h1cUV1kZvvtftU5pHI+5cisele03R1qcDuFPEw9YnDw8Pz+MFXwzz8PxTKT6FRUERaLd6LUa3NudxhH8ihmL46oaBqF0C8/Dw8PDw/G95XGdYHp5/P7KuWLAr/DEuhDUIIBBaQCgwvTCMh4eHh4fnfwV/Z5iHh4eHh4eHh+eJhb8zzMPDw8PDw8PD88TCF8M8PDw8PDw8PDxPLHwxzMPDw8PDw8PD88TCF8M8PDw8PDw8PDxPLHwxzMPDw8PDw8PD88TCF8M8PDw8PDw8PDxPLHwxzMPDw8PDw8PD88TCF8M8PDw8PDw8PDxPLHwxzMPDw8PDw8PD88TCF8M8PDw8PDw8PDxPLHwxzMPDw8PDw8PD88TCF8M8PDw8PDw8PDxPLHwxzMPDw8PDw8PD88TCF8M8PDw8PDw8PDxPLHwxzMPDw8PDw8PD88TCF8M8PDw8PDw8PDxPLHwxzMPDw8PDw8PD88TCF8M8PDw8PDw8PDxPLHwx3AhUV77HkndmYMYM3WvmzHfw7nsfYmnYTvx2s1R/1uON6to+hMxejRN31fo9/xRUuLYvBLNXn9BuFZ1ah9nzt2r/NsajlUONvNQD+Hz2BAwf0Af+fQMx9t3V+PFqsf54A1Fdw76Q2Vh94q5+xz+F6rpnyse62fOxNaVct12ThyRHSUYSUvX247I3jzEK8OtXs7FwWyrqsNQTS15sGGZ/tEu/9WRRv9yYh9iw2fho12X99t/B/ybfVKX8wndYMGsljtz8p8yDfCxXUHVeqIrq2l4sffc9fBF9h83Q3PDFcCMo/zMaX3+5Gcf+yMHdu3eRk3MH2cwwhz+ZiJ7eL2FVQon+zMcXVVYMNrPi/ux90u/5p6BCVsxmhO08q90qzfgNh39K1P5tjEcnRwmSw/+DZ7qMQViyDJ37D8OIFztA9fNSvPxsPyz+JU9/XgNQZSFmcxh2nr2v3/FPobrumfLx2+GfkJit0m3X5CHIobr2FYb6voatGbq0xmVvHiOoC3H++y+xPuoaXwxXQ42ChN0Ii9AXW08Y9cqN6gIk7A5DxIkb+h1/B39/vqlJ+bUorP/iO5y+8w8phvlY1lJzXjBQhNhP38OKaAv4dLE3q9Dli+HGImiOgA82YcuWLdpX5LZ9iInbivGWsQhZvk9/Es+jRjlqI5LPLNdv/X2Ung3B+JnH0OqDozh7eC0Wz5qOt+euwHe/HMVHHZMQMmUZzvw7PiSoG+UobEw+g+V9pfodDx8quI07BYaE97+yNw8Pz/+YvyHf8Dwe1JwXKlH9iTt2Y7AucjGea6rfx8G/vBguR8ahJRjl5wylVAy5fUe8/OEBZNTxhvJhIbTriz4+Yvx15Q/ttvr2z/hk/PPwdLCE2EIEmZ0H+r4ZiVTtjeNc7JraC0Hz5mNEe1tY2vrgvRNFHNeYwpTMatz++ROMf94TDpZiWIhksPPoizcjU1HRbFHyFkx/wQO2Mgms3fth3tHbMNwv4L7eOHnY81YvvBq6EQsHecBGKoXStRcmh59lR/SosxG9Igh+ra0gYe3atxuAmd+lwvCgQRGSt0zHCx62kEms4d5vHo7eNowsb89b6NF/kX6LSw5G6TXsXzAMPk81gVgkh0P7AMzceoH1oqPowDvo0XUs1l8x5SyF+HHNeiS1nIDgWX6oFnMyb7wVugzvjPaGVKscM3RXlIwt01+Ah60MEmt39Jt3FFVEbLBPaHTT69VQbFw4CB42UkiVrug1ORxnDcpHdvQKBPm1hpWEtWvfDgNmfofUSuWb1j3rAG/16I9FMfqqn0MOLt3XRJ0ViTdeW4+LJWmIGNsT4zel17K3OjsaK4L80NpKApHMHu0GzMR3FQJoxtdrLFZ+uwwjn3aEQiyFrWcA5u7PQKV1Of2vBurb2P5GTwxeHofK9zrl5/Hp8J6Y9M2f2k2t3seuxLfLRuJpRwXEUlt4BszF/ooExNr4+ZPxeN7TAZZiCzZuO3j0fRORHAYtzziEJaP84KyUQiy3R8eXP8QBfZvm+Ajl/orgQE/YSCSwcnmOxWE88vXHuPVgOqeatEPuLkztFYR580egva0lbH3ew4mi+ueUwuMfol+Pidhc9W5Q6RmEBvbClO3Z+h014fJxburUuxm+wNV/7q6p6BU0D/NHtIetpS183jthRtyW4tr+BRjm8xSaiEWQO7RHwMytuFBXIOnhyo0mbWgGj3u+aRD/xFjm1HMjYtlo3VLQsPqAI+fknfkS43u2hb2lhNnXCb4jgxF1S210Xqi0Q4demBD8Ecb6tDDLDlroX0xJ/BLya2JNPpPX0tG4s3Q8fCJ1tlTSgLCr+jMaR/GJt8hN4kmzfi3R79GTf4Kme4jJ9j/fsY0c2hHkSLK2o+nzI3GUlHSa9n88jFzEShq25S6R6hat6SchocKbXt8SS7E7d1DM7dumrzGBSZlzdlCQo4zajv6cjsQlUdLp/fTxMBcSK4eRttmC4/S2h5SaPfcufRN9iqIj51BvRxEJxD1pRVo59/V1kkPhAVKSyJrR05O+oqMnf6at8/qQo9iJ/m+v5sIySlrhT0qbLvT6mkN0Ov4kfb90CLkq2tAbh+5pWyg4/jZ5SJvRc+9+Q9GnoilyTm9yFAlI3HOF9nhOeADJHMZr/+aUgwopdk5nUlg/TZO+OEgnT0fRppk9yV7iQhP33iYVO6P4l89o8qSFtPeGZqsOSk7TnA5ish+3h7XIAafuCuj42x4kbfYcvftNNJ2KjqQ5vR1JJBBTzxVpmgYa7BMa3UglMmr29CT66uhJ+nnrPOrjKCan/9tLWu0nrSB/pQ11eX0NHTodTye/X0pDXBXU5o1DpNE+l+5ZBxQgc6Dx+x5ozuaQg1v3tcg/T3uDNbK2piELw2lvwr3q9i5LohX+SrLp8jqtOXSa4k9+T0uHuJKizRukdR/t+GTUxPUFmrclmuKY7oMDniJxiwm0L1/bAKf/1UJ1gz7vIyeXqceoWL+LSn6hdzzkejl1epfJmpDrC/NoS3Qcnd4fTAFPianFhH264zuCyFHWlkZ/foTikpLY8Y9pmIuYlMO2aO1ilJJ4WuLXhKx9JtPao3F09ng4TexsScoBYXS13LxcI7CwId+p6ynqVIw2DpuLXWjygVzWOLceTOYXDjuobq2hfhIhKbxfpy2xsbRzRwzdvt2AnJK7nUY1k1OP5RdJE80aNLnYvUkf+uxqxZ7qmPZxFd34vA/JXabqzzaCKb2XcvsCV/+31vQjiVBB3q9vodjYnbQj5jZn3BbGzqHOCmuWU7+ggydPU9SmmdTTXkIuE/fS7brSFldu5IqlKn5fF499vjHCgwMTyVHyDC1MLNPvqc4/L5a59dyYWDZat1zc1oD6gCPnlP1G7zOdtBsfTsfjk+n3I5/QMCcJtZp8iAqMzQsNsYOef3ExXELR091J6vUBna2sVQvoWPAYmvTlGf1249AWw+Jm1H38bJozZw57vUfvThtPAe2VJFL2oCW/sWBVZdOZrasp4ucqgVcSQzPayujZ4AtUrnUqKcn6hVFmxQlc1+h31ca0zKrsM7R1dQT9XCVTlsTMoLayZyn4Qjnl7x5L9nJ/+kRbMGpQUea6l8hKokuUXNfXja4YlnYNoZTKprNoQ6CSrF7eSNlFUTTFWUbdQg2Tm+aayBG2ZDU4gm5TPu0ea09y/0/IMLRMWveSFUmMFMNcclD+TnrVTk7dQ1MN/bHxbBqsJEXfL+i6QTzTPDhAk1qIqf17p5nmTcOpu/zdNNZeTv6fpFWOSZW5jl6ykuiSeoN9QqcbqbQrhRiUT1kbAklp9TJtzC6iqCnOJOsWSherNJITOYJsrQZTxG1u3VebnLjkaKDuy84voi5yL/rwd91kVNXexVFTyFnWjUKrC0AjbK1ocMRt3fikEvJfda1SdyXR08m9QvfFXP5nBDOLYanEn1Zdq+xVG5+yZ4PZ3yrKPrOVVkf8XKVwKaGYGW21x+sKJ+24pV70gSHAqeBYMI2Z9CWdKTIz1zz3MV2qaF9vS+Wwb+gupx5M5xcuO2iLYamM+oVlVo6vYTnlL9o7vgVJuyyi81p3KKSf3nAm64C1ZPy9azGHj3MXw6b1zuUL3P1rimGprB+FVU4Cev+pM27zaOerdiTvHkqplW2y45sGk1LRl76oI5C4ciNnLJlbDD/m+aYmpovhf2Asc/pc42JZVwxXr1saFMtcOefBbgqybUq9gn+n+9pmyyn9p3UUti+ZVQU154WG2aGCf+9jEupcpFzIhPUzfugo0e+DJfp+EIkNb/rptx8Gpbib8QcuX77MXn8g/Q7g/spS7Dv9Iz58VgYIHeA3ahx883YjdM5UvDa8H3w7DEFYmgpqtVr/8ZQANs7OsK2whlnXGIFDZqGDH0aN80Xe7lDMmfoahvfzRYchYUhTqVm7ZUhPTkV+Sx/4trbQXyuEQ49uaCvSb5m8vs5R6bGAq39vtKls2gHd/Nqg9GIyUjMSkHSzHBfXDod3p07opH09j0WxRXhwOQVpRelITs1HSx9fGIbmgB7d2kI/tCqUc8pRfjUJFwtbo3svNzYqPaw9/54doLp0HhfK9Pu4EFhCIWceUFys31E3XLorT2d6yG8JH9/WlWMSOvRAN4PyG+YTeixc/dHboHw4dPNDm9KLTK8ZSEi6ifKLazHcu0L3nfD8olgUPbiMlIt/1EP3TLcccjw03VeiQlZCEm6WX8Ta4d6V4+/0/CLEFj3A5ZQ03UfXAiXc2jhWPhcmVCrRVFCO0lKCKovD/yo/+64/AqUb2jhW9gqlsikE5ZoGmQ38RmGcbx52h87B1NeGo59vBwwJS4OK2dN4OKmRm3IBmdbPwM8Q4LDs+wEiN7wJP7k5PmIB52494VLFll2fdUdxahJS0zn0UGwqv3Qx0w42cHa2NdihQTmlKfqPDoRD0i58F18OFEZj+4G/0HvUULQwNqOpskz7OKeBOfTO9eiqmf0LbJzhXDkJ6Kgzbi/8gaSLhWjdvRfcDIEEB/+e6KC6hPNGA4krN5oZS2bw7803xvjnxfLlBxw+d/lW42O5Rt3SkFjmzL3CPnhtnBPOzffFU6280X/cXOzJ98PIQR3RRN+GgYbYwYAx//qXUIZyFRPQQsxM9ggRtMDg4O34uIfBoauhzsLOib0wbvsDdPD3R5fO/pgw4mWc+mAOLulP0TiVhYXIME6zrjGGaZnVWTsxsdc4bH/QAf7+XdDZfwJGvHwKH8zRtVquYhcLRdWcQiCTQapvjOt60wggk8uZuxqwELEoJuakJSUsuKzQJWg2xrevTFlahE3bwV1UjiPaoVUbGWQyqVE5ueRAqYpNCyKIq3k/s4GmfRY0Ko6gqUTcHp08xFifkow76ufRssZErErfjZB1f8LvjbfQX/y9ad0xw6mYdqqLKIPMoPwG+oQOgUwOeXXls1RKTNwSlLDMZtUlCLPHtzdMGBqETdHOnXCgHrrnlONh6b4KJToBEDR7PKq7jxBN27mz3pJZFxYsxvS79VSOn9P/9BtGqD5cTcKtvkfAOq3eYkWvamTtnIhe47bjQQd/+HfpDP8JI/DyqQ9gKpzKdAEOsTHlm+kjYom4WhyKRJotAnHqoQxx2u6N5xduOyTo7CAyXN3QnKLoE4ShrTdj97bTmOW/A4dL+uOTwc2ryWWAy8eZgfVfVFAXJvWup25fMKN/rWosUEU1WuqO21Ko2PsAUfVAYm1o8h7ru45A4sqN3DY0r3r8N+eb2vwDY5nT5winGhXLGsVVr1saFMucOccGDp+dQvxL2/Dt7oP46fgGvPftaqwcuhYxTOdO+nN1NMwOFRjPHf8GhHZwcbJCbtol3KpcZ1GO1A1TMGbhAf32o0d9YyfWbM9B39VxOPvjNqxfuQDTApuj7C82KBaMxmjINVpMyrwfN3auwfacvlgddxY/bluPlQumIbB5GXTNiuDc1hXSmxeQkmvoo+TSZVzXfneLmuN67ekmUCHj4kUU6Lc035OYnHwVFm6eaNfaFU6KQhRZd0fQuHEYp32NwQAfd3h6tYGtxBltXaW4eSEFhqGV4NLl60y6mnDJwc5wZv2JbrD+7zGpKijC+aQ/gFYucBXrd3EhtMdLw56H9FQkNqew5FGNEiREhGDplwfwByv4uXQncm4LV+lNXEjJNYyp5BIu6wfdYJ/Qo8q4iIsG5aMgORlXLdzg2a41XJ0UKCyyRvegCt2Pw5gBPnD39EIbB9d66J5bjgbrXmB0KmRYoIWrExSFRbDuHlQ5/nFjBsDH3RNebQx3IevCogWH/xltQFNcE0pLHminBS2lt3Arh9sWWtQ3sHPNduT0XY24sz9i2/qVWDAtEM3L/mJ60fwzhhB2Lk6wyk3DJUOAozx1A6aMWYj957ab4SMqZF7+o0oc5iMpKR0iVw94cMWhyFR+OdwAOzQip0h74NXhbrh+MBIrI48AL72KQbb6YzWxaGHax40buAqm9X7gpqYoMOELjei/zrht78baFOEG275XRU9F55PwB1rBxWggceXGxsdSBY99vqkP/8BYdpdy+Fwz+39ELHPlXuW9OGxbvQu3npmExeF7cSotE+dXPY+CQ5E4qBl41XmhQXYwYK5vP4Yo0Gf0UDie/gLzNqcgn1kjP2UzFi39Gufyrdnxclw6HI51u85WCbpHgEjM3u2X4k56Ou6zflR3z2Hj9MX44T6L2ZI6Pl5vyDVaTMusuYsgKL2D9PT7zDFUuHtuI6Yv/gH3Ne8iWbM2A9k7OZvjWPb2JiTmqVB8/Qd8uGgHKr5nnOt60xDuHQjBnJ2XUaQqxKXts7B4nwAB44aiuU0Axg6zx9lP30TIsUzWmgp3Tq/ChBd7Y2hwLAphg4HsHZ7N8WV4e1Mi8lTFuP7Dh1i046ZRB+eSA3aBGDtIgaiQaQiPy2WeUIQr38/Bwp2F6Db6FXiyN6jllw4jfN0unDXpHEK0HrsQMzqlYOkrY7HyyGWmc7a7JBO/fPl/GLPyItpNXYAJLhbcurMZyN752+D4srexKTEPquLr+OHDRdhhUH4DfUIH3TuAkDk7cblIhcJL2zFr8T4IAsZhaHMbBIwdBvuzn+LNkGPILGFt3zmNVRNeRO+hwYgtrJ/uOeUwQ/fGEEikkFAB7t+vPSVaB4zFMPuz+PTNEBzTCYDTqybgxd5DERxbqD/LBNZc/mcEoRLOzjbIObED+9NZnyUZOLJkFQ7nmXurSXO3SoDSO+lI1xkU5zZOx2KdQev8FgtFn9EY6ngaX8zbjBTmbOr8FGxetBRfn8uHtZ3UDB8h3D8Yivf3pqNYXYALke9g8QExBo4bjGaccWg6vzTEDg3PKRI8++oraHd1E1b+IMHA0f2rf5tLNaw5fFx/mglM692Wwxca3n/dcWuPwLGDoIgKwbTwOOSysCi68j3mLNyJwm6j8UodgcSVGxsdS3oep3xjXq5nUDFy01ORkpJieF24iMz8f2AsC7l87h8Syxy594HgCvYunYbpSw4hgw0D5X8h88+7KLV1gpO1sMa80DA7VKJ/dvjfiSqXYkMHkYvcgiQKOYmFcnIZtJx+1ayGpHz6erCUxJWLMOpPnd8mURXVXYqa15VsRUKSWDYhmcSWvMeE0NwAJSmHRFB2meZBdDm1ev2IYfEF1zWG59NrY0Jm1d0omtfVlkRCCVk2kZHE1pvGhMylAKWShkRkk4r9y4leTP1byUgolpBYbEfdxg+jTgr9AjrO6+tCs4BORjZdB5J/C9auRExCaUvqPfcgZekvUuXEUEigG1kKmcwyKYkEMmrVbwFFVQiryqHoxf2plUyovV5s143GD+tECiML6NjJJuXQnnEriha+6ERygQXJFKw/WUvyn7Gbrul9If/rwSQVd6FFZjiHKiuKlgzrQEqxgCykTchSYkEWTd3ppQ9+oOv6h/bN0Z0qJ5oW929FMqGYJGIx2XUbT8M6KfQL6BruE1rd2HSlgf4tWLtMH0Iptew9lw4alE8xIYHkZikkoURGUpGAZK360YIovU05dF9tQQvDpBya4xy6N8qDEzTDQ8r025Q6z4qpbe+YEAp0syQh069MKiKBrBX1WxCl04tmfPIWNOmgbnwayhIWkI/chxYk6Drl9D8jlCSvpeFuchKKZKSQKcglcD5Nfc6y2gI6eYtJZOi2jBIW+JDcZwH7W0V3o+ZRV1sR07klNZFJyNZ7DIXMDSClcghF1NmvinJjQ2mQi5wsJAqSi4UkdxlEy3UBbkauUVDbweOpTwspyWQsDsWO5P/+EbpZ6QpccWgqp5q2g3YBnbwVvX6kMtM1IqcwypJpybMSErlNo+MG0xrHpI+b8W0SpvTO4PIFrv41C+jkrV6nKqoxI25vUdTCF8lJzvIO61PK+m7pP4N2mwwkrtzIEUtmLqB7nPKNObleu4BOqL3xX/0lUNKrO/P/kbHMreeGx7LG92rWLQ2NZdM5p4zSvp1EXko2p8qakpWc+YO9H03bla5bcFdtXohuoB10CDT/YUb9V1OeewUJKVlQObSDj6c96ni69xHC3nVdT0Ti9WIo23ij01MK/X5TNOQaA3XKrM7H9cREXC9Woo13JxhttjgbqYlpKLTviGfclNU/PjDn+lrcxfqXWmNhy11I+6wTLp2/CambNzo4yvTHK1AhL/08kjMKIG3ZEV7utrVsVZydisS0Qth3fAZuSo4PNkzJoaUcuWkJuJANOLbzQhu7xnlGyZ3LSLp0E0UWdnDv3AEtm9To0SzdFSM7NRFphfbo+IwbqovYMJ+4u/4ltF7YErvSPkOnS+dxU+oG7w6OqKX9vHScT85AgbQlOnq5w7aGOuqle5NyaKi/7tX56YhP/BPqll541lXz6U4NVHlIP5+MjAIpWnb0gntNATjh9r9alN7BpfhLuNe0LXw6NEd9fwZAnX8diYnXUaxsA+9OT8HsKC/PxZWEFGSpHNDOxxP2lQM1z0fUBdcRn5AJsdvT8Kp1DrceTObU+tqhQTmFob6Nr4e3x8eeBxG/vBu3rRhcPs5JnXpnmOEL9enf3Lgtz01Dgi6Q4NXGziw9cObGRsTSvyXf1Jd/Zixz6/kfEcscOUddkImUpCu4L7SHh3d7NK/iTDXnhYba4Ykohnn+1xiK4asbBtZKijyPlsrJ6eoGDOSVz/MvQPOB9oP4YAzofxCDYn7BvA51PF/zGPO4xi2fb3geR7jebvHwPAQEEAgtIBSw/+v38Px9CARCWAiZ7nnl8/wbKI/Dgi5WsPX7GMX/DcXUf2EhrOFxjVs+3/A8jvB3hnl4eHh4HiNUyLt+AdeKHdHhf/LYGw8Pz78Nvhjm4eHh4eHh4eF5YuEfk+Dh4eHh4eHh4Xli4YthHh4eHh4eHh6eJxa+GObh4eHh4eHh4Xli4YthHh4eHh4eHh6eJxa+GG4UKmQcXIyxA/zxXN+J2JBq7NfT//eoru1DyOzVOHGX4+cmHwPyYsMw+6Nd+q1GUp6CrQvewfsbf0O+ftfjhQrX9oVg9uoT+u2HTR5iw2bjo12XtVtFp9Zh9vyt2r8fDiXISErFo3XL6jp6+DKYT519q65jf+i7bIzHcfth60J1DftCZmP1ibv6Hf9EVPjz4HK8O+sTHMn6+3KUKuMgFo8dAP/n+mLihlQ0PHsX4dS62Vi4rTFtmEM94z0vFmGzP8Kuyyr9jr+D+sXbw5+bVLi+PxTvzJiBGcZesz5HtPZnl6vntieKeuaEhzrnmkO18elia/7WFN2xWjy8OZAvhhtD0QHMn7gUv4h6YNjQ/ujs+M9UpyorBpvDduLs/cf9i0PUKEjYjbCIh1P85e4Nxeywc1D6eqOpft/jhQpZMZsRtvOsfvshoy5Awu4wRJy4od0szfgNh39K1P7deFgS+2oofF/bioxHXAxX1dHDlaF+1NV38cnVeC8kCuT1DBwedgpRZSFmcxh2nr2v3/EPpDQOYXOCcaTUC35/Ww4twoH5E7H0FxF6DBuK/p0dGzEZPkDy3jCsj7r2yIvh+sS7uiABu8MicOLG33mTpn7x9vDnJhVu/vINvtz0Ey7euYu7d2u+/sIDzXuDGrntiaJeOeHhzrlmUW18pcj47TB+SszWHavFw5sD+WK4Eajzs5CV3wIvzVyMd6e/iq42vDofH4pxvcAFb0Vsxrve9f0R3ScT5aiNSD6zXL/VWAgFt++g4O+7Eajl4cpQP4z3rcKN2zYYtTYSwX2U+n1PFqrMbFiPWIOty/rD9u9Koep8ZGXlo8VLM7H43el4tasNPxk+Av5X8SZo9gLmbNqCLVtqvCI+xEv2vKUfH5QYtTEZZ5b31W8/OnivaCDliavwysAViCvNxp5pPdD9rT3IY+9iru1fgGE+T6GJWAS5Q3sEzNyKC0W6a3J3TUWvoHmYP6I9bC1t4fPeCeTteQu9xi5DxKKh6NhMBollK3Sf8h1SkyMxpZczmkoksPEYhKUx93SNqG/j50/G43lPB1iKLSCS2cGj75uITC3RHWcUJW/B9Bc8YCuTwNq9H+Ydvc1KjwrUuP3zJxj/vCccLMWwEMlg59EXb0amwtBCTfKw561eeDV0IxYO8oCNVAqlay9MDj/LjugpvYb9C4bB56kmEIvkcGgfgJlbL0AvulHZjaNGdvQKBPm1hpVEBJl9OwyYyfRRrD/MRd4evNVrLFZ+uwwjn3aEQiyFrWcA5u7PYGWHRn3b8UbPwVgeJ4TPhGDMHewCOv8phvechG/+1H18ppF17LIILBraEc2YDi1bdceU71KRHDkFvZybQiKxgcegpYi5p6/k1NmIXhEEv9ZWkDB92rcbgJns/IohG5fdtK8YpwjJW6bjBQ9byCTWcO83D0dvV7+jos6OxoogP7S2kjDfsEe7ATPxHYfyyjMOYckoPzgrpRDL7dHx5Q9xIKP2R6saX+3Rf5F+i6Mvk3ZQIyvyDby2/iJK0iIwtud4bEpn/XHo0TxM66iaDLm7MLVXEObNH4H2tpaw9XkPJ4q4/c+kvsozcGjJKPg5KyEVy2Hf8WV8eEDnezX1V3ptPxYM84X/+I+wdPIL8AmYia0VDsDhx3VSlIwt01+Ahy3LJdbu6DfvKKq5SIN0bFonuhy2Et8uG4mnHRUQS23hGTAX+7U6uY8Ds3rDf+Z+6DOYloIf56Jv73ewn+1U3UxCTNRvuFKqP8iRS2pSePxD9OsxEZurfsRQegahgb0wZbuRO0rliVj1ykCsiCtF9p5p6NH9LexhiYwrdrjihO6dxvJXvNFcLoHU1hP9Z30PjVtrMSNv1+bRxLsBM/I6p7/UI94YpucmRj1t/2gpR8ahJRjl5wylVAy5fUe8/OEBaExumEcqnJadXW0e4bCNsdxzUxPzryJ040IM8rCBVKqEa6/JCD9baY2G6YcrJzRmztXmKdNj5vRRk+PT+GgP9F8Uo9/mjgldXvXBU03EEMkd0L5qXjWF5kc3eOqP6tYp2vbpa9RRYk/95nxFGw+nUm7sHOqssKanJ31BB0+epqhNM6mnvYRcJu6l2yoV3VrTjyRCBXm/voViY3fSjpjblBMeQGzSJOcBi2j3yXiKWTOSnMVWZOf0LP13XRT9dno3vddDSbLuy7T95uwIIkdZWxr9+RGKS0qi0/s/pmEuYlIO20J3NScUHKe3PaTU7Ll36ZvoUxQdOYd6O4pIIO5JK9LKNQ1QkKOM2o7+nI7EJVHS6f308TAXEiuH0RZtA8bIofAAKUlkzZhsX9HRkz/T1nl9yFHsRP+3V3NRIcXO6UwK66dp0hcH6eTpKNo0syfZS1xo4t7bpGL/jMlujLKkFeSvtKEur6+hQ6fj6eT3S2mIq4LavHGI7rF2bnzeh+QuU/VnGyEnnAJkMmri+gLN2xJNcUy+4ICnSNxiAu3LZ3a78Tn1kbvQ1GPF+guISn55hzzkev3oZRXLnWnAot10Mj6G1ox0JrGVHTk9+19aF/Ubnd79HvVQyqj7sovs/DJKWuFPSpsu9PqaQ3Q6/iR9v3QIuSra0BuH7rHjxmUvNOkrmlHVpuD42+QhbUbPvfsNRZ+Kpsg5vclRJCBxzxW6E8qSaIW/kmy6vE5rDp2m+JPf09IhrqRo8wZph2KMknha4teErH0m09qjcXT2eDhN7GxJygFhdLX0Bn3eR04uU49pT9X4qsxhvPZvzr447JB/fi8Fa/yu9RBaGL6XEu5x6dE8uHRUVQbVrTXUTyIkhffrtCU2lnbuiKGsRFP+xzClr/ISil/iR02sfWjy2qMUd/Y4hU/sTJbKARR2tby6/gpjaU5nBVk/PYm+OHiSTkdtopk97UniMpH2ahyAQ3/GKaDjb3uQtNlz9O430XQqOpLm9HYkkUBMPVekseMN07HpmNTrVNaEXF+YR1ui41hOCqaAp8TUYsI+dpT5/9dDyMaG5ZccbXOMe7TjVQdSBm6gm0zU4kOTqaV8AK3VpgSuXGKE3O00qpmceiy/SJoI1lB84i1yb9KHPmN6r4XqFp3a9im91lFC9v3m0FcbD1NqAYc/m7S7LmcILJpT7/ci6ef4s3R45RBqLW5Or+3VGYszbxuhsfFuLNdVhyuvc/tLfeKNc25qiO1rUUKnZrcjies0Ol6X2BpU1XObMUril5BfE2vymbyWjsadpePhE6mzpZIGhF3lnke4bGMk99y+zWJeKiFZMyb/V0fp5M9baV4fRxI7/R9pzdEg/XDlBK745phzNXnK1Jg55ySu8Wl8VEYO4zW5xIyY4MqrJuCL4UagyvqSXpC70jRt1OXTzlftSN49lFIr86+KsjYNJqWiL31xvUxbFEll/Sgs02AUTbKQSiqSAaP4KL3hJCbnN47SA+0O1saXL5CsxSTt39lnttLqiJ+rFEwlFDOjLcmeDaYLrIn83WPJXu5Pn1S0x67JXPcSWen7UGWfoa2rI+jnKo5REjOD2sqepWBNA0bRJU1p1xBKqWw2izYEKsnq5Y2UnbeTXrWTU/fQ1MrJSHN802AlKfp+Qdf1bwRqyl6bYoqa4kyybqF0scpQciJHkK3VYIpgYzarGGbB6b/qGpNcR0n0dHLXy2duMSxhwWUwyRvkJHamN47qLKKR7csXZNRi0gF2MIqmOMuoW6hhIta0ETnClqwGR5AmRdWWnctXjOkon3aPtSe5/yeV4yJVJq17yUo7Vg3FUVPIWdaNQqsrj0bYWtHgCONvPrS6kXrRB2dL9HtYwjkWTGMmfUlniuouhjn74rCDZqI9v6gLyb0+pN/L2CanHs2BW0dVZdBOSFIZ9QvL1I+Ry/849PVXNE13l5LXB2dZVOopOEbBYybRl2eKq/Wdv/NVspN3p1CDAzC32kSDlQrq+8V1UnHqzwj5u2msvZz8P0mr1KEqcx29ZCXRTSwN0jG3TnQ5zJ9WXascKUVPd9fmJC2sWB3toKTBm27pZLn7Lb1i14xe+VZXHVcrhvO5col+XzX+or3jW5C0yyI6r/ElVjT89IYzWQespRtGz2doY1hOrtOOMwk1qjHtzybtXqzPGc99bPC7kpM0y1NGvktS2AZ33q5N4+Pd3GK4zrxexOUv9Ys3rrmpYbavia4YFgnFJFMoSFHjZTNiCxs1g7MY1vmw1OsDMpi8gI4Fj6FJX57hnEc4bVMr9zC0MS+lriEphvjN2kCBSit6eWM2qRqiH66c0Ng5l2PMRVzzBOf4qhbD3P7GmVf1+4zBPybxsCi/iqSLhWjdvRfcLPT7IISDf090UF3C+Qtl2j0CG2c413gwTmDlDo+W+osECjSRi9DCuTXE2h1CKBRyCFSaRRCsPb9RGOebh92hczD1teHo59sBQ8LSoFKroaZypCenIr+lD3xbVwyCXdOjG9qK9FsOfhg1zhd5u0MxZ+prGN7PFx2GhCFNxa5XV/+4oToWcPXvjTaVzTqgm18blF5MxoU/knCxsDW693JjZ+lhx/17doDq0nnoRTcqezVUWUhIuonyi2sx3LsTOnXSvZ5fFIuiB5eRkmb4SMokAiXc2hgWxAiVSjQVlKO01JR8VRHAyt0DBpM0gVzUAs6tdRaBUAGFXABVuYoNOQFJN8txce1weOvH26nT81gUW4QHl1NQMeRqspvpK9UoT0dyaj5a+vjCYFoH9OjWFjrTqpCVkISb5Rexdrh3pe46Pb8IsUUPcDklDbW1p0ZuygVkWj8Dv44S/T7Asu8HiNzwJvzqfJTazL7qYQdz9WgSTh0ZQWADZ2db3Rg5/a/YpL58C1NwIdMaz/h1ROVRy774IHID3qymzHJcTbqIwtbd0cvgAGyo/ujZQYVL5y9A6wH19OPy9GSk5reEj2/ryjgUOvRAN33wN0jHZsakQOmGNpWL34RQKptCUK5v0GYgggZZ4uddPyCb5anbP+zAMclLbJ+d7ngVyq+al0uq0xT9RwfCIWkXvotnebIwGtsP/IXeo4aiRcWQTMLlz5dxizNOBFBWyRkQWsGqiQAlxQ80Gxx5W3dJNR5JvBuj7ryemsHhL0X1iTfuualhtjeOsMVwfPbjMRw7Vv11ZOkAKPTnmESdi5QLmbB+xg8Gk1ui7weR2PCmn367LszNj1VyTwUWrvDv3aZK/HaDX5tSXEy+jOIG6IcrJ5gb3yapc8ypyODQQxHX+KrCGRNm5tU6MCtV8JhDKSuOAJG4uhEFFiJmKJbwVLqMJ7CwgEig/bMSgVisL3wNCAQGYxpQI2vnRPj6/gcf7U5ArtQN/hMWY+FIp0pDlqtUzKqaPg0IZDJI9X2qs3Zioq8v/vPRbiTkSuHmPwGLF46EE6cnCCCTy6s5jIWIjZGYbKUq5oYiVBddwI6zHSzZ60U3Knt1SlDCYs+qSxBmz5mDORWvBSsRHhGK/7hX122dMN2xrqpRvdsasw8bI1XbJYCY2aQ6Ak2ztSkpYZa3Qpeg2YbxsteCleGICP0PKoZcXXbzfKU65dCZtuo1zCYyaaVsJTrlIWh2Fd3NWYCV4REI/Y97NZ+ooIwV9GB2FJu0S23M6ovTDlUwU4+m4dZRLTRjrDQMt/+Z1FcZ659JbmGGMkt1DlDdJmwsupBR6Ty0PvrToHlzxiK0uvgyyCqCv0E6Ni8mNf5dfahVR9oE/ccMge0vu7Av8yb27fgZTQOD8KK1/nBVzMwlNVH0CcLQ1pexe9tp5EbtwOGS/hg9uLnZExyXPxNnnOjHWAvNgLnzdm0eTbzXxkRe5/SX+sUb19zUUNsbRWIPj2e7oVu36i8/T3szfaJME07M5GKjsuioMaAq84jZ+bFWMSCDXF7NGhq3Y+ZQN0w/XDnhYcy5JsbMqQfO8VWF29/Myqt1YJ5f8HAjcoarkwg3kpNRsa5KQ9H5JPyBVnBxrVlcNQD1Dexcsx05fVcj7uyP2LZ+JRZMC0Tzsr80JRT7J4JzW1dIb15Aiva7FHWUXLqM68xHWAO4sXMNtuf0xeq4s/hx23qsXDANgc3L8Bc7XRNvdaNCxsWLKNBvgf2VnHwVFm6eaO/mCifRDbZ9j/VQQRHOJ/0BtHKB2aJbtGA6VKCwyBrdg8Zh3Djda8wAH7h7eqHNw1hqrpm0qRQlDwxhUXrrFnJMyl43Fi2Y7IpCFFl3R5B+vOPGjcEAH3d4erUxvjq+Ib7CrmnrKsXNCykwmLYEly5fZylCgwVauDpBUVgE6+5BlbobN2YAfNw94dWmxh0ILULYuTjBKjcNl24ZBlKeugFTxizEgZt1KaUhfdVGUCXfNUiPNeHUEQec/icyqa9DpU5wsspF2qVbhjgoT8WGKWOw8MBN/Q4NLE6Z/kQ3kpFc3QGgCxlXNCRbiJzbwlV6ExdScg39l1zCZV3wN0zHDykmZb3GYPhTp7F38ybs/KUZho7pA0v9saqInBuYS6Q98OpwN1w/GImVkUeAl17FIFv9MU64/LkZ7BsUJ3o487YRHkm8G6PuvN6uNYe/SOoTb1xzUyNs/ygQ2sHFyQq5aZdgMHk5UjdMwZiFB5j6Tc0jjbCNKgMXLxqsgQKWI65awM2zLWQN0A9XTngo8V3nmNuhNYceJFzjqwpnTDQur5oXLzxmYIfAsYOgiArBtPA45DLrFF35HnMW7kRht9F4xbPGLZ4GoXlXKEDpnXSk32fGVt3FuY3TsfiH+8wnSrQrfG0GTsAIm+NY9vYmJOapUHz9B3y4aAcq8rXmbqSg9A7S0+8z51Ph7rmNmL74B9xnTlVicvUo4d6BEMzZeRlFqkJc2j4Li/cJEDBuKJrbB2LsIAWiQqYhPC6XOWYRrnw/Bwt3FqLb6FdgvujWCBg7DPZnP8WbIceQWcJEvHMaqya8iN5DgxFbqD+tEQiVznC2ycGJHfuRztovyTiCJasOI8/UW0ZTWAdg7DB7nP30TYQcy2RaVOHO6VWY8GJvDA2OhfEhN8RXbDBwwgjYHF+GtzclIk9VjOs/fIhFO25WJhHrgLEYZn8Wn74ZgmM65eH0qgl4sfdQBNehPEWf0RjqeBpfzNuMlHw2MeenYPOipfj6XD6sTXxVYEP6qo4AEqkEVHAf9zWZzAw9Fl84gPDwPUiosri6Otw6Mg23/5nUV8sXMHqoI05/MQ+bU/LZm8t8pGxehKVfn0O+tY2+Dx12gWMxSBGFkGnhiNM5AL6fsxA7C7th9CuebDptADYDMWGEDY4vexubEvOgKr6OHz5chB0Vwd8gX31IMSnxw5iRrji5ciV+bT0CQd3reAbHrqG5RIJnX30F7a5uwsofJBg4un+9vjucy58bGic6uPN2bR5NvNfGRF634fKX+sUb19xkju3LLx1G+LpdOFuloDZKWR5uXExBSkqN14VU/JnHca0WBfqMHgrH019g3uYU5KvVyE/ZjEVLv8a5fGvOeaTBtqF7OBAyBzsvF0FVeAnbZy3GPkEAxg1tzurzBsQGV054GPFtYsw2XHrgHF9VuP2tUXlV/+wwTwOovoBOs+MWRS18kZzkArKQKUgqklFL/xm0+5pmVYduIZW81et0pMp6Bs0CA3mLSXRQvzaLSn6lWZ5y6r7sj8oHyu9vCiS5dhGCiu5GzaOutiISSiypiUxCtt5jKGRuACmVQygiW/N4uIpyohdT/1YyEoolJBbbUbfxw6iTQr+A7m4UzetqSyKhhCybyEhi601jQuZSgFJJQyKy63jAXPcQu03XgeTfgrUpEZNQ2pJ6zz1IWfoLVLeiaOGLTiQXWJBMISWRrCX5z9hNWtHrkN0oqhyKCQkkN0shk1HGdCggWat+tCBKMzYzF9DJW9CkSoUSlSUsIB+5Dy1I0AymhJLXDic3uZCNUcHG6kKB86fSc5ZVF9DJqcWkg/oFjBqTzCJPeXda9kelRWhToLxyhasqJ4ZCAt3IUigkiYzJLpBRq34LKEpvD6Oym/SVOmC6iV7cn1rJhFobiO260fhhnUihXzyg6SsnJoQC3SxJyOwrk4pIIGtF/RZEkXYoRlFRbmwoDXKRk4VEQXKxkOl3EC3/Vbscve5vk+Dqi9MORA9OzCAPqQVJm3amWTElHHokur12AEnFVe1gBA4dVZVBu4hF3oper2oYk/6nPaFufWmO5sZS6CAXkltISCFncSJ3oUHLfzV860IV/d2KWkgvOslJYCEjBdOfrKU/zdh9jbTaMUN/xlDlRNPi/q1IJhSTRCwmu27jaVgnReXKcS4dG4VDJ7VyGJMgYYEPyX0W6Ld1lF8Ioa5SMXVZmKiTUU/1b5Ng3ZnMJSYoS6Ylz0pI5DaNjhvUZpwaC+jYDo7YMWX32jlDM5aPusip8wdxbMOcvG2ERsa7eQvoOPI6l7/UI9604zUxN2nP4LB9/teDWQ7oQot0KyWNoF9Ap6nyjb0EljT820KNcji/TYIFM8WGDiIXuQVJFHISC9n5g5aTLtS55hEO2xjLPZqYl9lQ14H+1ILpUsJ8TNqyN809mMVa09GQ2ODKCabj24wFdCbHzBVXXOPT+WjFXMvlb5r+TOZVEwg0/2FOwvMQKc9NQ8KFbMCxHbza2BkW0zwk1PnXkZh4HcXKNvDu9JTxBQHF2UhNTEOhfUc846as/hGAOh/XExNxvViJNt6d8BTnioK7WP9SayxsuQtpn3XCpfM3IXXzRgdHmf54BeXITUuATnQvtLFruOSqvHScT85AgbQlOnq5w/YhK7H0ziXEX7qHpm190KH5w/jRDRXy0s8jOaMA0pYd4eVua5bdG+IrxdmpSEwrhH3HZ+CmNHJXSpWH9PPJyCiQomVHL7ibo7zyXFxJSEGWygHtfDxhb66+G9JXJWrkp8cj8U81Wnp1gau1RhYTelTfxrrh/wXW7cH/a276bhynjjjg9D+T+mJxcCUBKVkqOLTzgacpZbJ20hIuIBuOaOfVBo0ImSoUIzs1EWmF9uj4jBtqi98wX33UMVmdBuQS5h9fD2+Pjz0PIn55t4blXS5/bmicMMzK20Z4JPGuxdy8zu0v9Yo3U3OTloc3jzwMynOvICElCyqHdvDxtK8mO+c8Uh/b3F2Pl1ovRMtdafis0yWcvymFm3cH1DJHg/TDlRMaGN/mjplTD9zjqwqnvzUgr/LFMI8ZGJLm1Q0DUSs2eXj+BopPLUJQRDusXjsarTmSJc+TheZj0gfxwRjQ/yAGxfyCeR0a9KDJEwaf1/9RVBaWV7Fh4GNijcdxzHXATyk8ZiCAQGgBoYD9X7+Hh+fvRtZ1AXaF84UwTw3K47CgixVs/T5G8X9DMZUvhM2Ez+v/KJgdhBZC9r/HyBqP45jrgL8zzMPDw8PzGKNC3vULuFbsiA41Psbm4eHhMQe+GObh4eHh4eHh4Xli4T9w5OHh4eHh4eHheWLhi2EeHh4eHh4eHp4nFr4Y5uHh4eHh4eHheWLhi+EnmKJT6zB7/lb91sMkD7Fhs/HRrsv6bUD150Esf3cWPjmSpd/D02BU17AvZDZWn7ir31E/8mLDMPujXfothupPHFz+LmZ9cgRZ5vw4E0/DKDqFdbPnY2uK5if3GKoMHFw8FgP8n0PfiWH4bs1szN+aojv2D6OWzzSU8hRsXfAO3t/4G/L1ux4fVLi2LwSzV5/Qb3OQF4uw2R9h12WVfsfDoAQZSam4WxmnKvx5cDnenfUJjjQyeB+ajR8a1fXNNV+pru1DyOzVOGFQziPjn6er6pRkJCG1Qg81804NGq23Rs5H/xT4YvgJpjTjNxz+KVG/9RBRFyBhdxgiTtzQ7yhFXNgcBB8phZefo34fT4NRZSFmcxh2nr2v31Ef1ChI2I2wCMOEXhoXhjnBR1Dq5QdHPiM8Okoz8Nvhn5CYrSuOig7Mx8Slv0DUYxiG9vdE0dnD+CkxW3vsn0Vtn2kouXtDMTvsHJS+3vX6ueR/BipkxWxG2M6z+m3TqAsSsDssAiduGC9C6g8rDr8aCt/XtiKjom4pjUPYnGAcKfWCX6OC9+HZ+OFRXd9c85UqKwabw3bi7P1H/Z0A/0RdGVBd+wpDfV/D1gonqZF3atJovTVqPvrnwE99TzDKURuRfGa5fusRospEtvUIrNm6DP1teZf7Z6FCZrY1RqzZimX9bfmE8ChRjsLG5DNY3lfzS1Vq5GdlIb/FS5i5+F1Mf7UfJm1KxpnlfXXn/ispxvUCF7wVsRnvej+MX3180iAU3L6Dgio38FSZ2bAesQZbl/XHvz21/m3z1WMOFdzGnapOUi3v8NQFP/c1hrwz+HJ8T7S1t4REYg0n35EIjrrFpjkdpdf2Y8EwHzzVRAyR3AHtA2Zi64Ui3cG8PXir11is/HYZRj7tCIVYClvPAMzdn8HKk9rcPzALvf1nYv89/Q4NBT9ibt/eeEezU30bP38yHs97OsBSbAGRzA4efd9EZGqJ9tTcXVPRK2ge5o9oD1tLW/i8d4IN4S306L9Ie5zrejZgnPlyPHq2tYelRAJrJ1+MDI7CrSoxVyeqm0iKicJvV0q1m5p+e41diW+XjcTTjgqIpbbwDJiL/RkVkquRHb0CQX6tYSURQWbfDgNmfofUYv1hdvz2z59g/POecLAUw0Ikg51HX7wZmQrdaBsxVi2m++cef23KMw5hySg/OCulEMvt0fHlD3FAf7769s/4ZPzz8HSwhNiC9Wfngb5vRqJS9UXJ2DL9BXjYyiCxdke/eUdxu+qbeE7bmUKFm0kxiPrtCrTWMccv1dmIXhEEv9ZWkDDd27cbgJnfpbJSR3+YS56acMSROjsaK4L80NpKwmSzR7sBM/GdwRlqwXV+3pkvMb5nW9hbSpg+neA7MhhReufQ2vbVUGxcOAgeNlJIla7oNTkcZ/O0hxlcvmnC1hrd9uiPRTFFSFz1CgauiENp9h5M69Edb+3JwJ63eqD/opiKVpBxaAlG+TlDKRVDbt8RL394ADqX4fb/PW/1wtiV32LZyKfhqBBDauuJgLn79dcbgcOmJuHwGfXt7Xij52AsjxPCZ0Iw5g52AZ3/FMN7TsI3fzK9669fFrEIQzs2g0xiiVbdpzCbJSNySi84N2V2svHAoKUxuGdwCpPjNZbvWELG/gXD4PNUE4hFcji0D8DMrRegz8hGKELylul4wcOWjcka7v3m4Wj1wOP0BVOYjpNc7JraC0Hz5mNEe1tY2j6Nqe9PxmvrL6IkLQJje47HpnQVS61JiIn6DfrUqnE+HFoyCn7OSkjFcth3fBkfHtDYgfnM9jfQc/ByxFWcy3zs/KfD0XPSN/rt6picv2qh87lXQzdi4SAP2EilULr2wuTws+yIHk4fM63vavMVoyh5C6a/4AFbGcvx7v0w7+ht9nbBQH3GX3j8Q/TrMRGbK2+5M0rPIDSwF6Zs5/q0hisejVCnnRgc+dzU/KPOisQbr63HxZI0RIztifGb0nXxpc07OsNz6a3R89HjiuZ7hnkaQhn99n5nsmw3nsKPx1Py70fok2FOJGk1mQ4VsMOFsTSns4Ksn55EXxw8SaejNtHMnvYkcZlIe2+riHLCKUAmoyauL9C8LdEUd3o/BQc8ReIWE2hfvq6HqqhufU1DbGxo2JYc/R6iezteJQdlIG24qaKcHUHkKGtLoz8/QnFJSXR6/8c0zEVMymFb6C6p6NaafiQRKsj79S0UG7uTdsTcZkMIIJnDeG1bpq9n0v72PnW2bEfjw49TfPLvdOSTYeQkaUWTtcLWQHWDPu8jJ5epx3TbxYdocks5DVh7W7up7VfWhFxfmEdbouNYX8EU8JSYWkzYpz1elrSC/JU21OX1NXTodDyd/H4pDXFVUJs3DtE9bQM7KMhRRm1Hf05H4pIoienu42EuJFYOoy1ssPUaqxG4+ucafy1K4mmJXxOy9plMa4/G0dnj4TSxsyUpB4TR1fIc2hHkSLK2o+nzI3GUlHSa9n88jFzESmZrjeYL6PjbHiRt9hy9+000nYqOpDm9HUkkEFPPFWna5rlsVx0V3fi8D8ldpuq3i+nQ5JYkH7CWtNbh9MsySlrhT0qbLvT6mkN0Ov4kfb90CLkq2tAbh7Ta4ZCnJhxxVJZEK/yVZNPldVpz6DTFn/yelg5xJUWbN0jbXU24zi/7jd5num83PpyOxyfT70c+oWFOEmo1+RDTtM62UomMmrG4/eroSfp56zzq4ygmp//bq4sDLt80ZetsjW4daPy+Qrp1aht9+lpHktj3ozlfbaTDqZkUHiAjh/E6HyqJX0J+TazJZ/JaOhp3lo6HT2Q+raQBYVc1Bjfp/xobaNqSNXGlF+Ztoeg4ZoPgAHpK3IImGEsunDat6TM14PAZ1Y3PqY/chaYeK9ZfwOT75R3ykPekFWnluuulYpI7D6BFu09SfMwaGuksJis7J3r2v+so6rfTtPu9HqSUdadlF9n5Zoy3dr5Lp9g5nUlh/TRN+uIgnTwdRZtm9iR7iQtN3HubXVGbguNvk4e0GT337jcUfSqaIuf0JkeRgMQ9V2iPc/mCMbkNcMSJ6hat6SchocKbXt8SS7E7d9CR6O8pWGPn1kNoYfheSmCdFB+aTC3lA0iXWksofokfNbH2oclrj1Lc2eMUPpHFlnIAhV0trbShYTgl9Ms7HiTXylPDxlzzVy00PicliawZPT3pKzp68mfaOq8POYqd6P/2aiOHw2bc+q46X7GT6W0PKTV77l36JvoURUfOod6OIhKI9T5V3/HnbqdRzeTUY/lF0niYhuITb5F7kz702dWKPRXU0BVnPNbElJ3KOfO5yfkn/zztDdb4UWsasjCc9mqcRBufmrzzgFtvnPmbez56XOGL4QbzgHYH2VLTXsH0+31dcJWn/0TrwvZRMpsA8ne+Snby7hSaaggkVdYmGqxUUN8vrpNKOwFIyH/VtcpEXBI9ndxlz1LwhZrBpyGXto92IOXgTXRLe8Fd+vYVO2r2yrfMfVWUfWYrrY74mQxxXkIxM9qS7NlgulCumxyksn4UlmlIBIbkwnU9k3Z3ENk27UXBv9/Xjbc8nX5aF0b7NMLWxIxiWCrxp1XXKjoroejp7tq+NMVZ1BRnknULJe28pycncgTZWg2mCNaEKvsMbV0dQT9XSWolMTOorV539RprLbj7Nz3+2mjtKvWiD86W6PewlHIsmMZM+pLOFGXTma2rKeLnKhNySQzNaCujZ4MvUHn+bhprLyf/T9Iqk7Qqcx29ZCXRJx9u21XHjGLYlF8WR9EUZxl1CzVMGuwiihxhS1aDI9gYOOTR7zJgOo6Ko6aQs6wbhVY3Bo2wtaLBGmPUgPP8B7spyLYp9Qr+nXTdlVP6T+sobF8yabxDa1tpVwpJqbheRVkbAklp9TJtzC7i9A2Tts6sMilp2v3yBZK7TqPj2uJEV8DqimGdP0m9PiBDMwV0LHgMTfryDKf/69pihYn/KjK4aDRNd9fZoBZcNq3lMzXg8BnzimGdP+v6L6ajbziR2PkNOqpRFUOV9SW9IGtBkw6wHWaMt1a+y99Jr9rJqXtoquEaVRZtGqwkRd8v6LpBlXryafdYe5L7f0LaGkGDKpPWvWRFEm1xZkaeMlUMc8WJthiWkqxfGBlSdhmdX9SF5F4f0u9luj3VimGtjaXk9cFZ5kF6Co5R8JhJ9OWZonoVw5zzl36fAZ3PSbuGkCF0smhDoJKsXt5I2UVcNuPSt8ZNDMVw/u6xZC/3p08MJ1PmupfISqLzqfqP/y/aO74FSbssovNa3RbST284k3XAWrpR6+TquuKOxxpw2Ikrn3PNP2XnF1EXuRd9WOEkVYphLr1x+iXnfPT4wj8m0WBk6PPaODidmw/fp1rBu/84zN2TD7+Rg9CxSTmuJl1EYevu6OVm+J18oYM/enZQ4dL5CyjT7BAo4dbGsfJZFaFSiaaCcpSWGvvMwQYDgwbB8udd+CFbDfXtH7DjmAQvsX12rAUHv1EY55uH3aFzMPW14ejn2wFDwtKgUrNz9c0JbJzhbPTBMu7rZX1ewzinc5jv+xRaeffHuLl7kO83EoM6NtG3UT8ESje0qVzwIYRS2RSC8lJoHsZPSLqJ8otrMdy7Ezp10r2eXxSLogeXkZJWyvToh1HjfJG3OxRzpr6G4f180WFIGNJUbKxssI0aqxn9a6hz/LVQIzflAjKtn4FfR8MPxVr2/QCRG96En9wBfqPGwTdvN0LnTMVrw/vBt8MQhKWpmCxqlKUnIzW/JXx8W6PCk4QOPdCtrahiyyzb1wsTfqnKSkDSzXJcXDsc3nrddOr0PBbFFuHB5RSklZuWp/ZwTMWRClkJSbhZfhFrh3tX2qLT84sQW/QAl1PSdI92VGLG+bI+eG2cE87N98VTrbzRf9xc7Mn3w8hBHVHhHRau/ujdplLbcOjmhzalF5GcmsHhG8WmbW3uI3vqXKRcyIT1M34wNGOJvh9EYsObfpz+r0MApVsbw4JIoRLKpgKUl9b2UU6bGnPrmtQrlxlBYAV3j5Z6HxdA0UQOUQtntBZrd0CoUEAuUKFcZf54q+a78qtJuFjYGt17uVXGEVMk/Ht2gOrSeVzQJuQqlKcze+ejpY8vWhsCDz26tYU28szME3XC2uKOEwFsnJ3NfhZYnZuCC5nWeMavo+EnqS374oPIDXjTbOfTYOb8VQsLuPr3hiF0HNDNrw1KL7IclsFhsyIOfVejHOnJqchv6QNfw8lw6NENurTYkPE3Rf/RgXBI2oXv4suBwmhsP/AXeo8aihYc+jcvHg2YtpPcvLnc7PmnKlx602w2dj56fDEzzHiMYTPgM5yKP4y1swLhWnAKG957BX4+I7HpqgqlKhZQInH1QBZYQMR2qNUqXbJj2xaGWNUi0P/fGE36j8EQ21+wa18mbu7bgZ+bBiLoRWt2RI2snRPh6/sffLQ7AblSN/hPWIyFI52qGVjAOhMZ7cCM620G4LNT8Ti8dhYCXQtwasN7eMXPByM3XTU8S1oPNGOpLnrFwEpQwmLaqksQZs+ZgzkVrwUrER4Riv+4i6DO2omJvr74z0e7kZArhZv/BCxeOBJOFYNt1Fi5+9dQ9/hrU6aZwUUWEBs7RZ2FnRN94fufj7A7IRdSN39MWLwQIyuEYdeqmBU0flOJQAaZtKIx82xfL0z5ZUkJK0Ct0CVotkE37LVgZTgiQv8DdyGHPEYwFUclOmMgaHYVW8xZgJXhEQj9j3utiZL7fBsM+OwU4g+vxaxAVxSc2oD3XvGDz8hNYN1pEcjkkFcdroWI2ZpY3HL7hklbm02ZtugTWYiNehWn/2sRMBuamVy4bFpTycbgzGU1igJNwVd1l0AMsb7wrUTAZND/WQ0zx1st35WyQppZX1xNFta+LiFDVatmKYeK2UBYPfAgk0n1cpmXJ+qEK+61aGwoqqFHE5SxMTMZLUw5Xy0zUM1dWsyav2rB9COXV8s7FiwWQKyI47QZl76rU647udr4BDIZKtJiQ8av6BOEoa0vY/e208iN2oHDJf0xenBzzjxqXjxWwaSdzJ/Lq8eGeV7CpbfGz0ePL1x25qkL9V3EbVuNXbeewaTF4dh7Kg2Z51fh+YJDiDyYA2dXJ4huJCO5csUHo+g8kv4AWrm4ombeNwtZL4wZ/hRO792MTTt/QbOhY9DHku1X38DONduR03c14s7+iG3rV2LBtEA0L/uLhZbmHwec16txN24bVu+6hWcmLUb43lNIyzyPVc8X4FDkwXosTDMDixZwdVKgsMga3YPGYdw43WvMAB+4e3qhjS1wY+cabM/pi9VxZ/HjtvVYuWAaApuX4S82Ds2710aNlbP/+oaMEHYuTrDKTcOlKp2Xp27AlDELsf/cdqzZnoO+q+Nw9sdtWL9yAaYFNkeZThiInNvCVXoTF1JyDXYsuYTL1/Vf19RY29cTixaucFIUosi6O4L0uhk3bgwG+LjD06sNlGxiMCVPLUzG0R20YHGkKCyCdfegSluMGzMAPu6e8GLOUN0aFpznM+fAttW7cOuZSVgcvhen0jJxftXzKDgUiYN6+6gyLuJigfZPLQXJybhq4QbPdq05fENk0tYHzA0UoR1cnKyQm3apir+WI3XDFIxZuJ/D//Wn1wMumzb6Wwo0EzeVouSBoQQpvXULOQ0Yq4aGjFfkzK4R3UBy8r0qMVGE87qEDNeaCVnkjLauUty8kILcygtKcOnydWYJRiPzhPpGPeNED3t/UCdCOxc4WeUi7ZJh8SlzPmyYMgYLD9zUvjmi0hIYzFCKW7dyjOQIUQPnLxUyLl6EIXQKmL6vwsLNE+1ac9hMwqHvarDxtXWF9OYFpBhOZmnxMnRpsYHjl/bAq8PdcP1gJFZGHgFeehWDWMowjbre8WjSTvvPNT6f1+kkXHrj9kvO+egxprFp7slFKMCVvUsxbfoSHMrQLLMsx1+Zf+JuqS2cnKxhFzgWgxRRCJkWjrhc5ihFV/D9nIXYWdgNo1/xNH7HgxMJ/MaMhOvJlVj5a2uMCOoO3YdfmjseApTeSUf6feaiqrs4t3E6Fv9wnzlqiRkrwrmuF0JwZS+WTpuOJYcyWIpi0v6ViT/vlsLWyQnWD9WLrBEwdhjsz36KN0OOIZN1prpzGqsmvIjeQ4MRW8hGKxZBUHoH6en3WUCqcPfcRkxf/APua+7WFHOPtfjCAYSH70FC5TLnqnD3X18UfUZjqONpfDFvM1LyWULLT8HmRUvx9bl8WNtJIRKU4k56OnSqP4eN0xdDp3pmOZuBmDDCBseXvY1NiXlQFV/HDx8uwo6bFamosbavJ9YBGDvMHmc/fRMhxzKZflW4c3oVJrzYG0ODY1GouRtjSp6acMSRdcBYDLM/i0/fDMExnTFwetUEvNh7KIKNGIPrfKHgCvYunYbpSw5B191fyPzzLkptneCkd2S6dwAhc3bicpEKhZe2Y9bifRAEjMPQ5jacvmHS1kpzA0WBPqOHwvH0F5i3OQX5bBLKT9mMRUu/xrl8aw7/1zdRH7hsqj+tob7QkDUAAEwLSURBVAiVznC2ycGJHfuRznRWknEES1YdRp7x24vcNGS8doEYO0iBqJBpCI/LZV5WhCvfz8HCnYXoNvoVeNZKyDYYOGEEbI4vw9ubEpGnKsb1Hz7Eoh039UVAI/NEfeNEiwASqQRUcB/3jdUeij4YPdQRp7+Yh80p+ax2yUfK5kVY+vU55FvbQensDJucE9ixP13jKcg4sgSrDucZvUvasPmLcO9ACObsvIwiVSEubZ+FxfsECBg3FM1tuGzGpe/q2AycgBE2x7Hs7U1IzFOh+PoP+HDRDlSkxYaNX4JnX30F7a5uwsofJBg4ur9Z34Vd73jksFNj87lAIoWECnDfiJNw6Y3TLznnI0b5JRwOX4ddZ3P1Ox4T9M8O8zSAsrRvaZKXkiwsZNTUSk5isT35TdtF6dony1V0K2ohvegkJwE7rpCKSNbSn2bsvkbax9o1D7XLW9Ckg/oVIoyyhAXkI/ehBQn6B9+NUX6BQrpKSdxlISVWnqaiu1HzqKutiIQSS2oik5Ct9xgKmRtASuUQisgu0y4okbd6nY5UWcthWJDAdb1KIyx9O8mLlBYWJGtqRXKxmOz9ptEunbDVMWMBnbzFJDKIXkYJC3xI7rNAt6nKoZiQQHKzFLLxyEgqEpCsVT9aEJWtfahfdTeK5nW1JZFQQpZNZCSx9aYxIXMpQKmkIRHsHI6x3l47gKTi7rTsDyNj18DRP+f4a6Gi3NhQGuQiJwuJgo1HSHKXQbT813saYShqXleyFQlJYtmEZBJb8h4TQnMDlKQcEkEa1atyomlx/1YkE4pJwmSx6zaehnVSVC6g47RdNcxYQMfhl6qcGAoJdCNLIRuzTEoigYxa9VtAUdrBcstTE644yokJoUA3SxIye8tYHAlkrajfgiijbXGfX0Zp304iL6UFWciakpVcTGJ7P5q2K127IEQbEzZdaaB/C6ZrCYmFUmrZey4dzNJ3xuEbmv7rtHWVhSya8+peQMdQ5VJs6CBykVuQRMF0ImTxNGg56VyGw/+1bcmpxaSDZHDRBFrgIyefBQn6HdUxaVPWIucCOpM+U0LJa4eTm1xIIpmCZAoXCpw/lZ6zrLKArtr1JfTrLE+Sd19GlSF6fxMFyit0xz1eY/lOdSuKFr7oRHIBywsKdo2sJfnP2E3X6kq3zNbRi/tTK5mQxBLmJ3bdaPywTqTQL+ji8gXTC+g44qRMs4BOTq1eP8Ii1MCDEzPIQ2pB0qadaVZMSY1vk2DN5sZS6CAXkltISMF8W8j6H7T8V/03nSTT2uFuJBeyuUjB5iSXQJo/9TmyNLKATrNtcv6qhc5/bboOJP8WLG6YvoTSltR77kEyhI4pm2lPMKlvw3ylgXl59GLq30pGQk2ciu2o2/hh1ElR8a0I9R2/nrJkWvKshERuLC4N7lyDGgvoOOOxNnXbiTufc84/D07QDA8pWUibUudZMbr4qpJ3TOqt0fMRI/9rGiwVU5dF53XbjwkCzX/0dTFPQ1AXIDMlCVfuC2Hv4Y32zWX6A3rKc5GWcAHZcEQ7rzawM6yreeio868jMfE6ipVt4N3pKSj0+82F+3o1CjJTkHTlPoT2HvBu3xw1pH2oqPLScT45AwXSlujo5Q7bqrpj76avJybierESbbw74alagzUxVvVtrBv+X2DdHvy/5nXfrTPZf0NgvnAlIQVZKge08/GEfWV7auRfT0Ti9WIo23ijU21hGMXITk1EWqE9Oj7jhpo3GRtr+/qjQl76eSRnFEDasiO83G0Ni0HMkqcGXHGkykP6+WRkFEjRsqMX3LmMwXG+uiATKUlXcF9oDw/v9qjo7u76l9B6YUvsSvsMnS6dx02pG7w7ONbyc07fqNPW9aM89woSUrKgcmgHH097g445/b8hmLJp4ym9cwnxl+6haVsfdGj+MH4AoCHjLUduWgIuZAOO7bzQxoyEXJydisS0Qth3fAZuRu7uNzxPNCBONNekxyPxTzVaenWBq9GP5ZiMVxKQkqWCQzsfeFZzvlLcuRSPS/eaoq1PB3Cawez56y7Wv9QaC1vuQtpnnXDp/E1I3bzRwbFW5HDajEvf1SjORmpiGgrtO+IZN2Xtj7rrO/+yueHr4e3xsedBxC/vZr7/Nyge67ZT4+fydMQn/gl1Sy8866pZV1QDk3pr/Hz0OMIXwzxPHMWnFiEooh1Wrx2N1v+CIOZ5eFQWw1c3YGDNeZyHh6cODMXw1Q0DH+lNkkeF5oP+B/HBGND/IAbF/IJ5HRr2MCPP4wlfCvA8cci6LsCucL4Q5qmNQCCEhVBgcqESDw9PTVjMCC0gZIHzWIZOeRwWdLGCrd/HKP5vKKbyhfATB39nmIeHh4eHh+cJRoW86xdwrdgRHao+jsTzxMAXwzw8PDw8PDw8PE8s/AfFPDw8PDw8PDw8Tyx8MczDw8PDw8PDw/PEwhfDPDw8PDw8PDw8Tyx8MczDw8PDw8PDw/PEwhfDPDw8PDw8PDw8Tyx8MczDw8PDw8PDw/PEwhfDPDw8PDw8PDw8Tyx8MczDw8PDw8PDw/PEwhfDPDw8PDw8PDw8Tyx8MczDw8PDw8PDw/PEwhfDPDw8PDw8PDw8Tyx8MczDw8PDw8PDw/PEwhfDPDw8PDw8PDw8Tyx8MczDw8PDw8PDw/PEwhfDPDw8PDw8PDw8Tyx8MczDw8PDw8PDw/PEwhfDPDw8PDw8PDw8Tyz/kGJYjTvHP8O7M+fj2+RS/T4TqK5hX8hsrD5xV7/j0aG6thdL330PX0TfYaN8jCg6hXWzF2Jbarl+xyOmATYpyUhC6t2/UatanczH1pRHpJO/0S//PahwbV8IZq8+od/moOBXfPV3+nUN8mLDMPujXfqtJ5y8WITN/gi7Lqv0OxpKEU6tm435W1P021yokHFwMcYO8MdzfSdiw//IF8ynbvlU1/cj9F2WM47ffmTzi+raPoTMXo0Tjc61eYgNm42Pdl3Wbz8iVBk4uHgsBvg/h74TN8BgXpYr9i7Fu+99geg7FbIU4NevZmPhtlSY7wX19bd/FuUpW7Hgnfex8bd8/Z7HkIc0Vz7MfPzPKIbVGdi2dD7Whn+KeZ8dZe7NgSoLMZvDsPPsff2OR0URYj99DyuiLeDTxf7xuo3+IBl7w9Yj6trfNFHU0yaqa19hqO9r2JrxNxbDpRn47fBPSMxu7ORdB3+bX/6bUCErZjPCdp7Vb5tGXXge33/5N/p1NdQoSNiNsAgzC/d/OeqCBOwOi8CJG421RSkyfjuMnxKz9dscFB3A/IlL8YuoB4YN7Y/Ojv/0zFyXfMU4ufo9hEQRvJ5xeGTziyorBpvDduLsfdLvaSDqAiTsDkPEiRv6HY+GogPzMXHpLxD1GIah/Tuj0rxFsfj0vRWItvBBF3v9TnUhzn//JdZHXatHMVxPf/tHkYu9obMRdk4JX++m+n2PIQ9lrny4+fgfkUVUl77Dt2dc8H9v90fh3o3Yc/tvLJBMofoTd+zGYF3kYjz3GPvdPxEquI07BX+znZWjsDH5DJb3lep38PDw/O9RYtTGZJxZ3le/bRp1fhay8lvgpZmL8e70V9HV5p9eDNchn+oGbtuMwtrIYPRR6vc98aiRn5WF/BYvYebidzH91a6oMK/qzzuwG7MOkYufQ+Om4/r52z+K4usocHkLEZvfhTc/jT1U/gFZpBzx336HRKeXMGZmEAZYHEXE1nRUu3dXlIwt01+Ah60MEmt39Jt3FLervslVZyN6RRD8WltBIpLBvt0AzPwulb3v1pG35y30GrsMEYuGomMz1oZlK3Sf8h1SkyMxpZczmkoksPEYhKUx93QXqG/j50/G4/kOvTAh+COM9WkBj75vIjK1RHcceTjz5Xj0bGsPS3attZMvRgZH4VYDaru8M19ifM+2sLeUMNmc4DsyGFGVDamRHb0CQX6tYSURQWbfDgNmsnFXCMYJ4d7p5XjFuznkEilsPftj1vcVulXj9s+fYPzznnCwFMOC6c3Ooy/ejExFhZQmaYRN1FmReOO19bhYkoaIsT0xflO6Zq9JWXN3TUWvoHmYP6I9bC1t4fPeifrbNW8P3urRH4tiSnV/9xqLld8uw8inHaEQa/QTgLn7Myp9T337Z3wy/nl4OlhCbMHGZOeBvm9GotINuHSAUlzbvwDDfJ5CE7EIcof2CJi5FReK9IdNUoTkb6ahb1sbyKRKtHlxLrZ8/jp6TfpGe1R9ezve6DkYy+MMjxWVn/8Uw3tOwjd/6vxHnR2NFUF+aG0lgUhmj3YDZuI7M53n0fklk2vLdLzgYQuZxBru/ebhaHWlmTFuQu6vwQj0tIFEYgWX5yYjPL7KR4Yc+cAUnDavit6HlkUswtCOzZg8lmjVfQobazIip/SCc1OmOxsPDFoag3ta1ZkRc+UZOLRkFPyclZCK5bDv+DI+PFDhk6b1rouHlfh22Ug87aiAWGoLz4C52J+h9+iKvObpAEuxBdOtXfW8lrsLU3sFYd78EWhvawlbn/dwwixf1dCYfJKHPW/1QP9FMbotE3KUJ67CKwNXIK40G3um9UD3t/awqznizJhcN/9O21WXrzIv+Ppj/EdLMfkFn+rjNSM3maIoeQumv+ABWxmbm9z7Yd7R2yxiqtCI+KgGlz/Ve54sR+KqVzBwRRxKs/dgWo/ueGtPXmVMdug1AcEfjYVPi9oxSbm/IjjQEzasHyuX5zA5PB4VGaH23PFDDXuUI+PQEozyc4ZSKobcviNe/vAAdGHDbXeTubLoAN7p0RVj11/RbdeB6dhlY9j+BnoOXo44oQ+rSeZisAvh/KfD0VM/H9Q/F2ncwFSezcWuqb0QNG8+RrS3haWtD97TJIPSa9i/YBh8nmoCsUgOh/YBmLn1AsvqHHDOlY2tdTQ0Jgcx6H9N8c/0dhsZPb0gnsoonw5MaknSpxdQfJn+OBXQ8bc9SNrsOXr3m2g6FR1Jc3o7kkggpp4r0tjxMkpa4U9Kmy70+ppDdDr+JH2/dAi5KtrQG4fuaVvICQ8glpzIecAi2n0ynmLWjCRnsRXZOT1L/10XRb+d3k3v9VCSrPsy3fk7gshR1pZGf36E4pKS6PT+j2mYi5iUw7bQXXa87Lf3qbNlOxoffpzik3+nI58MIydJK5p8qEB7vdmU/Ubvd7akduPD6Xh8Mv1+5BMa5iShVpMPManZ4aQV5K+0oS6vr6FDp+Pp5PdLaYirgtq8cYh0kpkgJ5wCpAKyaN6b3ov8meLPHqaVQ1qTuPlrtDdfc3wHBTnKqO3oz+lIXBIlnd5PHw9zIbFyGG3RCGmSRtok/zztDR5GLuLWNGRhOO1NuMchq4purelHEqGCvF/fQrGxO2lHzO1621WrE5kDjd/3QP+3jJq4vkDztkRTHJM/OOApEreYQPs0+qEc2hHkSLK2o+nzI3GUlHSa9n+sGbOShmkVxKUDosLYOdRZYU1PT/qCDp48TVGbZlJPewm5TNxLt1XaU+qk4MQM8pTaUrfpEXTi1An6emZPamkpI0nPFdrjqhufUx+5C009Vqzd1lDyyzvkIe9JK9LKNc5DK/yVZNPldVpz6DTFn/yelg5xJUWbN0gfFnXzCP2y4Pjb5CFtRs+9+w1Fn4qmyDm9yVEkILFeLq5xq26toX4S5tc2vjR1fRSditlK8/o0J7HLZDqQq22AMx/UDZfNVXTj8z4kd5mqP10TY2KSOw+gRbtPUnzMGhrpLCYrOyd69r/rKOq307T7vR6klHWnZReZTThjroTil/hRE2sfmrz2KMWdPU7hEzuTpXIAhV0t59S7Jh5ksibk+sI82hIdx/JWMAU8JaYWE/ZpGufMazrdCknh/TptiY2lnTtiTPppNR9sVD7JofAAGTmM14/ThByqW6do26evUUeJPfWb8xVtPJxKuRxxZlSu23+n7bKryceZFzhzkwkKjtPbHlJq9ty79E30KYqOnEO9HUUkEOvzQmPiQ3WDPu8jJ5epx7SbD3+eZHn+1Db69LWOJLHvR3O+2kiHUzNNx6TqFq3pJyGBhQ35Tl1PUadiaOu8PtRc7EKTtQnB2NxxsZo9SuKXkF8Ta/KZvJaOxp2l4+ET2biVNCDsKrfdOXIlFf9Cn02eRAv33tBs1Ynp2DXkHUO6L6Ff3vEgeUXerG8u4pof9HoVKrzp9S2xFLtzB8XczqfYOZ1JYf00TfriIJ08HUWb2LxkL3GhiXtvs1HWBfdc2bA5pWY+bkwOIvqfF8MFByZRK3l3Ck3VBCrRgxNvkbvEjd48VqjdpvzdNNZeTv6fpJHuDKaCzHX0kpVEp8jiKJriLKNuoRcrjzOtUOQIW7IaHEG3NVuaoklSkQwYxUfpDScxOb9xlFhZxFBR1pcvkKzFJO3f2We20uqIn6tMBCUUM6MtyZ4NpgusiQe7g8i2aS8K/v2+zgHK0+mndWG0L5krU9XgwW4Ksm1KvYJ/p/u6hij9p3UUti+ZvS0opqgpziTrFkoa360gJ3IE2VoNpgiNYKbQBoeEnvvYoLeSk7PIU+ZLS1LKSZV9hraujqCfq8x2JTEzqK3sWQrWCGmKh2CTsvOLqIvciz78XfOuh0tWXUKTyvpRWKZhvPWzK0M7yVQphpl+/Fdd09mQURI9ndwr5Fdl05mtqyni5ypBXhJDM9rK6NngC1TOpQNmwZ2v2pG8eyjpXZvBxrNpMCkVfemL6wY5alNA34+zZ0V8FX2ortNXA5qaXQwXR00hZ1k3Cq2uUBpha0WDuZznkfllPu0ea09y/0+owmRMabTuJatKubjGrS1spDLm15dq6J1Njt+wjGeG79UJl83Z3trFsM7eur6K6egbTiR2foOO6hyQVFlf0guyFjTpwAPumCuJpunuUvL64CzLOHoKjlHwmEn05Zk8Tr3r4sGfVl2raL+Eoqe7a/MWGwlnXqvQbb+wTIP8Jqjqg43KJ0aK4brl0OtU7krTjmt8nzvOjMr1t9ous4p8ZuQFrtxkgvzdY8le7k+fGAKMMte9RFYVebJR8VG1GH5U86QuZ8tdp5HWvFwxqS3apCR77mO6VCmyLqcoh33DinJjc0dVf9P5ltTrAzprMBwdCx5Dk748w213k7nSfLhi17xi2Hx/5pwfKvTaL4wq1Za/k161k1P30FSD76iyaNNgJSn6fkF1Tmmcc2VD55Tq+bhxOYjof/yYxD0cjNyP7BYtgZPfICIiAt+lWcLVKgM7NxxkR4Hy9GSk5reEj29rWOgugtChB7q1FWn/VmUlIOlmOS6uHQ7vTp3QSft6Hotii/DgcgrS9J8iC6zc4dFS34JAgSZyEVo4t4ZYu0MIhUIOgUrzCL4QDn6jMM43D7tD52Dqa8PRz7cDhoSlQaVWQ02ArM9rGOd0DvN9n0Ir7/4YN3cP8v1GYlDHJtrWzEbWB6+Nc8K5+b54qpU3+o+biz35fhg5qCOaqLKQkHQT5RfXYrh3hVyd8PyiWBQ9uIyUCsFMIVDC3aOlQW9WVmgiKEHxA2I69MOocb7I2x2KOVNfw/B+vugwJAxpKiajRkgTPCybVGKmrAIbZzjbVndZ8+1qBKYftzaO7CwdQqUSTQXlKC1l8gsd4DdqHHzzdiN0zlS8NrwffDsMQViaiulHjTIOHaD8KpIuFqJ1915wqzhB41v+PdFBdQnnL5Tp9xlBdR0pF/+C4zNd4VLZeEv4P9cO+tY5UCErIQk3yy9i7XDvSn12en4RYose4HJKGkx6z6Pyy/J0JKfmo6WPL1oblIYe3drq5TJz3BbO6NbTpYreu+JZ92KkJl3Gg/r6XlU4bG40KgRWVWJMAEUTOUQtnNFa54AQKhSQC1QoV2maNx1z6twUXMi0xjN+HSHRXQ5Y9sUHkRvwZpe75sWI0g1tKlccCaFUNoWgXHOMO69pEdjA2dm2MibMpTH5xBh1y1EDc+PMmFx/l+38qjzcafZ4TeSmOilHenIq8lv6wNcQYHDo0Q0VaaneublOuP3pocyTZsWkBZy79aySKx3Q9Vl3FKcm4bJeHmNzhxZ1LlIuZML6GT90NBgOfT+IxIY3/bj92lSu1LdmLmb7fF2Y7c/mzg8C2Dg7o0Jt5VeTcLGwNbr3cqvMvRpd+/fsANWl86hrSuOqF8yd/7lobA4yb259RKhv7UHkkTxYN7uMbZ//od8LUJMmyD24CTv+HIFJLBOpmGOIqo5UIINMKtD9XVLCDGeFLkGzMb59pYm0CJu2g7v+OoFYrC+QDAgE1c/XoUbWzonoNW47HnTwh3+XzvCfMAIvn/oAcy7pT7EZgM9OxeOlbd9i98GfcHzDe/h29UoMXRuDnROrOAonNhjw2SnEv7QN3+4+iJ+Ob8B7367GyqFrEbOtB0qYD1h1CcLs8e2rtylsinYVgpmCyVdNbxUwv1Bn7cTEXuOw/UEH+Pt3QWf/CRjx8il8UCmkCR6STQyUcMuaoBGHyaPvogLz7WoEdh5rshqVzauzmC17Ydz2B+jg748unf0xYcTLOPXBHGg1xKUDpgFNDS4SVxdWYCFiQceCU8URnCRgbVsYxqNJbprCXr+lo0YbmslBv6tEp1AEzR6P6iYQomk7d47Af1R+WQ6WhyGsrjTIZNJKubjHzRyBWVwirjqxMZ1qNjXC19v3qsBlc2MImP/VdkCjOYAz5sqYfpgsFuLqVtZhRowka/yL+bR+t46KtszIaxo0MVEzyMygUfnECHXLURMz48yYXH+b7apSj/HWGIg5VtEUOizAWFsGBDIZKtNSY+KjGn/TPGlmTIolYpYhDIh0CaEyQxqbO3SUad/siCzERvXL7dcmciXTj+ENDzecPl8hjB5NgVdtVz38mTvPalpm1zK/rBxFKSuk2ZHqrsvO0eRzNvfUOaVxzpVm5DYzaGwOquo/fzMqZOyIxHF1f4TGxCMhIaHy9XvUfPQsO4GILRchcG4LV+lNXEjJZeGnp+QSLl/X3e2zaOEKJ0Uhiqy7I2jcOIzTvsZggI87PL3aVL6rMRv1Dexcsx05fVcj7uyP2LZ+JRZMC0Tzsr80qUr7727cNqzedQvPTFqM8L2nkJZ5HqueL8ChyIMmFgfURn03DttW78KtZyZhcfhenErLxPlVz6PgUCQO3mkOVycFCous0T2oQq5xGDPAB+6eXmhTb8GqosaNnWuwPacvVsedxY/b1mPlgmkIbF6Gv9j4mV+bRPQwbMKCtBKLFo9Q1oahvrETa7bnoO/qOJz9cRvWr1yAaYHNUaZXEJcO2AlMJhFuJCdXLljQUHQ+CX+gFVxca2atKli0hmcbBW5eSEFO5bXFuHjpKosaPZrESaUoeWDIQKW3bunPt0ALVycoCotg3T2oUp/jxgyAj7snvNqYvvP3yPyS6aStq1QrV65Babh0+TpLshrMHLcqE5f/qPIFjPlJSEoXwdXDHdJG5AMumzcO7pgT2rnAySoXaZduGXyqPBUbpozBwsOCxsUIZ15rDI3LJ42iMXFmNo203YFb+h2MRzpeEZzbukJ68wJSDAHG0tJlVKSlhzZf/k3zpHkxqULm5T+qfCVrPpKS0iFy9eAu7oV2cHGyQm7apSpjKkfqhikYs3A/p91N5sr6FAMcWLB8T6UlMKT7Uty6lWPwtXrRsPlB5Mx8R3QDycn3qvRbhPNJfwCtXFCX63LOlQ9l/m98DjLX9R8+qkvYuvUUxC+MwpDm1Ydh4ToaY/pI8fuWCJyxHMjeCdrg+LK3sSkxD6ri6/jhw0XYcVMvnXUAxg6zx9lP30TIsUw2tapw5/QqTHixN4YGx6JQd1Y90LzzEaD0TjrS77M+VHdxbuN0LP7hPjNgCStJhBBc2Yul06ZjyaEM1h8Lnb8y8efdUtg6OcGaiVJ84QDCw/cgIU/XYl0IBVewd+k0TF9yCBm6hpD5512U2jrBydoGAWOHwf7sp3gz5Bgy2XHVndNYNeFF9B4ajNj6C1YNzZ0JQekdpKffZ26kwt1zGzF98Q+4r3mXxrWC06bxNhFIpJBQAe7f1wSE9SOVtUGIxBAJSnEnPR06NziHjdMXQ+cGTEFcOoAdAscOgiIqBNPC45DLxCy68j3mLNyJwm6j8YqnqVsGTREwfiQcYj/G2+vjcV9VgoxDi7Boe1ZlMSxUOsPZJgcnduxHOtNXScYRLFl1GHn6ZGkdMBbD7M/i0zdDcEynUJxeNQEv9h6KYA6FPjq/tMHACSNgc3wZ3t6UiDxVMa7/8CEW7bhZmSTNGjfdx8HQ97E3vRjqgguIfGcxDogHYtzgZhA2Jh9w2byRcMacog9GD3XE6S/mYXNKPkvg+UjZvAhLvz6HfGvnRsYIV15rHI3KJ42iMXFmPo2zXdXvTXu047UZOAEjbI5j2dubkJinQvH1H/Dhoh2oTEsPbb5s/DxpFmbFJOH+wVC8vzcdxeoCXIh8B4sPiDFw3GA04+xHgT6jh8Lx9BeYtzkF+axqyk/ZjEVLv8a5fGtOu5vOlazz8ks4HL4Ou87m6rprEEIonZ1hk3MCO/ana3pGxpElWHU4r+bNYrNp0PxgF4ixgxSICpmG8Lhc9pahCFe+n4OFOwvRbfQrqNN1OefKhzP/NzoH6Z8d/tspi3ufOoub0ajt2iXgtbj73X+omaglTfzhL1LlRNPi/q1IJhSTRCwmu27jaVgnhf7ha2LHYygk0I0shUKSyKQkEsioVb8FFJWte5Ba83C6vMUkOqh/kJxKfqVZnnLqvuyPyge6728KJLnDePaXiu5GzaOutiISSiypiUxCtt5jKGRuACmVQyhC02ZZGn07yYuUFhYka2pFcjYme79ptCtd19rttQNIKu5Oy/7gemi7jNK+nUReSguykDUlK7mYxPZ+NG1Xum5cqhyKCQkkN0shG4uMpCIByVr1owVR2YbFBHWheaBe3oImVQrNekv+iLrIO9MHcWWkuhtF87rakkgoIcsmMpLYetOYkLkUoFTSkAju9htrE3pwgmZ4SMlC2pQ6z4rhkFW3CELe6nU6YlgvVk+7MjQ6qbqArqZ+EhaQj9yHFiSUsfHcpah5XclWxMZv2YRkElvyHhNCcwOUpBwSQRoxuHSgWYQQtfBFcpILmH0VTCYZtfSfQbuvVX5Vignu0ckVgeQiE5JYIiGx3bMU2KslySoWTFAJJa8dTm5yIYlY2zKFCwXOn0rPWVYsKFRRTkwIBbpZkpDZWCYVkUDWivotiNKO3TSP0C/ZtdGL+1MrrVysXbtuNH5YJ1JUymV63NrFUIq2NHh8H2ohlZFMzNpx9Kf3j9ys7JvT9+qC0+ZGFtBV86ES+nWWJ8m7L6PK0L+/iQLlOp8zJ+ZUubEUOsiF5BYSUjC9C+UuNGj5r7oV1Rx6rxUPzI4JC3xI7rOA/c2d17S6lbei16sGmQmqLaBrVD6pvYCubjlYv9UW0Gl2mI4zo3L9rbarLh9nXuDKTSZh8RO9mPq3kpFQzPKG2I66jR9GnRSGhcYNj4/qC+gaO08ap+YCOo6YLNMs9FJQ28HjqU8LKclkTO9iR/J//wjd1IpjbO6oaY9cig0dRC5yC5Io5CQWMhkHLadfWdBx250jV+Z/TYOlYuqy6Ly2q7rg8nkqSaa1w91ILhSxXC8jhUsgzZ/6HFlWXUBXD3/W6MXk/KBdQCenVq8foarZQHUriha+6ERyAbOpgvmOrCX5z9hNXFMa91zZkDmlxgK6RtY0As1/9HXxP5xiZKcmIq3QHh2fcYOy1js+FfLSzyM5owDSlh3h5W5rWMjQANT515GYeB3Fyjbw7vQUe/9YEzUKMlOQdOU+hPYe8G7fHDL9Ec33L64b/l9g3R78vxp3vY2hLshEStIV3Bfaw8O7PZpXNqRDlZeO88kZKJC2REcvd9g2RrCqqPNxPTER14uVaOPdCU/VFpKDxtlE/f/bOxO4qOr1/39gZmAAgQEEUZRNxB1EkdzCNLfU65bmgqJ/7fYrI3PHJUUSpcUsM0txyzSvihiu2Q0VNYVEYxNcQgUS3BAxQNlmnv93FvZhzoB6tfq+e829nv35Pvs5nCU/HfGJf0Dh4IGuLpaqec9srA1CgfyMRCRmFEHm5okOWhUkpAOgLDcNCal3APs28HCzqZdflty9jPjfC2DXoQOyP/RE/1/fxKNf5mmWsuX3riD+ygOYt/JCuyZa3sIuf4j0pIvILDCGQ3sPtKyHQp+lXxbduYTEtELYtu8MV21KE5SbxV9GPBKyJHDt5KHFdxuaD/Sx+ROgV8yVIfdaAlKy5bBr44XWttUlfxK9C+e1J+CJ88mT8SRxphdPwXZVeabyFt3BpcQ0FNq2R2dXmZY/AT+devlEdVJv9ItJRUEG4hOyIHHtBI8GOF9Z7jUkpGRDbtcGXq1tK/Whh92FcuXToQT3rsTjygNztPJqB23pvt40qD4wH09LgNp1PeBmo6/nCNfKJ67/T5CD/kLN8F+HophlmLC1DdasH4cWWgzO4dSfEpyZ07FWM8zhcDgcDufJ4K3aM0DafRn2hfFGmPN0MTAUQWSo7ZlnDofD4XA4DYVfGeZwOBwOh8Ph/GPh1y45HA6Hw+FwOP9YeDPM4XA4HA6Hw/nHwpthDofD4XA4HM4/Ft4MczgcDofD4XD+sTznZliOzMPBmDjQF736TsWmS5rP8zHkNyKxYs58rI2+h/LvlBSc+QbzgnahymqCPIrZgHlLdmqmni2Ku8ex9pP9uFHxzVwlZUjZuRSzF23GuXzNLD14enIXI2nHCmyNq/L52mdAcWYyLt0vt5QAD09j3bwPsfdqNUUx5Mg4EIo589bg+N0q+5Jn4nDwRAz07YW+UzfVy/7PGvmN/VjJ5D2h79ifF8WZSL50vyKWnoxiZCZfwlMbcskFbJk/CzNnztT+mzUfWy6UaFZ+GhTgzDfzELTrEotO7dQZf/IMHAidg3lrjqOqi76YyHFj/0om6wnN9N8NYTu+cMhvIHLFHMxfG4179fKfpxxzT4laeV/+Bw5/PAdzPzuK7CeS9SFOr5uHD/de1Uw/KxS4e3wtPtl/g0XLs6L+tmtwPS1Owo4VW/GMy/2LQ529RP15vs3wo0NYMnUFfhH3wMgR/dHRvlycRzj9+Xx8Ei2CVxdbjZAKFCbtw1cbo3CjHpmvJPMcfvxvombqGaK4jYg507HP0B2OVT9LmBuJ0HnrcEHmDU9zzTw9eHpyG8PN5SHWvhWEk88oQOQ3vsEIb3/szNQveBUFCYhYtxUnbtYwZNFZrJkfimPwRBe7Std8dGgJpq74BeIeIzGif0dUuMkLgDz7FLatC8f5vBf4pSysAH8zwhv+OzOfQjPMGqxvRsDbfyf0NLceFCM/9z7u31f+cnDl5634atsx/J5TPi8X+cpPnT4tFIVI2vcVNkbdqLOJqiv+is6uwfzQY4BnF1Rx0RcUObJPbcO68POa6b8ZetjxRePR6c8x/5NoiLy6wFZv/3kWMffkaMv7JXHrEBhyFCUePk+WpxUFSIhYh60nbmpmPBsUtyMwZ/o+GLo74ul8uLsm9bfdE9VTYze4PFyLt4JOslPFvz919hIN4Lmmc0V+NrLzm+K1WcGYM2M8XrLSiMPOLu/Z+GHDjmD0qkcDqQ3Z2M24+OvHmqlnR2H0CiyJ6Y3At9tWC6qijAI4v7cV2+Z4srZUf56m3KbdZ+N9l91YsCb5mRQNKriLewVPnqXlN+/CatwGfB/yCtTfo1OiQH52NvKbvoZZwXMwY/xLKHcTjp5QAe7eK3hKV4UJBXfv4SmYuxKjHnh/03fYvn07+23Bwn62ENkNwKItymn2+24T3u/RkO9jNRzt8SfHzbtWGLfhe4S8UumhHI5+yPHHPRv4bdiB4HoVtmcQc0+B2nlfjqw7lnj96534qL/1X+AezEJEr1iCmN6BeLvts2mFG2K7J6unpug++3247F6ANcl/lVPEFwTle4afB6UJn9HIzs5kKTKmJq07U7eAfZQnv0PRq/zJ192WTMWGJDK2plZ9ptP2VNVHylXfGJfaj6RFi4eQu0xCEnMn6jltA/32p3qfdD+c3uk1nhZ8MIraWJmSVad5dOA/AdS9X5BmBXbcjMP04RtdydHSiMTSxtRu6GI6mKH5ZvudaFrl70vutqYkNhSRsXUr6jN9O6kOrwt5Fm0cYk3t5sdQsWr6Du36vx70r4/OqaeVlCbS6pE9aOq2TNVk3r4A6uX3Ke0IHU2eTUxIbGRF7gMDab9GFuVyfeWm4uu0f8kI6tTUjMQiKdm2GUgzv0+hQvVSFX/+MImatZhGB8t1pYWCY4vp1e7/j77NqPIV7+JYWjmkF72967ZmRnXkWdtpWicHMjM0JYd2PuS/+YZ6/u0T9PH4rtTcXMLs2JhaD5hJO1PV302X3/yS+pg40/RjGsXKb9OJj8dT1+bmJGH+0Lj1AJq5M5UeK7/P/tlI6uxsyfbRhFp37kYB+/IExyukW+V326/vX0IjOjUlM7GIpLZtaODM7ymlqsLqoDD5O3qvbyuyMpaQheurNDtoIrUyqfLdfx3j1klpBh3+8A3q6mhJRmIpNW43lBYfzFB/315AXp3jZb65fVoncjAzJFOHduTjv5lulMnpTvQq8vd1J1tTMRkynVu36kPTt6dWfIdeu7+VUNb2adTJwYwMTR2onY8/bb6hlLDh+qxNMZ2c0ZKM3GfTLxXBIyRvHu0L6EV+oVsoaHg7smG2MXXoRm8zH0re/jb1cmxEEomMWg0OoZO5zLdV392Xkv3IRbR4iDvJJBIyd+pJ0zb8RuXhUTP+dNo1bx8F9PKjT3eE0mjPJmQiNiIr94EUuL/cftrJi11L/j3cqLEpy2UWLajL6OX0863y2GP57sTHNL5rczKXsFzUuDUNmLmTdLtSISV/9x71bWVFxhILcn11NgVNbEUmPT/RLBcYB9Nj7Fp/6uHWmEyZTixadKHRy3+mSpHqilMNOvN3HeTF0lr/HuTW2JTZyIJadBlNy3++xUavRMDuethRt8z3KfydXjR+wQc0qo0VmVp1onnH63DaOuOTybjr/6jHvz6ic5XJnhJXj6QeU7dppgXGodN/5NpjTigH6vQtLQjZrkZtlbUfTK951Mz7xXRm+SDqERBBD9Rb1V23hGqk/CZ92ceEnKcf0ywUyDE6/Ug78qyNNMS6Hc2PqZBAMD5UeebTHRQ62pOamIjJyMqdBgbup4rSUo06bKdjLFrrqYBtatVT5v0/TGpGLaYdrIyDmqh8bhyt3LSUBreSkZGRJTn3mkYb4lh9VaE9Noqv76clIzpRUzMxiaS21GbgTPpeY4QHB+dQ75dn0v5c1aSa/KMU2Kc3zVLNFMpp9c951ccuXNd08dyaYfntGNr1uT+1N7KlfoHf0OYfL1HWnglkL21F4748SnHJyRR74FMa6Swh2cjtzDTqZtjIQERW3tNpY1QMndq5kPo0kZDzm4dIperbX1M/I1b0Pd+i7adPU/ieU3R5/SCS2k1WH7Q4npb7NCJLrzdp/c9xdP54GE3taEaygevoelkO7ZlgT9JW4+jLo3GUnBxLBz4dSc6siI7cfl+9fR3Ib66j/uYu9O5xjcqrBHKFEYp/odnuJtTzkzTVZE4Yk0vaiFxeXUjbo+PYWENoUDMJNZ2yv3K5XnIX0unAjmRq2YmmrT1MZ2OjaMusnmRr5ExTI+8yrWl48D29btWEJu7L18zQQu5uGtvYhHp8fLmiiBedeI9aNupDX1zXGu3M2ZMoMkSppxY0PCiMIhNYGixNpk98ZWTV5S36+kgsxZ/dRyuGu5Cp29t0hC2u7sCllPyJL8msutBbXx+h2PiztG/FcHIxdaO3j9yn2zG76HP/9mRk248Cv9lMP17KFRyvkG4LTwdSR1NL6jRtLR0+G0tRW2ZRT1sjcp4aSXd1Zc+C4/S+OyuovebQd9ExFL0jkF6xF5OBRNMMC4y7boopfrkPNbL0ojfX/0xx549T2NSOZCYbSOuY3oXk1T3efEqKDFHFUYvhQRQWmUAPcvbQBHsptRr3JR2NS6bk2AP06UhnkshGksrVdfhbcnwkhSjXbTGcgsIiSWnuButTK1qaYSF5KYfCBhmTxMSJBi6LoLPxp+jrMU6sCbAhx67/pg1R5yg2Yj71kEmp+0eXlYmCNVFGZCCyIu/pGykq5hTtXNiHmkic6c1D6kxeLf6E7JoTRoOkUmrk8iot3B5NcUy+kEHNSNJ0Cu2vK9xKz9EiptM2k8PoePxF+u3oZzTS0Yiav3mECpSLkz8hX5kVdXnrazoSG09n962g4S6m5Pb2kYpGoyYFx98nd1bAe835jqJjomlH4CtkLzYgSXkzLDCO0nOLqKNZG5ocdpziL/5GR9mJqKNRc3rziEoiHXGqlihHZ/7WRimdW8T8vM1kCjseTxd/O0qfjXQko+ZvkuqQQnYXtKOAzJrtDU096a3tp+l0+B46pdVhdcVnCd38sg+ZOE+nil6Erf/LbPfKkxChcQj4T35SzZgTyPkCvqUNIdvVqq3fbaVtH9bI+6zaHXnTgUwGrqe7yp3qqlslAjWyRjOsO8cI+JFW5HRzXX8yd3mXysu2cP5W5hkpSRu50KsLt1N0HOsRQgZRM0lTmlJHoNe2ncBYHtaup4K2qdUMK8v962TVZCLVWe6VPmdsRNLGzIe++ZnOntxJC/vYk8Tx/1FkldiqFhvpJymwoylZdppGaw+fpdioLTSrpy0ZOU+lSBY38tvf0nArK9Yv5aiPwXiwZzzZyYbSJnYiJpTTGpLzqo1dsE7o5rk1w0rk2V/RqyYuFKDyRtbV/7qT1mw9WaWAFtOpma1I2jWEUsvUzbCxtBd9eqW8MWNnXhteIws22O/YYFUBayylfuuyKprAqkWtOHoGtTT2oMXnK88EC46FkN+0r+jXR3fo151raOvJKg1k8Sma2UpKXUNSdV7hKYzwIxvT12hjuQ/o2QwbG/nS6hvlRyumaNYEKMeqRG+5c8JpvI0JdQ+9VCmjPJu2DJORad+1VHGRtyyFlntLqfXcs+xIdfEnRU5uSsZdllFSqXK6kP77thNZDlpPNyuUUpvSpGXUxcSDPvhNtREVRb1DTtJuFHq5itZydtDr1hY0bCvTb1UHLoqid5yk1C20sgFnK9OO163JYthWllTllP3Vq2TiEqBOWvnC49Wt23wKH29DJt1D6VLlDih7yzCSmfaltVWvitcgP2Ii2Zr40meaq8DK7VT+Z6RuhoXGXSfF0TSjpTF5LD5faZuCYxTiN42++jVHUF4hX2IGomVdTMjjg99Ye8C2vvMr7VyzlU5WKfzFp2ZSK2lXCkkt0+1vRaWUtKwLmXh8QGpzN1yf2qndDAvJq/QXZTNsxJqPctMU/fw2OUqc6O2fNZcVmI989aqUmk47xP6tTPTGJO31KVWmkiza8JoFKzDfqQpM1fgTtKumsPiuvsFGrkalwwr5tPA4giZYm9PLIb9RnmqjMkr/7wZat/8i02gRRb3jRNJuoVT9kK+TtcUw0u5K+RQx0ZZMfD+r0EH5mJR6USI0jscRE8ja/GUK+S1PPY6ydPrvhnW0/yKrqHrEqe78rZlVjccUMcGazF8Ood/USmCH/C9tWLeflIcUtLuQHYVkLt++3zrKqjxEbXTG5yPBZlhwHIL+UyPmhHJgoS7f0oaw7bTV1pp5nzlJtWZYd72tTzMslGMKdfqRdtg2fjZk+tpG5hFqhPO3Js/4rqbKVKv0DXWPoJ3658vqetXDNlqa4bKU5eQtbU1zz1bqvhoqnzOml1amVPiQPHsTDZVZ0L823yG5ltjIDx9PNibdKbRScLbNFhomM6W+azOYpLm0e5wdyYZtoduqbe7T96NtqPHo75nmhHJaQ3Je9bEL1wndvEC39RjCzmcsJnk/RERoIKb7j0I/73YYvi4NcoUCCs3zSSKnbujpXH5/D9vmpa5oWXQJyVc1T5sbWMHJSdv9SgrkpqQiy7IzfNpX3n9o1ncxdmx6Fz4mdvAZOwneDyMQGjgd/qP6wbvdcKxLk0PBjl/341EK5GTeRIGFPezNNLP0xEDmCreKpwwMIZOZw6Cs5lPzuuXunJWMy4Ut0P1l18p7lQ3t4NuzHeRXkpBaqpkncoCDPXArI1PHfcPm6D9uKOyS9+I/8WytwmjsPvQnXhk7Ak319hQ5shOScavsMtaP8kSHDh3Uv97LcPrRY1xNSUPVEcqzE5B8qwyX14+CZ/m6HXpj2elHeHw1BWk11FF2Xb/x1qnbsutIvlyIFt1fhmvlDmDn2xPt5FeQVKGwmpQh/eIl5Dt4wbtFFf/r0Q2txMp/12/cVVHkpiA1yxKdfdqjwsJmfbF4xya82zlLL3n18yU1hnY+GDvJGw8jQhE43R+j+nmj3fB1SJOzOFPIdcdJzRvfG6xP/dEtb3lkGsCipTscNDIYmDaCibgpnFpI1DMMTWFqYgB5WflTxyI4deuJylRih5e6tkTRpWSUpxI1etrVQAZXN3s2cjWGMhnMDcpQUlJH5pD2gf8kR1xY4o1mzT3Rf9IC/JDvgzFD2qORPBsJybdQdnk9Rnlqjsd+vZedxqPHV5FSMyiUlKXj4qV8OHh5o9I97dCjWyuo3FOPcRj28cckxwtY4t0MzT37Y9KCH5DvMwZD2jfSI06ZzfXI39WRoo//JDheWALvZs3h2X8SFvyQD58xQ8AOqafd67bjpXR9cosBrJycYK0jv+mMz1oBURu9xlEP/xHMgSIdvqVZvTp62q7O2qoNgXpbnwdoBHOMSKcfaUWRg8ybBbCwt4e6bOubvw0gc3WrfDjQUAaZuQHKSrTEpDbqnS8bElfKcu8Ae9xCRqaO+4ZFLvB9xa3ChwztusHHrQSXL17V9AhVY6MM15Mvo7BFd7xcKTjbxhc928lxJSkVpbDC4AlDYHZyLw7eYbLdPYg9x4zwGptnI5TTrqTXP+fVQL98UTf6+fX/BAWyw6fC2/sNfBiRgFxjV/hOCUbQGMfqQkqMIKk6QyxWLaeKgBVBJDbQTFSnVFkIxSJItC1WZCN8qje83/gQEQm5MHb1xZTgIIxxFFIRobS0DAZMLuMa+62ufqXjVp9jIGKyav6tpgFyl8iZm4ohUVc8DQZMB2wGCxZ5xSElkBqLUVZWqqOxB0z7TMCIFlcRsSsWuVF78GNxf4wb1qRejlJczBzXogsmzAtEYGD5bylWhW1F6BstNcVZQ3ExSzIW6DJhXpV1A7F0VRi2hr6BltVWZug53rp1W8IaIqbO6jtg64vZXpmNKhVWizI5s4Ohcr1KDKTSCrvXa9xVYf4jZ0tF2g2sl7z6+pISRXY4pnp7440PI5CQawxX3ykIDhqDclfX6W+1aLg+9UVIXjUGkEg0jW8FBkwOzT+1IDGSVPNrsVg5RbXiQy+7KvNOjWPpVp8VBn4Rg/gf12PuUBcUxGzC/NE+8BqzBdflxVAfcgLmVRyP/ZauQtjWULxRKyiUMB9SuWfVZQaQSo0r5BAch9VAfBETjx/Xz8VQlwLEbJqP0T5eGLPlOuSCcapn/q6B1cAvEBP/I9bPHQqXghhsmj8aPl5jsOW6XE+767CjXrmF5Q7mqzptpTM+NdRwGmXxLZ+l1zjq4z+COVCXb2lWr4aettNRW7WhTx6prrbaNVKNcI7R5UdaoVImH8sZRvWID9VaSn+pV6DXoL75smFxBQmrS+IylJVq06cGAylMTKruRaQ0F4j5kJrqsVGiFlyjBw3MJ9RuJ1fZslF/Pwy3/gV792fh1v49OGk+FBMGKB82Fspp8gbkvOromy/qQs/V/gcobiL8693I6bsGced/wq6Nq7A0YCialP6pdBH2nxp51lX8XuWdIfnJyUgXu8BdUFmGsHF2hEVuGq7crnxSs+zSJrzjF4QDF3bj69056LsmDud/2oWNq5YiYGgTlP7J1q1wDm2IYN2YnS3nP8CDirhTJjZCSfHjymAvuY3bObr2Uxe65T4qdYKj+CYuXnxQoSPlq+mSkn8HmjvDpbw/UDxEbl4ZrGxsqjtzTYx7YPwoV2Qc3oFVO44Cr43HEGvNsrowqJoNRGjq4gjTwkew7D4BkyZNUv/8BsKrZWt4uFW/siBq6gJH00I8suyOCeXrTvLDQK+WaO3hVuuKjdiJra/PeOtC7AQXRzFuXryIB1XM8SgpGb+jOZzr3IEYTq1cYHwrFSm5lRsWX7mKDJYj6jvuqhjaOMPRIhdpV25XjqnsEja944ego9IGylsV1hRq/sUcATfDv8bunL5YE3ceP+3aiFVLAzC0SSnUrq7b3w7dUlQ3d4P1qS9C8mpWqzdyZF39vcrrh/KRnJwOsYt7jROwhttVF4r7cdi1Zi9ud56G4LBIxKRlIWl1bxQc2YHD95ownZqi8JEluk/QHI/9/AZ6oWVrD7hpu4zJ7NDKxRi3UlNQ6Z7FuHI1gzVOSoTGIcODuF1Ys/c2Ok8LRlhkDNKykrC6dwGO7DiMe00E4hT65e9qKO4jbtca7L3dGdOCwxAZk4aspNXoXXAEOw5n62n3uu3o3qJ+uaUudMbnoVuq5ohKivG4Mtnj9u0czbpPx3+rxpxQDnT6U4dvVYnpCvSsvbWolghqIpRHlI2WnjVSKMc4/anDj25r1q6ByBqNmQPkP3jAPEg145nEuZJ658uqGzTQNoqHucgrs4KNjY5qL8/E5ctVmqmCi7h4XQTX1uV/TaoKq39MP+KbbJ3qgkPtdi5QZXrpy/Ab1QyxkduwJfwXNB7hhz7KS++iprpzmq1D/XNeNZ48zhpq32eA8kzXACX30pGexySX38eFzTMQfDBPecqGIs1alHcYoYsikV6kQEHqDswOPgTJ4EkY1lh4KKZ9xmGEfSzWLtyGlHzmSPkp2LZsBb69kA9LG2OIDUpwLz0d6sNfwOYZwVAfvvzo2jH3YMYqTkPqNXXZUf7pxMnJCjkn9uBAejHbQSaOLl+NHx/qOEvTgU65XYdh4hBTRK0MQFhcLit8j3BtXyCCwgvRbdxotC4/iS1NRWqaCG08PdROWydG6Dp+NNpc34JVB40weFx/mGuW1IUBO7s2ogLksWZbieWgiRhpex6fv7sSx7LY+OX3ELt6Cga8MgIhpwtV61RgOQgTR9ri/OfvYuWxLFa+5bgXuxpTBryCESGnUWNtwGaofuOtExsMnTgEplErERAWh1wm8qNr+xAYFI7CbuMwWscOrAZPwetWx/HR+1uQ+FCOooyD+GDZHrD+UEW9xl0V0z4YN8IesWsXYltKPgvcfKRsW4YV315AvqVrg+WtwMAIxkaEgrw8VWOkvCphUHIP6el5LIXIcf/CZswIPog85dk7c3Wd/mYlgpGxEaggjyVb5c710GfZFfwYtgF7z+cqN6g3QvI2DELe4VAsikxHkaIAqTtmI/iQBIMnDUPNVNJgu+rA0OAaIlcEYMbyI8hUvkO57E9k/XEfJdaOcLS0wqCJI2F7/nO8u/IY1IeMxeopA/DKiBBoP6QVBk95HVbHP8L7WxLxUF6EjIMfYNmeWxUFU/c4HsPgWiRWBMzA8iOZTLNKkbLwx/0SWDs6MrsLxal++bsahga4FrkCATOW44haCfgz6w/cL7GGo6OlnnbXYUdBmfVEZ3zaQObkBKucE9hzIF0pGTKPLsfqHx9WNHlP7r8G1WNOIAe2FevyLW11sgG2Y9TM+zXRXW+t61EjBXJMW7FOP9KOOTzYCVFxWirKy/aziPNattMjX1bXa8NsU5qaijRRG3h66Kj29ACHVgYi/OojyAuvYPfcYOw3GIRJI7T/Jdhm6EQMMY3CyoAwxKkFx77AIIQXdsO40a3Z6YQSI/j4jYHL2VVYdaYFXp/QXfNKWUuBnCa0XLUTnTxxnGnuHX4u1HyA7n7UQnrJWkyGRmbUSGpE1p5+tHLBIJLJhtPWO6WqB+hMWw2jyX2akrFUShJDCdn7LqKjmlfGqG7yN2lObx2tvJG86oMwymPkng6lIc4mJDIyJROJIZk4D6GPzzxgi+5T1MKXyFpsSEZmjUhqZE2efitpwSAZyYZvpTuV92TXpvgszW3TiPp+qbyJXDPr4noa5WpChmIpmUpNyXnoEprey6zaA3QmTafR4YrXhpRSwlIvMvFaqprSW27l0ttRFDTAkUwMRCQ1NSax1IF8Z0bQjfLnGhil8UvI09yXVlU8XaOD0ou0vKsRiV0D6LiO15pU8PgEzXQ3JpGxOXWce4rNkFPOqZU01NWMDA2NSGosJgNpc+q3NEqlx5o3/MtzTtHKoa5kZsh0L2XyG0ipeb+lFKVSurz6A3TKOQLjFdKt8sGbqKAB5GhiQCJmG2NmIwffmRRRVWFaYeOKDqb+zaVkKDEiicSGuk0eSR1My1+tpnvcupDnnqbQIc5kIjIiUxMJGTL9DPn4jPopWgF5BcdLj+nETHcyFhmTece5FH0riha+ZE1iJqNZIykZWXuS38oFNEgmo+Fb77BR6Pa3xydmkruxiIzNO9LcU8XC+sz/loYZS6jLsiT1tE6Kaz9Ad19IXuWDLSbUdNrhitd8FZ+ZS61NutNHv5f7ex5tGWpCdpP3q+T9up8ptRo2mfo0NSaplOlbYk++i45WvEasZvzptKvyYRSTpjSt0gBUmrCUvEy8aGlCXT5VSmnfTyMPmYjpzJwsmM0ltj4UsDdd/UCLPIdOrRxKrmaGLB9KmU4NSNq8Hy2NUo63Dtg20cH9qbnUkCRGbH823WjyyA5kWv5WA6FxlKbR99M8SCZicWVuwewuIVufANqbrtahUJzqzt/apS5N+56mechIJJKSuYUJiylb8gnYS8pDCtpdDzvqlFm1vQk1f+to5UNcdaAzPosv0vpRrmRiKGb5iOV756G0ZHovMit/gE5oHHr4T82Y050DBXyrFsK201Zba+f9Gm+TYPvVlUd01siar1YTyDG6/Kguis/OpTaN+tKXFQ/5CuXv2nmGGYqWepmQ19IEzYza1DtfVtNrtLBtaj1AV0rxSzzJ3HdV5cO0NVH6nNSKXhrsS01ZrjBitjF2eIUWHM5mWmBojQ053Y4KogGOJmTA9GzK9CN18KWZETfYEatQlkorXzImSZcgSqy6QCinNSDnVXuATrBO6MZA+T+avviFQJGfgcTEDBTJ3ODZoRlMNfOroShARnwCsiSu6ORRxzq6KMvFtYQUZMvt0MarNWwr7u9XID8jEYkZRZC5eaJDM333LMfVz/uh54FhiI2ahZblF+vYWcqV+Ct4YN4KXu2a1OujG1qpU24lZchNS0DqHcC+jQfcbKouLMG5hd4YeX0h4v8zXvjLWYq7+HZUW3za+jDiP+5W+dCIDhT56YhP/AMKBw90ddGcjcsfIj3pIjILjOHQ3gMtrXXtSY6H6Um4mFkAY4f28GhpLXBcXePVj7LcNCSodwAPNxu9xqmi6A4uJaah0LY9OrvKap9F12vcVWFjupaAlGw57Np4oXV1AzdcXiWKfKTHJ+IPhQM8uriw8/R8ZCQmIqNIBjfPDtDq6rriJD0eiX8o4ODRBS6aq01PJJ8QTH5BeRuAoiAD8QlZkLh2gofQThts17pRFGQhJfka8gxt4e7ZFk2kmgUa5A/TkXQxEwXGDmjv0RL6HLLoziUkphXCtn1nuMq0BLvOcShQkJWC5Gt5MLR1h2fbJqguku441St/14Tl86yUZFzLM4StuyfaVlWCnnbXbcf65pa60BWfJbh3JR5XHpijlVc7NKmZ7J/Yf7XFnO4cKORbNWmI7bTm/Zroqlv1rJE6c4wuP9KG/Co+79cTB4bFImpWS82VTcZTj/P658uaeq2XbUrOYaH3SFxfGI//jLfT/uf/+xvxWosgOOxNwxcdriDpljFcPdvBXkBlKpg90xJScQf2aOPhhvqWXqGc1pCcV8ETxNkL1wz/Zcn/Ce94z4XZljis6qmPR/0Pyd0Hf5+P0XL3aQR10e1Zyj+pPo4PwcD+hzHk1C9Y2E6PP8NzOBwOh/MXI/+nd+A91wxb4lbhRSvbDSV3nz98Pm6J3aeDUGe5r2iGr2PT4L/JwJ8QrScNnAZg3h8hq3vhZOgWXKvjAdbnQzHi1nyBdL8vMU+gEUZZHJZ2sYC1z6co+ncopvNGmMPhcDh/U8z7h2B1r5MI3XINL1TZbijFcVjzRTr8vpxXdyOsxMAAhiJD9n+6HoL8Z8GvDHOqIMfDjFTcKLJHu9a2T/fP3BwOh8PhcDgvILwZ5nA4HA6Hw+H8Y+G3SXA4HA6Hw+Fw/rHwZpjD4XA4HA6H84+FN8McDofD4XA4nH8sz7kZliPzcDAmDvRFr75TsemS5lMwDPmNSKyYMx9ro++pXvelpODMN5gXtAtVVhPkUcwGzFuyUzPF4XA4HA6Hw+FU8nyb4UeHsGTqCvwi7oGRI/qjo325OI9w+vP5+CRaBK8uthohFShM2oevNkbhRj2a4ZLMc/jxv4maKQ6Hw+FwOBwOp5Ln2gwr8rORnd8Ur80KxpwZ4/GSlUYc+R+4Z+OHDTuC0ctcPauhyMZuxsVfP9ZMcTgcDofD4XA4lTy3ZrgscTVGD/4EcSV38ENAD3R/7wc8VNzFyc8mo3e7lzEl5ENM9GoK977vYselYs1WDMrFmZChaG1lBCMLZ/R6Mwzx+ZpluXsx/eUJWLjkdbS1NoO113wc3PUeevRfplmBHTfzCJaP9YGTzBgSE1u0/9cHOJSpft224u5JfDa5N1rbmUEiEkNq446+7+5A1cNzOBwOh8PhcP4+PLdm2NC+B8ZO8kVzkQU6jvg3/j2kLQojZmHcBzFoFrAdJ+MTcSZ8ITrc2Ij3FocjV7Od4s4BfPOTE+btPYVjGybA6FAARs0+jAfKZaX38Pu53fjyYGMsPvATwhb9C+4P0xCflK7euCQBH40Zi89+98SivWcQe2QlumV8gUlvbcAN+X1EzBqHD2KaIWD7ScQnnkH4wg64sfE9LA4vPzqHw+FwOBwO5+/Ec/3ohuLWOgxo+RnaHr6EtX0kuMsa2V2pDhjv7wtbVZtegtOzOmDAmcn4LWYhrMMGwml2EUISozHXXfmpYAWyw4aibaAUX13bB7/SbzDQaTaw+hp+mt5M1enf3/gamn/QBI/vfIuSk++j3cBojDsThxDNtwoLj6/A/+2UYcbaMUDkLqQ6jIe/r+Y+5ZLTmNVhAM5M/g0xi9uCf5yYw+FwOBwO5+/Fc7syXBtD2PmMxSTvh4gIDcR0/1Ho590Ow9elQa5QQKFp2UVO3dDTubwtZdu81BUtiy4h+WqJepaBFZycrLUMTIHclFRkWXaGT/vKDw2b9V2MHZvehY+JHXzGToL3wwiEBk6H/6h+8G43HOvS5FCw4/PP9HE4HA6Hw+H8/XiBmmEFssOnwtv7DXwYkYBcY1f4TglG0BjH6kJKjCCpOkMsVi2vuL5tIIJIbKCZqE5pmZytL4JE22JFNsKnesP7jQ8RkZALY1dfTAkOwhjHF0hFHA6Hw+FwOJynyovT6SluIvzr3cjpuwZx53/Cro2rsDRgKJqU/snaZOV/auRZV/F7gWaCkZ+cjHSxC9xbijVz6sIQNs6OsMhNw5Xb5XsDyi5twjt+QThwYTe+3p2DvmvicP6nXdi4aikChjZB6Z9sXUXl+hwOh8PhcDicvw8v0GVPMSRiA5TcS0d6Hms+5fdxYfMMBB/MA4qLUaRZi/IOI3RRJNKLFChI3YHZwYcgGTwJwxoLD8W0zziMsI/F2oXbkJLPGuz8FGxbtgLfXsiHpY0xxAYluJeeDvXhL2DzjGCoD685etkV/Bi2AXvP8wfqOBwOh8PhcP4OvDjNsKE9xi2YCc/rn8K3qQXMGzXDgLVy+M8cCLObqUjJVV+dFbv1R+fL09HGygzWHafiqN0sfLtmLJroMxLzAfho+zK0jXkXno3N0cjGA++da4/gLUvR23kcFsz0xPVPfdHUgi1rNgBr5f6YOdAMN1NToDp8USzWz3gPHx3OUu+Pw+FwOBwOh/OX5rm+TUIbivwMJCZmoEjmBs8OzWCqmV8NRQEy4hOQJXFFJ4861tFFWS6uJaQgW26HNl6tYVvxPJ0C+RmJSMwogszNEx2a1XvPHA6Hw+FwOJy/EC9cM8zhcDgcDofD4fyveIHuGeZwOBwOh8PhcP6XAP8fUz12fMfxs7oAAAAASUVORK5CYII=;" vertex="1" parent="1">
          <mxGeometry x="340" y="130" width="707" height="310" as="geometry" />
        </mxCell>
        <mxCell id="-X_b09wzf-uSCR-H1WR--2" value="CLIENTE" style="whiteSpace=wrap;html=1;align=center;" vertex="1" parent="1">
          <mxGeometry x="420" y="545" width="100" height="40" as="geometry" />
        </mxCell>
        <mxCell id="-X_b09wzf-uSCR-H1WR--3" value="ARTÃCULO" style="whiteSpace=wrap;html=1;align=center;" vertex="1" parent="1">
          <mxGeometry x="770" y="700" width="100" height="40" as="geometry" />
        </mxCell>
        <mxCell id="-X_b09wzf-uSCR-H1WR--4" value="PEDIDO" style="whiteSpace=wrap;html=1;align=center;" vertex="1" parent="1">
          <mxGeometry x="770" y="545" width="100" height="40" as="geometry" />
        </mxCell>
        <mxCell id="-X_b09wzf-uSCR-H1WR--5" value="realiza" style="shape=rhombus;perimeter=rhombusPerimeter;whiteSpace=wrap;html=1;align=center;" vertex="1" parent="1">
          <mxGeometry x="590" y="535" width="120" height="60" as="geometry" />
        </mxCell>
        <mxCell id="-X_b09wzf-uSCR-H1WR--6" value="" style="endArrow=none;html=1;rounded=0;entryX=1;entryY=0.5;entryDx=0;entryDy=0;exitX=0;exitY=0.5;exitDx=0;exitDy=0;" edge="1" parent="1" source="-X_b09wzf-uSCR-H1WR--5" target="-X_b09wzf-uSCR-H1WR--2">
          <mxGeometry relative="1" as="geometry">
            <mxPoint x="650" y="420" as="sourcePoint" />
            <mxPoint x="810" y="420" as="targetPoint" />
          </mxGeometry>
        </mxCell>
        <mxCell id="-X_b09wzf-uSCR-H1WR--7" value="(1,1)" style="resizable=0;html=1;whiteSpace=wrap;align=right;verticalAlign=bottom;" connectable="0" vertex="1" parent="-X_b09wzf-uSCR-H1WR--6">
          <mxGeometry x="1" relative="1" as="geometry">
            <mxPoint x="30" as="offset" />
          </mxGeometry>
        </mxCell>
        <mxCell id="-X_b09wzf-uSCR-H1WR--8" value="" style="endArrow=none;html=1;rounded=0;entryX=0;entryY=0.5;entryDx=0;entryDy=0;exitX=1;exitY=0.5;exitDx=0;exitDy=0;" edge="1" parent="1" source="-X_b09wzf-uSCR-H1WR--5" target="-X_b09wzf-uSCR-H1WR--4">
          <mxGeometry relative="1" as="geometry">
            <mxPoint x="650" y="520" as="sourcePoint" />
            <mxPoint x="810" y="520" as="targetPoint" />
          </mxGeometry>
        </mxCell>
        <mxCell id="-X_b09wzf-uSCR-H1WR--9" value="(1,M)" style="resizable=0;html=1;whiteSpace=wrap;align=right;verticalAlign=bottom;" connectable="0" vertex="1" parent="-X_b09wzf-uSCR-H1WR--8">
          <mxGeometry x="1" relative="1" as="geometry" />
        </mxCell>
        <mxCell id="-X_b09wzf-uSCR-H1WR--10" value="Num_cliente" style="ellipse;whiteSpace=wrap;html=1;align=center;fontStyle=4;" vertex="1" parent="1">
          <mxGeometry x="340" y="480" width="100" height="40" as="geometry" />
        </mxCell>
        <mxCell id="-X_b09wzf-uSCR-H1WR--11" value="Saldo" style="ellipse;whiteSpace=wrap;html=1;align=center;" vertex="1" parent="1">
          <mxGeometry x="350" y="630" width="100" height="40" as="geometry" />
        </mxCell>
        <mxCell id="-X_b09wzf-uSCR-H1WR--12" value="tiene" style="shape=rhombus;perimeter=rhombusPerimeter;whiteSpace=wrap;html=1;align=center;" vertex="1" parent="1">
          <mxGeometry x="220" y="535" width="120" height="60" as="geometry" />
        </mxCell>
        <mxCell id="-X_b09wzf-uSCR-H1WR--13" value="DIRECCION" style="whiteSpace=wrap;html=1;align=center;" vertex="1" parent="1">
          <mxGeometry x="50" y="545" width="100" height="40" as="geometry" />
        </mxCell>
        <mxCell id="-X_b09wzf-uSCR-H1WR--14" value="Calle" style="ellipse;whiteSpace=wrap;html=1;align=center;" vertex="1" parent="1">
          <mxGeometry x="80" y="610" width="100" height="40" as="geometry" />
        </mxCell>
        <mxCell id="-X_b09wzf-uSCR-H1WR--15" value="Codigo_postal" style="ellipse;whiteSpace=wrap;html=1;align=center;" vertex="1" parent="1">
          <mxGeometry x="60" y="470" width="100" height="40" as="geometry" />
        </mxCell>
        <mxCell id="-X_b09wzf-uSCR-H1WR--16" value="Ciudad" style="ellipse;whiteSpace=wrap;html=1;align=center;" vertex="1" parent="1">
          <mxGeometry x="-90" y="590" width="100" height="40" as="geometry" />
        </mxCell>
        <mxCell id="-X_b09wzf-uSCR-H1WR--17" value="ID_direccion" style="ellipse;whiteSpace=wrap;html=1;align=center;fontStyle=4;" vertex="1" parent="1">
          <mxGeometry x="-90" y="495" width="100" height="40" as="geometry" />
        </mxCell>
        <mxCell id="-X_b09wzf-uSCR-H1WR--18" value="" style="endArrow=none;html=1;rounded=0;exitX=1;exitY=0.5;exitDx=0;exitDy=0;entryX=0;entryY=0;entryDx=0;entryDy=0;" edge="1" parent="1" source="-X_b09wzf-uSCR-H1WR--17" target="-X_b09wzf-uSCR-H1WR--13">
          <mxGeometry relative="1" as="geometry">
            <mxPoint x="180" y="520" as="sourcePoint" />
            <mxPoint x="340" y="520" as="targetPoint" />
          </mxGeometry>
        </mxCell>
        <mxCell id="-X_b09wzf-uSCR-H1WR--19" value="" style="endArrow=none;html=1;rounded=0;exitX=1;exitY=0;exitDx=0;exitDy=0;entryX=0;entryY=0.5;entryDx=0;entryDy=0;" edge="1" parent="1" source="-X_b09wzf-uSCR-H1WR--16" target="-X_b09wzf-uSCR-H1WR--13">
          <mxGeometry relative="1" as="geometry">
            <mxPoint x="180" y="520" as="sourcePoint" />
            <mxPoint x="50" y="590" as="targetPoint" />
          </mxGeometry>
        </mxCell>
        <mxCell id="-X_b09wzf-uSCR-H1WR--20" value="" style="endArrow=none;html=1;rounded=0;exitX=0.5;exitY=1;exitDx=0;exitDy=0;entryX=0;entryY=0;entryDx=0;entryDy=0;" edge="1" parent="1" source="-X_b09wzf-uSCR-H1WR--13" target="-X_b09wzf-uSCR-H1WR--14">
          <mxGeometry relative="1" as="geometry">
            <mxPoint x="90" y="560" as="sourcePoint" />
            <mxPoint x="250" y="560" as="targetPoint" />
          </mxGeometry>
        </mxCell>
        <mxCell id="-X_b09wzf-uSCR-H1WR--21" value="" style="endArrow=none;html=1;rounded=0;exitX=0.25;exitY=0;exitDx=0;exitDy=0;entryX=0.5;entryY=1;entryDx=0;entryDy=0;" edge="1" parent="1" source="-X_b09wzf-uSCR-H1WR--13" target="-X_b09wzf-uSCR-H1WR--15">
          <mxGeometry relative="1" as="geometry">
            <mxPoint x="90" y="560" as="sourcePoint" />
            <mxPoint x="250" y="560" as="targetPoint" />
          </mxGeometry>
        </mxCell>
        <mxCell id="-X_b09wzf-uSCR-H1WR--24" value="" style="endArrow=none;html=1;rounded=0;entryX=0;entryY=0.5;entryDx=0;entryDy=0;exitX=1;exitY=0.5;exitDx=0;exitDy=0;" edge="1" parent="1" source="-X_b09wzf-uSCR-H1WR--12" target="-X_b09wzf-uSCR-H1WR--2">
          <mxGeometry relative="1" as="geometry">
            <mxPoint x="70" y="550" as="sourcePoint" />
            <mxPoint x="240" y="620" as="targetPoint" />
          </mxGeometry>
        </mxCell>
        <mxCell id="-X_b09wzf-uSCR-H1WR--25" value="(1,1)" style="resizable=0;html=1;whiteSpace=wrap;align=right;verticalAlign=bottom;" connectable="0" vertex="1" parent="-X_b09wzf-uSCR-H1WR--24">
          <mxGeometry x="1" relative="1" as="geometry" />
        </mxCell>
        <mxCell id="-X_b09wzf-uSCR-H1WR--26" value="" style="endArrow=none;html=1;rounded=0;entryX=1;entryY=0.5;entryDx=0;entryDy=0;exitX=0;exitY=0.5;exitDx=0;exitDy=0;" edge="1" parent="1" source="-X_b09wzf-uSCR-H1WR--12" target="-X_b09wzf-uSCR-H1WR--13">
          <mxGeometry relative="1" as="geometry">
            <mxPoint x="70" y="550" as="sourcePoint" />
            <mxPoint x="230" y="550" as="targetPoint" />
          </mxGeometry>
        </mxCell>
        <mxCell id="-X_b09wzf-uSCR-H1WR--27" value="(1,M)" style="resizable=0;html=1;whiteSpace=wrap;align=right;verticalAlign=bottom;" connectable="0" vertex="1" parent="-X_b09wzf-uSCR-H1WR--26">
          <mxGeometry x="1" relative="1" as="geometry">
            <mxPoint x="40" as="offset" />
          </mxGeometry>
        </mxCell>
        <mxCell id="-X_b09wzf-uSCR-H1WR--28" value="" style="endArrow=none;html=1;rounded=0;exitX=0.5;exitY=0;exitDx=0;exitDy=0;entryX=0.5;entryY=1;entryDx=0;entryDy=0;" edge="1" parent="1" source="-X_b09wzf-uSCR-H1WR--11" target="-X_b09wzf-uSCR-H1WR--2">
          <mxGeometry relative="1" as="geometry">
            <mxPoint x="500" y="490" as="sourcePoint" />
            <mxPoint x="660" y="490" as="targetPoint" />
          </mxGeometry>
        </mxCell>
        <mxCell id="-X_b09wzf-uSCR-H1WR--29" value="" style="endArrow=none;html=1;rounded=0;exitX=1;exitY=0.5;exitDx=0;exitDy=0;entryX=0.5;entryY=0;entryDx=0;entryDy=0;" edge="1" parent="1" source="-X_b09wzf-uSCR-H1WR--10" target="-X_b09wzf-uSCR-H1WR--2">
          <mxGeometry relative="1" as="geometry">
            <mxPoint x="500" y="490" as="sourcePoint" />
            <mxPoint x="660" y="490" as="targetPoint" />
          </mxGeometry>
        </mxCell>
        <mxCell id="-X_b09wzf-uSCR-H1WR--30" value="Limite_credito" style="ellipse;whiteSpace=wrap;html=1;align=center;" vertex="1" parent="1">
          <mxGeometry x="460" y="640" width="100" height="40" as="geometry" />
        </mxCell>
        <mxCell id="-X_b09wzf-uSCR-H1WR--31" value="" style="endArrow=none;html=1;rounded=0;exitX=0.75;exitY=1;exitDx=0;exitDy=0;entryX=0.5;entryY=0;entryDx=0;entryDy=0;" edge="1" parent="1" source="-X_b09wzf-uSCR-H1WR--2" target="-X_b09wzf-uSCR-H1WR--30">
          <mxGeometry relative="1" as="geometry">
            <mxPoint x="500" y="610" as="sourcePoint" />
            <mxPoint x="660" y="610" as="targetPoint" />
          </mxGeometry>
        </mxCell>
        <mxCell id="-X_b09wzf-uSCR-H1WR--32" value="&lt;h1 style=&quot;margin-top: 0px;&quot;&gt;Restricciones&lt;/h1&gt;&lt;p&gt;-El limite de crÃ©dito del cliente no puede superar los 3.000.000&amp;nbsp;&lt;/p&gt;" style="text;html=1;whiteSpace=wrap;overflow=hidden;rounded=0;" vertex="1" parent="1">
          <mxGeometry x="140" y="800" width="180" height="120" as="geometry" />
        </mxCell>
        <mxCell id="-X_b09wzf-uSCR-H1WR--33" value="Num_articulo" style="ellipse;whiteSpace=wrap;html=1;align=center;fontStyle=4;" vertex="1" parent="1">
          <mxGeometry x="910" y="720" width="100" height="40" as="geometry" />
        </mxCell>
        <mxCell id="-X_b09wzf-uSCR-H1WR--34" value="" style="endArrow=none;html=1;rounded=0;entryX=0;entryY=0.5;entryDx=0;entryDy=0;exitX=1;exitY=0.5;exitDx=0;exitDy=0;" edge="1" parent="1" source="-X_b09wzf-uSCR-H1WR--3" target="-X_b09wzf-uSCR-H1WR--33">
          <mxGeometry relative="1" as="geometry">
            <mxPoint x="600" y="240" as="sourcePoint" />
            <mxPoint x="760" y="240" as="targetPoint" />
          </mxGeometry>
        </mxCell>
        <mxCell id="-X_b09wzf-uSCR-H1WR--35" value="FABRICA" style="whiteSpace=wrap;html=1;align=center;" vertex="1" parent="1">
          <mxGeometry x="770" y="900" width="100" height="40" as="geometry" />
        </mxCell>
        <mxCell id="-X_b09wzf-uSCR-H1WR--37" value="distribuye" style="shape=rhombus;perimeter=rhombusPerimeter;whiteSpace=wrap;html=1;align=center;" vertex="1" parent="1">
          <mxGeometry x="775" y="800" width="90" height="50" as="geometry" />
        </mxCell>
        <mxCell id="-X_b09wzf-uSCR-H1WR--39" value="" style="endArrow=none;html=1;rounded=0;entryX=0.5;entryY=0;entryDx=0;entryDy=0;exitX=0.5;exitY=1;exitDx=0;exitDy=0;" edge="1" parent="1" source="-X_b09wzf-uSCR-H1WR--37" target="-X_b09wzf-uSCR-H1WR--35">
          <mxGeometry relative="1" as="geometry">
            <mxPoint x="600" y="240" as="sourcePoint" />
            <mxPoint x="760" y="240" as="targetPoint" />
          </mxGeometry>
        </mxCell>
        <mxCell id="-X_b09wzf-uSCR-H1WR--40" value="(1,1)" style="resizable=0;html=1;whiteSpace=wrap;align=right;verticalAlign=bottom;" connectable="0" vertex="1" parent="-X_b09wzf-uSCR-H1WR--39">
          <mxGeometry x="1" relative="1" as="geometry">
            <mxPoint x="30" as="offset" />
          </mxGeometry>
        </mxCell>
        <mxCell id="-X_b09wzf-uSCR-H1WR--41" value="" style="endArrow=none;html=1;rounded=0;entryX=0.5;entryY=1;entryDx=0;entryDy=0;exitX=0.5;exitY=0;exitDx=0;exitDy=0;" edge="1" parent="1" source="-X_b09wzf-uSCR-H1WR--37" target="-X_b09wzf-uSCR-H1WR--3">
          <mxGeometry relative="1" as="geometry">
            <mxPoint x="430" y="400" as="sourcePoint" />
            <mxPoint x="590" y="400" as="targetPoint" />
          </mxGeometry>
        </mxCell>
        <mxCell id="-X_b09wzf-uSCR-H1WR--42" value="(1,M)" style="resizable=0;html=1;whiteSpace=wrap;align=right;verticalAlign=bottom;" connectable="0" vertex="1" parent="-X_b09wzf-uSCR-H1WR--41">
          <mxGeometry x="1" relative="1" as="geometry">
            <mxPoint y="20" as="offset" />
          </mxGeometry>
        </mxCell>
        <mxCell id="-X_b09wzf-uSCR-H1WR--43" value="Num_fabrica" style="ellipse;whiteSpace=wrap;html=1;align=center;fontStyle=4;" vertex="1" parent="1">
          <mxGeometry x="610" y="970" width="100" height="40" as="geometry" />
        </mxCell>
        <mxCell id="-X_b09wzf-uSCR-H1WR--44" value="" style="endArrow=none;html=1;rounded=0;exitX=1;exitY=0.5;exitDx=0;exitDy=0;entryX=0;entryY=0.5;entryDx=0;entryDy=0;" edge="1" parent="1" source="-X_b09wzf-uSCR-H1WR--43" target="-X_b09wzf-uSCR-H1WR--35">
          <mxGeometry relative="1" as="geometry">
            <mxPoint x="610" y="490" as="sourcePoint" />
            <mxPoint x="770" y="490" as="targetPoint" />
          </mxGeometry>
        </mxCell>
        <mxCell id="-X_b09wzf-uSCR-H1WR--45" value="Telefono" style="ellipse;whiteSpace=wrap;html=1;align=center;" vertex="1" parent="1">
          <mxGeometry x="770" y="980" width="100" height="40" as="geometry" />
        </mxCell>
        <mxCell id="-X_b09wzf-uSCR-H1WR--46" value="" style="endArrow=none;html=1;rounded=0;exitX=0.5;exitY=0;exitDx=0;exitDy=0;entryX=0.5;entryY=1;entryDx=0;entryDy=0;" edge="1" parent="1" source="-X_b09wzf-uSCR-H1WR--45" target="-X_b09wzf-uSCR-H1WR--35">
          <mxGeometry relative="1" as="geometry">
            <mxPoint x="610" y="490" as="sourcePoint" />
            <mxPoint x="770" y="490" as="targetPoint" />
          </mxGeometry>
        </mxCell>
        <mxCell id="-X_b09wzf-uSCR-H1WR--48" value="contiene" style="shape=rhombus;perimeter=rhombusPerimeter;whiteSpace=wrap;html=1;align=center;" vertex="1" parent="1">
          <mxGeometry x="780" y="620" width="80" height="40" as="geometry" />
        </mxCell>
        <mxCell id="-X_b09wzf-uSCR-H1WR--50" value="" style="endArrow=none;html=1;rounded=0;entryX=0.5;entryY=1;entryDx=0;entryDy=0;exitX=0.5;exitY=0;exitDx=0;exitDy=0;" edge="1" parent="1" source="-X_b09wzf-uSCR-H1WR--48" target="-X_b09wzf-uSCR-H1WR--4">
          <mxGeometry relative="1" as="geometry">
            <mxPoint x="610" y="690" as="sourcePoint" />
            <mxPoint x="770" y="690" as="targetPoint" />
          </mxGeometry>
        </mxCell>
        <mxCell id="-X_b09wzf-uSCR-H1WR--51" value="(1,M)" style="resizable=0;html=1;whiteSpace=wrap;align=right;verticalAlign=bottom;" connectable="0" vertex="1" parent="-X_b09wzf-uSCR-H1WR--50">
          <mxGeometry x="1" relative="1" as="geometry">
            <mxPoint x="-10" y="25" as="offset" />
          </mxGeometry>
        </mxCell>
        <mxCell id="-X_b09wzf-uSCR-H1WR--52" value="" style="endArrow=none;html=1;rounded=0;entryX=0.5;entryY=0;entryDx=0;entryDy=0;exitX=0.5;exitY=1;exitDx=0;exitDy=0;" edge="1" parent="1" source="-X_b09wzf-uSCR-H1WR--48" target="-X_b09wzf-uSCR-H1WR--3">
          <mxGeometry relative="1" as="geometry">
            <mxPoint x="610" y="690" as="sourcePoint" />
            <mxPoint x="770" y="690" as="targetPoint" />
          </mxGeometry>
        </mxCell>
        <mxCell id="-X_b09wzf-uSCR-H1WR--53" value="(1,M)" style="resizable=0;html=1;whiteSpace=wrap;align=right;verticalAlign=bottom;" connectable="0" vertex="1" parent="-X_b09wzf-uSCR-H1WR--52">
          <mxGeometry x="1" relative="1" as="geometry" />
        </mxCell>
        <mxCell id="-X_b09wzf-uSCR-H1WR--54" value="DescripciÃ³n" style="ellipse;whiteSpace=wrap;html=1;align=center;" vertex="1" parent="1">
          <mxGeometry x="920" y="680" width="70" height="30" as="geometry" />
        </mxCell>
        <mxCell id="-X_b09wzf-uSCR-H1WR--55" value="" style="endArrow=none;html=1;rounded=0;exitX=1;exitY=0;exitDx=0;exitDy=0;entryX=0;entryY=1;entryDx=0;entryDy=0;" edge="1" parent="1" source="-X_b09wzf-uSCR-H1WR--3" target="-X_b09wzf-uSCR-H1WR--54">
          <mxGeometry relative="1" as="geometry">
            <mxPoint x="600" y="720" as="sourcePoint" />
            <mxPoint x="760" y="720" as="targetPoint" />
          </mxGeometry>
        </mxCell>
        <mxCell id="-X_b09wzf-uSCR-H1WR--56" value="Fecha" style="ellipse;whiteSpace=wrap;html=1;align=center;" vertex="1" parent="1">
          <mxGeometry x="900" y="495" width="100" height="40" as="geometry" />
        </mxCell>
        <mxCell id="-X_b09wzf-uSCR-H1WR--57" value="" style="endArrow=none;html=1;rounded=0;exitX=1;exitY=0;exitDx=0;exitDy=0;entryX=0;entryY=0.5;entryDx=0;entryDy=0;" edge="1" parent="1" source="-X_b09wzf-uSCR-H1WR--4" target="-X_b09wzf-uSCR-H1WR--56">
          <mxGeometry relative="1" as="geometry">
            <mxPoint x="760" y="770" as="sourcePoint" />
            <mxPoint x="920" y="770" as="targetPoint" />
          </mxGeometry>
        </mxCell>
        <mxCell id="-X_b09wzf-uSCR-H1WR--58" value="un pedido puede tener varios artÃ­culos, y un artÃ­culo puede aparecer en muchos pedidos" style="shape=note;whiteSpace=wrap;html=1;backgroundOutline=1;darkOpacity=0.05;fillColor=#dae8fc;strokeColor=#6c8ebf;" vertex="1" parent="1">
          <mxGeometry x="1090" y="630" width="240" height="90" as="geometry" />
        </mxCell>
        <mxCell id="-X_b09wzf-uSCR-H1WR--60" value="Num_pedido" style="ellipse;whiteSpace=wrap;html=1;align=center;fontStyle=4;" vertex="1" parent="1">
          <mxGeometry x="790" y="470" width="90" height="40" as="geometry" />
        </mxCell>
        <mxCell id="-X_b09wzf-uSCR-H1WR--61" value="" style="endArrow=none;html=1;rounded=0;exitX=0.5;exitY=1;exitDx=0;exitDy=0;" edge="1" parent="1" source="-X_b09wzf-uSCR-H1WR--60" target="-X_b09wzf-uSCR-H1WR--4">
          <mxGeometry relative="1" as="geometry">
            <mxPoint x="760" y="590" as="sourcePoint" />
            <mxPoint x="920" y="590" as="targetPoint" />
          </mxGeometry>
        </mxCell>
        <mxCell id="-X_b09wzf-uSCR-H1WR--64" value="" style="endArrow=none;html=1;rounded=0;entryX=1;entryY=0.5;entryDx=0;entryDy=0;exitX=0;exitY=0.5;exitDx=0;exitDy=0;" edge="1" parent="1" source="-X_b09wzf-uSCR-H1WR--66" target="-X_b09wzf-uSCR-H1WR--4">
          <mxGeometry relative="1" as="geometry">
            <mxPoint x="920" y="590" as="sourcePoint" />
            <mxPoint x="950" y="650" as="targetPoint" />
          </mxGeometry>
        </mxCell>
        <mxCell id="-X_b09wzf-uSCR-H1WR--65" value="(1,1)" style="resizable=0;html=1;whiteSpace=wrap;align=right;verticalAlign=bottom;" connectable="0" vertex="1" parent="-X_b09wzf-uSCR-H1WR--64">
          <mxGeometry x="1" relative="1" as="geometry">
            <mxPoint x="30" as="offset" />
          </mxGeometry>
        </mxCell>
        <mxCell id="-X_b09wzf-uSCR-H1WR--66" value="tiene" style="shape=rhombus;perimeter=rhombusPerimeter;whiteSpace=wrap;html=1;align=center;" vertex="1" parent="1">
          <mxGeometry x="960" y="542.5" width="90" height="45" as="geometry" />
        </mxCell>
        <mxCell id="-X_b09wzf-uSCR-H1WR--67" value="CABECERA" style="shape=ext;margin=3;double=1;whiteSpace=wrap;html=1;align=center;" vertex="1" parent="1">
          <mxGeometry x="1110" y="545" width="100" height="40" as="geometry" />
        </mxCell>
        <mxCell id="-X_b09wzf-uSCR-H1WR--68" value="" style="endArrow=none;html=1;rounded=0;entryX=0;entryY=0.5;entryDx=0;entryDy=0;exitX=1;exitY=0.5;exitDx=0;exitDy=0;" edge="1" parent="1" source="-X_b09wzf-uSCR-H1WR--66" target="-X_b09wzf-uSCR-H1WR--67">
          <mxGeometry relative="1" as="geometry">
            <mxPoint x="790" y="540" as="sourcePoint" />
            <mxPoint x="950" y="540" as="targetPoint" />
          </mxGeometry>
        </mxCell>
        <mxCell id="-X_b09wzf-uSCR-H1WR--69" value="(1,1)" style="resizable=0;html=1;whiteSpace=wrap;align=right;verticalAlign=bottom;" connectable="0" vertex="1" parent="-X_b09wzf-uSCR-H1WR--68">
          <mxGeometry x="1" relative="1" as="geometry" />
        </mxCell>
        <mxCell id="-X_b09wzf-uSCR-H1WR--70" value="Cant" style="ellipse;whiteSpace=wrap;html=1;align=center;" vertex="1" parent="1">
          <mxGeometry x="1260" y="545" width="100" height="40" as="geometry" />
        </mxCell>
        <mxCell id="-X_b09wzf-uSCR-H1WR--71" value="" style="endArrow=none;html=1;rounded=0;exitX=1;exitY=0.5;exitDx=0;exitDy=0;entryX=0;entryY=0.5;entryDx=0;entryDy=0;" edge="1" parent="1" source="-X_b09wzf-uSCR-H1WR--67" target="-X_b09wzf-uSCR-H1WR--70">
          <mxGeometry relative="1" as="geometry">
            <mxPoint x="1050" y="580" as="sourcePoint" />
            <mxPoint x="1210" y="580" as="targetPoint" />
          </mxGeometry>
        </mxCell>
        <mxCell id="-X_b09wzf-uSCR-H1WR--72" value="Fabricas_q_distribuyen" style="ellipse;whiteSpace=wrap;html=1;align=center;" vertex="1" parent="1">
          <mxGeometry x="900" y="800" width="155" height="40" as="geometry" />
        </mxCell>
        <mxCell id="-X_b09wzf-uSCR-H1WR--73" value="Existencia_art" style="ellipse;whiteSpace=wrap;html=1;align=center;" vertex="1" parent="1">
          <mxGeometry x="640" y="800" width="100" height="40" as="geometry" />
        </mxCell>
        <mxCell id="-X_b09wzf-uSCR-H1WR--75" value="" style="endArrow=none;html=1;rounded=0;exitX=1;exitY=0.5;exitDx=0;exitDy=0;entryX=0;entryY=0.5;entryDx=0;entryDy=0;" edge="1" parent="1" source="-X_b09wzf-uSCR-H1WR--73" target="-X_b09wzf-uSCR-H1WR--37">
          <mxGeometry relative="1" as="geometry">
            <mxPoint x="610" y="730" as="sourcePoint" />
            <mxPoint x="770" y="730" as="targetPoint" />
          </mxGeometry>
        </mxCell>
        <mxCell id="-X_b09wzf-uSCR-H1WR--76" value="" style="endArrow=none;html=1;rounded=0;exitX=1;exitY=0.5;exitDx=0;exitDy=0;entryX=0;entryY=0.5;entryDx=0;entryDy=0;" edge="1" parent="1" source="-X_b09wzf-uSCR-H1WR--37" target="-X_b09wzf-uSCR-H1WR--72">
          <mxGeometry relative="1" as="geometry">
            <mxPoint x="780" y="750" as="sourcePoint" />
            <mxPoint x="940" y="750" as="targetPoint" />
          </mxGeometry>
        </mxCell>
        <mxCell id="-X_b09wzf-uSCR-H1WR--78" value="Descuento" style="ellipse;whiteSpace=wrap;html=1;align=center;" vertex="1" parent="1">
          <mxGeometry x="510" y="480" width="100" height="40" as="geometry" />
        </mxCell>
        <mxCell id="-X_b09wzf-uSCR-H1WR--83" value="" style="endArrow=none;html=1;rounded=0;entryX=0.5;entryY=1;entryDx=0;entryDy=0;exitX=1;exitY=0;exitDx=0;exitDy=0;" edge="1" parent="1" source="-X_b09wzf-uSCR-H1WR--2" target="-X_b09wzf-uSCR-H1WR--78">
          <mxGeometry relative="1" as="geometry">
            <mxPoint x="480" y="700" as="sourcePoint" />
            <mxPoint x="640" y="700" as="targetPoint" />
          </mxGeometry>
        </mxCell>
      </root>
    </mxGraphModel>
  </diagram>
</mxfile>
